<?xml version="1.0" encoding="UTF-8" standalone="no"?>
<!-- Created with Inkscape (http://www.inkscape.org/) -->

<svg
   xmlns:dc="http://purl.org/dc/elements/1.1/"
   xmlns:cc="http://creativecommons.org/ns#"
   xmlns:rdf="http://www.w3.org/1999/02/22-rdf-syntax-ns#"
   xmlns:svg="http://www.w3.org/2000/svg"
   xmlns="http://www.w3.org/2000/svg"
   xmlns:sodipodi="http://sodipodi.sourceforge.net/DTD/sodipodi-0.dtd"
   xmlns:inkscape="http://www.inkscape.org/namespaces/inkscape"
   width="744.09448819"
   height="1052.3622047"
   id="svg3246"
   version="1.1"
   inkscape:version="0.48.4 r9939"
   sodipodi:docname="concept-11.svg">
  <defs
     id="defs3248" />
  <sodipodi:namedview
     id="base"
     pagecolor="#ffffff"
     bordercolor="#666666"
     borderopacity="1.0"
     inkscape:pageopacity="0.0"
     inkscape:pageshadow="2"
     inkscape:zoom="0.56328125"
     inkscape:cx="396.87568"
     inkscape:cy="411.99815"
     inkscape:document-units="px"
     inkscape:current-layer="layer2"
     showgrid="false"
     inkscape:window-width="1568"
     inkscape:window-height="1028"
     inkscape:window-x="-8"
     inkscape:window-y="-8"
     inkscape:window-maximized="1" />
  <metadata
     id="metadata3251">
    <rdf:RDF>
      <cc:Work
         rdf:about="">
        <dc:format>image/svg+xml</dc:format>
        <dc:type
           rdf:resource="http://purl.org/dc/dcmitype/StillImage" />
        <dc:title></dc:title>
      </cc:Work>
    </rdf:RDF>
  </metadata>
  <g
     inkscape:label="Layer 1"
     inkscape:groupmode="layer"
     id="layer1"
     style="display:inline">
    <g
       transform="translate(13.734622,42.729749)"
       id="g3204"
       inkscape:export-filename="D:\my4wing\SPOAC\conceptArt\g4181.png"
       inkscape:export-xdpi="90"
       inkscape:export-ydpi="90">
      <path
         sodipodi:nodetypes="cc"
         inkscape:connector-curvature="0"
         id="path3944"
         d="m 154.28571,204.94214 188.8376,-0.58471"
         style="fill:none;stroke:#000000;stroke-width:1px;stroke-linecap:butt;stroke-linejoin:miter;stroke-opacity:1" />
      <path
         sodipodi:nodetypes="cssccsccc"
         inkscape:connector-curvature="0"
         id="path3954"
         d="m 154.01558,204.35743 c 0,0 -4.60072,4.56716 -6.20038,4.71719 -36.25196,3.39989 -87.775592,34.77727 -98.975139,100.28844 -1.638512,9.58439 0,17.14222 0,17.14222 l 134.734079,0.44561 c 0,0 17.76124,-6.37216 23.41388,-45.50212 1.72087,-11.91259 0.42651,-25.62613 0.42651,-25.62613 -0.6302,-19.85112 -14.53327,-41.59507 -27.38619,-46.22924 l -26.89112,-0.74633"
         style="fill:none;stroke:#000000;stroke-width:1px;stroke-linecap:butt;stroke-linejoin:miter;stroke-opacity:1" />
      <path
         inkscape:connector-curvature="0"
         id="path3956"
         d="m 152.56733,326.95717 0.0557,1.61536 190.48047,-0.0621"
         style="fill:none;stroke:#000000;stroke-width:1px;stroke-linecap:butt;stroke-linejoin:miter;stroke-opacity:1" />
      <path
         sodipodi:nodetypes="csc"
         inkscape:connector-curvature="0"
         id="path3958"
         d="m 343.08892,157.22845 c 0,0 -12.91915,0.1583 -21.5196,11.48878 -11.3305,14.92712 -16.56252,35.45777 -16.62083,35.74936"
         style="fill:none;stroke:#000000;stroke-width:1px;stroke-linecap:butt;stroke-linejoin:miter;stroke-opacity:1" />
      <path
         inkscape:connector-curvature="0"
         id="path3964"
         d="m 203.54854,327.90093 c 0,0 -9.89701,57.73257 -8.24751,93.69171 1.6495,35.95914 14.84552,77.52659 26.39203,89.7329 11.54652,12.20632 15.50532,10.55682 15.50532,10.55682"
         style="fill:none;stroke:#000000;stroke-width:1px;stroke-linecap:butt;stroke-linejoin:miter;stroke-opacity:1" />
      <path
         inkscape:connector-curvature="0"
         id="path3966"
         d="m 343.12331,522.0807 -105.88284,0"
         style="fill:none;stroke:#000000;stroke-width:1px;stroke-linecap:butt;stroke-linejoin:miter;stroke-opacity:1" />
      <path
         inkscape:connector-curvature="0"
         id="path3968"
         d="m 239.92313,522.71174 -13.87985,26.01014 -1.86619,0.11664"
         style="fill:none;stroke:#000000;stroke-width:1px;stroke-linecap:butt;stroke-linejoin:miter;stroke-opacity:1" />
      <path
         inkscape:connector-curvature="0"
         id="path3970"
         d="m 223.94381,544.17303 12.94675,-22.39439"
         style="fill:none;stroke:#000000;stroke-width:1px;stroke-linecap:butt;stroke-linejoin:miter;stroke-opacity:1" />
      <path
         inkscape:connector-curvature="0"
         id="path3974"
         d="m 215.77919,531.10964 0.23328,31.37546"
         style="fill:none;stroke:#000000;stroke-width:1px;stroke-linecap:butt;stroke-linejoin:miter;stroke-opacity:1" />
      <path
         inkscape:connector-curvature="0"
         id="path3974-7"
         d="m 223.82717,531.2846 0.23328,31.37546"
         style="fill:none;stroke:#000000;stroke-width:1px;stroke-linecap:butt;stroke-linejoin:miter;stroke-opacity:1" />
      <path
         inkscape:connector-curvature="0"
         id="path3996"
         d="m 215.89583,531.69282 c 0,0 4.54886,-6.76497 7.69807,0"
         style="fill:none;stroke:#000000;stroke-width:1px;stroke-linecap:butt;stroke-linejoin:miter;stroke-opacity:1" />
      <path
         inkscape:connector-curvature="0"
         id="path3998"
         d="m 215.89583,562.36846 c 0,0 3.84903,5.59859 8.16462,-0.11664"
         style="fill:none;stroke:#000000;stroke-width:1px;stroke-linecap:butt;stroke-linejoin:miter;stroke-opacity:1" />
      <path
         inkscape:connector-curvature="0"
         id="path4002"
         d="m 339.06493,536.35832 -0.23328,30.90891"
         style="fill:none;stroke:#000000;stroke-width:1px;stroke-linecap:butt;stroke-linejoin:miter;stroke-opacity:1" />
      <path
         inkscape:connector-curvature="0"
         id="path4002-4"
         d="m 338.94829,536.3583 c -3.03257,-7.2315 -8.04798,-0.0583 -8.04798,-0.0583 l -0.23328,30.90891 c 0,0 4.78214,5.42364 8.28126,0.0583"
         style="fill:none;stroke:#000000;stroke-width:1px;stroke-linecap:butt;stroke-linejoin:miter;stroke-opacity:1" />
      <path
         inkscape:connector-curvature="0"
         id="path4022"
         d="m 341.28104,522.24519 -0.11664,34.17476 -2.44939,-0.11664"
         style="fill:none;stroke:#000000;stroke-width:1px;stroke-linecap:butt;stroke-linejoin:miter;stroke-opacity:1" />
      <path
         inkscape:connector-curvature="0"
         id="path4024"
         d="m 339.2982,547.43887 2.09947,0"
         style="fill:none;stroke:#000000;stroke-width:1px;stroke-linecap:butt;stroke-linejoin:miter;stroke-opacity:1" />
      <path
         sodipodi:nodetypes="cscscsccc"
         inkscape:connector-curvature="0"
         id="path4026"
         d="m 219.71366,344.06605 c 0,0 0.6598,-9.23721 6.59801,-9.56711 5.9382,-0.32991 101.60932,-0.32991 101.60932,-0.32991 0,0 10.22691,0 10.22691,8.57741 0,8.57742 -0.9897,79.8359 -0.9897,79.8359 0,0 -0.47494,11.59301 -9.40216,11.87642 -10.39186,0.3299 -101.77427,-0.65981 -101.77427,-0.65981 -7.91761,-1.48455 -10.61927,-2.31603 -10.88672,-5.60831 -0.82475,-10.8867 4.61861,-83.62974 4.61861,-83.62974"
         style="fill:none;stroke:#000000;stroke-width:1px;stroke-linecap:butt;stroke-linejoin:miter;stroke-opacity:1" />
      <path
         d="m 269.36367,466.789 a 19.216698,18.639372 0 1 1 -38.4334,0 19.216698,18.639372 0 1 1 38.4334,0 z"
         sodipodi:ry="18.639372"
         sodipodi:rx="19.216698"
         sodipodi:cy="466.789"
         sodipodi:cx="250.14697"
         id="path4028"
         style="fill:none;stroke:#000000;stroke-opacity:1"
         sodipodi:type="arc" />
      <path
         inkscape:connector-curvature="0"
         id="path4030"
         d="m 202.88874,334.33398 c 1.15465,0.82476 4.2887,0.65981 4.2887,6.76296 0,6.10316 -5.11345,79.506 -5.11345,79.506 0,0 5.11345,58.55732 6.26811,66.47493"
         style="fill:none;stroke:#000000;stroke-width:1px;stroke-linecap:butt;stroke-linejoin:miter;stroke-opacity:1" />
      <path
         inkscape:connector-curvature="0"
         id="path4032"
         d="m 201.23924,343.73615 c 0.82475,8.57741 0.9897,3.79385 0.82475,8.57741 -0.16495,4.78355 -5.77326,55.25831 -5.44336,63.34087 0.3299,8.08256 -1.6495,5.11346 -1.6495,5.11346"
         style="fill:none;stroke:#000000;stroke-width:1px;stroke-linecap:butt;stroke-linejoin:miter;stroke-opacity:1" />
      <path
         sodipodi:nodetypes="cc"
         inkscape:connector-curvature="0"
         id="path3944-0"
         d="m 531.92049,204.91458 -188.8376,-0.58471"
         style="fill:none;stroke:#000000;stroke-width:1px;stroke-linecap:butt;stroke-linejoin:miter;stroke-opacity:1" />
      <path
         sodipodi:nodetypes="cssccsccc"
         inkscape:connector-curvature="0"
         id="path3954-9"
         d="m 532.19062,204.32987 c 0,0 4.60072,4.56716 6.20038,4.71719 36.25197,3.39989 87.7756,34.77727 98.97515,100.28844 1.63851,9.58439 0,17.14222 0,17.14222 l -134.73409,0.44561 c 0,0 -17.76124,-6.37216 -23.41388,-45.50212 -1.72087,-11.91259 -0.42651,-25.62613 -0.42651,-25.62613 0.6302,-19.85112 14.53327,-41.59507 27.38619,-46.22924 l 26.89112,-0.74633"
         style="fill:none;stroke:#000000;stroke-width:1px;stroke-linecap:butt;stroke-linejoin:miter;stroke-opacity:1" />
      <path
         inkscape:connector-curvature="0"
         id="path3956-4"
         d="m 533.63887,326.92961 -0.0557,1.61536 -190.48047,-0.0621"
         style="fill:none;stroke:#000000;stroke-width:1px;stroke-linecap:butt;stroke-linejoin:miter;stroke-opacity:1" />
      <path
         sodipodi:nodetypes="csc"
         inkscape:connector-curvature="0"
         id="path3958-8"
         d="m 343.11728,157.20089 c 0,0 12.91915,0.1583 21.5196,11.48878 11.3305,14.92712 16.56252,35.45777 16.62083,35.74936"
         style="fill:none;stroke:#000000;stroke-width:1px;stroke-linecap:butt;stroke-linejoin:miter;stroke-opacity:1" />
      <path
         inkscape:connector-curvature="0"
         id="path3964-8"
         d="m 482.65766,327.87337 c 0,0 9.89701,57.73257 8.24751,93.69171 -1.6495,35.95914 -14.84552,77.52659 -26.39203,89.7329 -11.54652,12.20632 -15.50532,10.55682 -15.50532,10.55682"
         style="fill:none;stroke:#000000;stroke-width:1px;stroke-linecap:butt;stroke-linejoin:miter;stroke-opacity:1" />
      <path
         inkscape:connector-curvature="0"
         id="path3966-2"
         d="m 343.08289,522.05314 105.88284,0"
         style="fill:none;stroke:#000000;stroke-width:1px;stroke-linecap:butt;stroke-linejoin:miter;stroke-opacity:1" />
      <path
         inkscape:connector-curvature="0"
         id="path3968-4"
         d="m 446.28307,522.68418 13.87985,26.01014 1.86619,0.11664"
         style="fill:none;stroke:#000000;stroke-width:1px;stroke-linecap:butt;stroke-linejoin:miter;stroke-opacity:1" />
      <path
         inkscape:connector-curvature="0"
         id="path3970-5"
         d="M 462.26239,544.14547 449.31564,521.75108"
         style="fill:none;stroke:#000000;stroke-width:1px;stroke-linecap:butt;stroke-linejoin:miter;stroke-opacity:1" />
      <path
         inkscape:connector-curvature="0"
         id="path3974-5"
         d="m 470.42701,531.08208 -0.23328,31.37546"
         style="fill:none;stroke:#000000;stroke-width:1px;stroke-linecap:butt;stroke-linejoin:miter;stroke-opacity:1" />
      <path
         inkscape:connector-curvature="0"
         id="path3974-7-1"
         d="m 462.37903,531.25704 -0.23328,31.37546"
         style="fill:none;stroke:#000000;stroke-width:1px;stroke-linecap:butt;stroke-linejoin:miter;stroke-opacity:1" />
      <path
         inkscape:connector-curvature="0"
         id="path3996-7"
         d="m 470.31037,531.66526 c 0,0 -4.54886,-6.76497 -7.69807,0"
         style="fill:none;stroke:#000000;stroke-width:1px;stroke-linecap:butt;stroke-linejoin:miter;stroke-opacity:1" />
      <path
         inkscape:connector-curvature="0"
         id="path3998-1"
         d="m 470.31037,562.3409 c 0,0 -3.84903,5.59859 -8.16462,-0.11664"
         style="fill:none;stroke:#000000;stroke-width:1px;stroke-linecap:butt;stroke-linejoin:miter;stroke-opacity:1" />
      <path
         inkscape:connector-curvature="0"
         id="path4002-1"
         d="m 347.14127,536.33076 0.23328,30.90891"
         style="fill:none;stroke:#000000;stroke-width:1px;stroke-linecap:butt;stroke-linejoin:miter;stroke-opacity:1" />
      <path
         inkscape:connector-curvature="0"
         id="path4002-4-5"
         d="m 347.25791,536.33074 c 3.03257,-7.2315 8.04798,-0.0583 8.04798,-0.0583 l 0.23328,30.90891 c 0,0 -4.78214,5.42364 -8.28126,0.0583"
         style="fill:none;stroke:#000000;stroke-width:1px;stroke-linecap:butt;stroke-linejoin:miter;stroke-opacity:1" />
      <path
         inkscape:connector-curvature="0"
         id="path4022-2"
         d="m 344.92516,522.21763 0.11664,34.17476 2.44939,-0.11664"
         style="fill:none;stroke:#000000;stroke-width:1px;stroke-linecap:butt;stroke-linejoin:miter;stroke-opacity:1" />
      <path
         inkscape:connector-curvature="0"
         id="path4024-7"
         d="m 346.908,547.41131 -2.09947,0"
         style="fill:none;stroke:#000000;stroke-width:1px;stroke-linecap:butt;stroke-linejoin:miter;stroke-opacity:1" />
      <path
         sodipodi:nodetypes="cscscsccc"
         inkscape:connector-curvature="0"
         id="path4026-6"
         d="m 466.49254,344.03849 c 0,0 -0.6598,-9.23721 -6.59801,-9.56711 -5.9382,-0.32991 -101.60932,-0.32991 -101.60932,-0.32991 0,0 -10.22691,0 -10.22691,8.57741 0,8.57742 0.9897,79.8359 0.9897,79.8359 0,0 0.47494,11.59301 9.40216,11.87642 10.39186,0.3299 101.77427,-0.65981 101.77427,-0.65981 7.91761,-1.48455 10.61927,-2.31603 10.88672,-5.60831 0.82475,-10.8867 -4.61861,-83.62974 -4.61861,-83.62974"
         style="fill:none;stroke:#000000;stroke-width:1px;stroke-linecap:butt;stroke-linejoin:miter;stroke-opacity:1" />
      <path
         d="m 269.36367,466.789 a 19.216698,18.639372 0 1 1 -38.4334,0 19.216698,18.639372 0 1 1 38.4334,0 z"
         sodipodi:ry="18.639372"
         sodipodi:rx="19.216698"
         sodipodi:cy="466.789"
         sodipodi:cx="250.14697"
         id="path4028-1"
         style="fill:none;stroke:#000000;stroke-opacity:1"
         sodipodi:type="arc"
         transform="matrix(-1,0,0,1,686.20621,-0.02755125)" />
      <path
         inkscape:connector-curvature="0"
         id="path4030-4"
         d="m 483.31746,334.30642 c -1.15465,0.82476 -4.2887,0.65981 -4.2887,6.76296 0,6.10316 5.11345,79.506 5.11345,79.506 0,0 -5.11345,58.55732 -6.26811,66.47493"
         style="fill:none;stroke:#000000;stroke-width:1px;stroke-linecap:butt;stroke-linejoin:miter;stroke-opacity:1" />
      <path
         inkscape:connector-curvature="0"
         id="path4032-2"
         d="m 484.96696,343.70859 c -0.82475,8.57741 -0.9897,3.79385 -0.82475,8.57741 0.16495,4.78355 5.77326,55.25831 5.44336,63.34087 -0.3299,8.08256 1.6495,5.11346 1.6495,5.11346"
         style="fill:none;stroke:#000000;stroke-width:1px;stroke-linecap:butt;stroke-linejoin:miter;stroke-opacity:1" />
    </g>
  </g>
  <g
     inkscape:groupmode="layer"
     id="layer2"
     inkscape:label="层">
    <rect
       style="color:#000000;fill:none;stroke:#000000;stroke-width:1.00055408;stroke-linecap:butt;stroke-linejoin:miter;stroke-miterlimit:4;stroke-opacity:1;stroke-dasharray:none;stroke-dashoffset:0;marker:none;visibility:visible;display:inline;overflow:visible;enable-background:accumulate"
       id="rect3393"
       width="295.98889"
       height="213.4369"
       x="178.21913"
       y="484.06259"
       inkscape:export-filename="D:\my4wing\SPOAC\conceptArt\g4181.png"
       inkscape:export-xdpi="90"
       inkscape:export-ydpi="90" />
    <path
       style="color:#000000;fill:none;stroke:#000000;stroke-width:1.20709968;stroke-linecap:butt;stroke-linejoin:miter;stroke-miterlimit:4;stroke-opacity:1;stroke-dasharray:none;stroke-dashoffset:0;marker:none;visibility:visible;display:inline;overflow:visible;enable-background:accumulate"
       d="m 145.25406,462.03241 c 0,86.63685 0,173.27369 0,259.91054 120.64313,0 241.28625,0 361.92938,0 0,-87.44114 0,-174.88226 0,-262.3234 -120.64313,0 -241.28625,0 -361.92938,0 l 0,1.20643 0,1.20643 z"
       id="rect4163"
       inkscape:connector-curvature="0"
       inkscape:export-filename="D:\my4wing\SPOAC\conceptArt\g4181.png"
       inkscape:export-xdpi="90"
       inkscape:export-ydpi="90" />
    <path
       style="color:#000000;fill:#000000;fill-opacity:1;stroke:#000000;stroke-width:1.24271846;stroke-linecap:butt;stroke-linejoin:miter;stroke-miterlimit:4;stroke-opacity:1;stroke-dasharray:none;stroke-dashoffset:0;marker:none;visibility:visible;display:inline;overflow:visible;enable-background:accumulate"
       d="m 146.67582,590.76995 0,-130.48544 179.75035,0 179.75034,0 0,130.48544 0,130.48544 -179.75034,0 -179.75035,0 0,-130.48544 z m 328.43273,0 0,-107.40638 -149.12621,0 -149.12622,0 0,107.40638 0,107.40638 149.12622,0 149.12621,0 0,-107.40638 z"
       id="path4167"
       inkscape:connector-curvature="0"
       inkscape:export-filename="D:\my4wing\SPOAC\conceptArt\g4181.png"
       inkscape:export-xdpi="90"
       inkscape:export-ydpi="90" />
    <g
       id="g4181"
       transform="translate(-234.74768,-45.192067)"
       inkscape:export-xdpi="90"
       inkscape:export-ydpi="90">
      <path
         d="m 625.79748,634.72003 c 0,19.85468 -16.09539,35.95007 -35.95007,35.95007 -19.85467,0 -35.95007,-16.09539 -35.95007,-35.95007 0,-19.85467 16.0954,-35.95007 35.95007,-35.95007 19.85468,0 35.95007,16.0954 35.95007,35.95007 z"
         sodipodi:ry="35.950069"
         sodipodi:rx="35.950069"
         sodipodi:cy="634.72003"
         sodipodi:cx="589.84741"
         id="path4169"
         style="color:#000000;fill:none;stroke:#aa0000;stroke-width:1.39999998;stroke-linecap:butt;stroke-linejoin:miter;stroke-miterlimit:4;stroke-opacity:1;stroke-dasharray:none;stroke-dashoffset:0;marker:none;visibility:visible;display:inline;overflow:visible;enable-background:accumulate"
         sodipodi:type="arc" />
      <path
         sodipodi:nodetypes="cccc"
         inkscape:connector-curvature="0"
         id="path4171"
         d="m 590.35434,653.30457 -9.65653,29.8926 17.95926,-0.10361 z"
         style="fill:#be0000;fill-opacity:1;stroke:none" />
      <path
         style="fill:#be0000;fill-opacity:1;stroke:none"
         d="m 610.71104,636.43983 29.99646,9.3289 -0.30009,-17.95704 z"
         id="path4175"
         inkscape:connector-curvature="0"
         sodipodi:nodetypes="cccc" />
      <path
         style="fill:#be0000;fill-opacity:1;stroke:none"
         d="m 591.83444,618.9819 9.47891,-29.9494 -17.95833,0.21022 z"
         id="path4177"
         inkscape:connector-curvature="0"
         sodipodi:nodetypes="cccc" />
      <path
         sodipodi:nodetypes="cccc"
         inkscape:connector-curvature="0"
         id="path4179"
         d="m 571.57821,635.96718 -30.05131,-9.15067 0.40668,17.95495 z"
         style="fill:#be0000;fill-opacity:1;stroke:none" />
    </g>
  </g>
</svg>
