 0
SECTION
 2
ENTITIES
  0
LINE
 8
base
10
128.208550974134
20
170.99451676182
30
0.0
11
127.955972212952
21
179.031703261572
31
0.0
  0
LINE
 8
base
10
47.3284937177723
20
290.005906955516
30
0.0
11
39.7627262541268
21
292.729750847599
31
0.0
  0
LINE
 8
base
10
39.7627262541268
20
292.729750847599
30
0.0
11
32.0408565312349
21
294.973161386284
31
0.0
  0
LINE
 8
base
10
32.0408565312349
20
294.973161386284
30
0.0
11
24.1933592411063
21
296.727284855092
31
0.0
  0
LINE
 8
base
10
24.1933592411063
20
296.727284855092
30
0.0
11
16.2512048703645
21
297.985198530073
31
0.0
  0
LINE
 8
base
10
16.2512048703645
20
297.985198530073
30
0.0
11
8.24573747388565
21
298.741938000638
31
0.0
  0
LINE
 8
base
10
8.24573747388565
20
298.741938000638
30
0.0
11
0.208550974133528
21
298.99451676182
31
0.0
  0
LINE
 8
base
10
0.208550974133528
20
298.99451676182
30
0.0
11
-7.82863552561857
21
298.741938000638
31
0.0
  0
LINE
 8
base
10
-7.82863552561857
20
298.741938000638
30
0.0
11
-15.8341029220974
21
297.985198530073
31
0.0
  0
LINE
 8
base
10
-15.8341029220974
20
297.985198530073
30
0.0
11
-23.7762572928392
21
296.727284855092
31
0.0
  0
LINE
 8
base
10
-23.7762572928392
20
296.727284855092
30
0.0
11
-31.6237545829679
21
294.973161386284
31
0.0
  0
LINE
 8
base
10
-31.6237545829679
20
294.973161386284
30
0.0
11
-39.3456243058597
21
292.729750847599
31
0.0
  0
LINE
 8
base
10
-39.3456243058597
20
292.729750847599
30
0.0
11
-46.9113917695052
21
290.005906955516
31
0.0
  0
LINE
 8
base
10
-46.9113917695052
20
290.005906955516
30
0.0
11
-54.2911983461957
21
286.81237947747
31
0.0
  0
LINE
 8
base
10
-54.2911983461957
20
286.81237947747
30
0.0
11
-61.455919310886
21
283.161771807434
31
0.0
  0
LINE
 8
base
10
-61.455919310886
20
283.161771807434
30
0.0
11
-68.377278783178
21
279.068491226077
31
0.0
  0
LINE
 8
base
10
-68.377278783178
20
279.068491226077
30
0.0
11
-75.027961319303
21
274.548692041813
31
0.0
  0
LINE
 8
base
10
-75.027961319303
20
274.548692041813
30
0.0
11
-81.3817197136987
21
269.620211837121
31
0.0
  0
LINE
 8
base
10
-81.3817197136987
20
269.620211837121
30
0.0
11
-87.4134785847386
21
264.30250107176
31
0.0
  0
LINE
 8
base
10
-87.4134785847386
20
264.30250107176
30
0.0
11
-93.0994333358071
21
258.616546320692
31
0.0
  0
LINE
 8
base
10
-93.0994333358071
20
258.616546320692
30
0.0
11
-98.4171441011675
21
252.584787449652
31
0.0
  0
LINE
 8
base
10
-98.4171441011675
20
252.584787449652
30
0.0
11
-103.34562430586
21
246.231029055256
31
0.0
  0
LINE
 8
base
10
-103.34562430586
20
246.231029055256
30
0.0
11
-107.865423490124
21
239.580346519131
31
0.0
  0
LINE
 8
base
10
-107.865423490124
20
239.580346519131
30
0.0
11
-111.958704071481
21
232.658987046839
31
0.0
  0
LINE
 8
base
10
-111.958704071481
20
232.658987046839
30
0.0
11
-115.609311741517
21
225.494266082149
31
0.0
  0
LINE
 8
base
10
-115.609311741517
20
225.494266082149
30
0.0
11
-118.802839219563
21
218.114459505458
31
0.0
  0
LINE
 8
base
10
-118.802839219563
20
218.114459505458
30
0.0
11
-121.526683111646
21
210.548692041813
31
0.0
  0
LINE
 8
base
10
-121.526683111646
20
210.548692041813
30
0.0
11
-123.770093650331
21
202.826822318921
31
0.0
  0
LINE
 8
base
10
-123.770093650331
20
202.826822318921
30
0.0
11
-125.524217119139
21
194.979325028792
31
0.0
  0
LINE
 8
base
10
-125.524217119139
20
194.979325028792
30
0.0
11
-126.78213079412
21
187.03717065805
31
0.0
  0
LINE
 8
base
10
-126.78213079412
20
187.03717065805
30
0.0
11
-127.538870264685
21
179.031703261572
31
0.0
  0
LINE
 8
base
10
-127.538870264685
20
179.031703261572
30
0.0
11
-127.791449025866
21
170.994516761819
31
0.0
  0
LINE
 8
base
10
-127.791449025866
20
170.994516761819
30
0.0
11
-127.538870264685
21
162.957330262067
31
0.0
  0
LINE
 8
base
10
-127.538870264685
20
162.957330262067
30
0.0
11
-126.78213079412
21
154.951862865589
31
0.0
  0
LINE
 8
base
10
-126.78213079412
20
154.951862865589
30
0.0
11
-125.524217119139
21
147.009708494847
31
0.0
  0
LINE
 8
base
10
-125.524217119139
20
147.009708494847
30
0.0
11
-123.770093650331
21
139.162211204718
31
0.0
  0
LINE
 8
base
10
-123.770093650331
20
139.162211204718
30
0.0
11
-121.526683111646
21
131.440341481826
31
0.0
  0
LINE
 8
base
10
-121.526683111646
20
131.440341481826
30
0.0
11
-118.802839219563
21
123.874574018181
31
0.0
  0
LINE
 8
base
10
-118.802839219563
20
123.874574018181
30
0.0
11
-115.609311741517
21
116.49476744149
31
0.0
  0
LINE
 8
base
10
-115.609311741517
20
116.49476744149
30
0.0
11
-111.958704071481
21
109.3300464768
31
0.0
  0
LINE
 8
base
10
-111.958704071481
20
109.3300464768
30
0.0
11
-107.865423490124
21
102.408687004508
31
0.0
  0
LINE
 8
base
10
-107.865423490124
20
102.408687004508
30
0.0
11
-103.34562430586
21
95.7580044683829
31
0.0
  0
LINE
 8
base
10
-103.34562430586
20
95.7580044683829
30
0.0
11
-98.4171441011674
21
89.4042460739872
31
0.0
  0
LINE
 8
base
10
-98.4171441011674
20
89.4042460739872
30
0.0
11
-93.0994333358071
21
83.3724872029474
31
0.0
  0
LINE
 8
base
10
-93.0994333358071
20
83.3724872029474
30
0.0
11
-87.4134785847386
21
77.6865324518788
31
0.0
  0
LINE
 8
base
10
-87.4134785847386
20
77.6865324518788
30
0.0
11
-84.7914490258665
21
75.3749024430513
31
0.0
  0
LINE
 8
base
10
-81.3817197136987
20
72.3688216865185
30
0.0
11
-75.027961319303
21
67.4403414818263
31
0.0
  0
LINE
 8
base
10
-75.027961319303
20
67.4403414818263
30
0.0
11
-68.377278783178
21
62.9205422975616
31
0.0
  0
LINE
 8
base
10
-68.377278783178
20
62.9205422975616
30
0.0
11
-61.455919310886
21
58.827261716205
31
0.0
  0
LINE
 8
base
10
-61.455919310886
20
58.827261716205
30
0.0
11
-54.2911983461957
21
55.176654046169
31
0.0
  0
LINE
 8
base
10
-54.2911983461957
20
55.176654046169
30
0.0
11
-46.9113917695052
21
51.9831265681233
31
0.0
  0
LINE
 8
base
10
-46.9113917695052
20
51.9831265681233
30
0.0
11
-39.3456243058597
21
49.2592826760399
31
0.0
  0
LINE
 8
base
10
-39.3456243058597
20
49.2592826760399
30
0.0
11
-31.6237545829678
21
47.0158721373547
31
0.0
  0
LINE
 8
base
10
-31.6237545829678
20
47.0158721373547
30
0.0
11
-23.7762572928392
21
45.2617486685474
31
0.0
  0
LINE
 8
base
10
-23.7762572928392
20
45.2617486685474
30
0.0
11
-15.8341029220973
21
44.0038349935664
31
0.0
  0
LINE
 8
base
10
-15.8341029220973
20
44.0038349935664
30
0.0
11
-7.82863552561854
21
43.2470955230008
31
0.0
  0
LINE
 8
base
10
-7.82863552561854
20
43.2470955230008
30
0.0
11
0.208550974133525
21
42.9945167618195
31
0.0
  0
LINE
 8
base
10
0.208550974133525
20
42.9945167618195
30
0.0
11
8.2457374738857
21
43.2470955230008
31
0.0
  0
LINE
 8
base
10
8.2457374738857
20
43.2470955230008
30
0.0
11
16.2512048703645
21
44.0038349935664
31
0.0
  0
LINE
 8
base
10
16.2512048703645
20
44.0038349935664
30
0.0
11
24.1933592411064
21
45.2617486685474
31
0.0
  0
LINE
 8
base
10
24.1933592411064
20
45.2617486685474
30
0.0
11
32.040856531235
21
47.0158721373548
31
0.0
  0
LINE
 8
base
10
32.040856531235
20
47.0158721373548
30
0.0
11
39.7627262541268
21
49.2592826760399
31
0.0
  0
LINE
 8
base
10
39.7627262541268
20
49.2592826760399
30
0.0
11
47.3284937177724
21
51.9831265681234
31
0.0
  0
LINE
 8
base
10
47.3284937177724
20
51.9831265681234
30
0.0
11
54.7083002944628
21
55.176654046169
31
0.0
  0
LINE
 8
base
10
54.7083002944628
20
55.176654046169
30
0.0
11
61.8730212591531
21
58.827261716205
31
0.0
  0
LINE
 8
base
10
61.8730212591531
20
58.827261716205
30
0.0
11
68.7943807314451
21
62.9205422975616
31
0.0
  0
LINE
 8
base
10
68.7943807314451
20
62.9205422975616
30
0.0
11
75.4450632675702
21
67.4403414818263
31
0.0
  0
LINE
 8
base
10
75.4450632675702
20
67.4403414818263
30
0.0
11
81.7988216619658
21
72.3688216865185
31
0.0
  0
LINE
 8
base
10
81.7988216619658
20
72.3688216865185
30
0.0
11
87.8305805330057
21
77.6865324518788
31
0.0
  0
LINE
 8
base
10
87.8305805330057
20
77.6865324518788
30
0.0
11
93.5165352840743
21
83.3724872029474
31
0.0
  0
LINE
 8
base
10
93.5165352840743
20
83.3724872029474
30
0.0
11
98.8342460494346
21
89.4042460739873
31
0.0
  0
LINE
 8
base
10
98.8342460494346
20
89.4042460739873
30
0.0
11
103.762726254127
21
95.758004468383
31
0.0
  0
LINE
 8
base
10
103.762726254127
20
95.758004468383
30
0.0
11
108.282525438391
21
102.408687004508
31
0.0
  0
LINE
 8
base
10
108.282525438391
20
102.408687004508
30
0.0
11
112.375806019748
21
109.3300464768
31
0.0
  0
LINE
 8
base
10
112.375806019748
20
109.3300464768
30
0.0
11
116.026413689784
21
116.49476744149
31
0.0
  0
LINE
 8
base
10
116.026413689784
20
116.49476744149
30
0.0
11
119.21994116783
21
123.874574018181
31
0.0
  0
LINE
 8
base
10
119.21994116783
20
123.874574018181
30
0.0
11
121.943785059913
21
131.440341481826
31
0.0
  0
LINE
 8
base
10
121.943785059913
20
131.440341481826
30
0.0
11
124.187195598598
21
139.162211204718
31
0.0
  0
LINE
 8
base
10
124.187195598598
20
139.162211204718
30
0.0
11
125.941319067406
21
147.009708494847
31
0.0
  0
LINE
 8
base
10
125.941319067406
20
147.009708494847
30
0.0
11
127.199232742387
21
154.951862865589
31
0.0
  0
LINE
 8
base
10
127.199232742387
20
154.951862865589
30
0.0
11
127.955972212952
21
162.957330262067
31
0.0
  0
LINE
 8
base
10
127.955972212952
20
162.957330262067
30
0.0
11
128.208550974134
21
170.99451676182
31
0.0
  0
LINE
 8
base
10
127.199232742387
20
187.03717065805
30
0.0
11
125.941319067406
21
194.979325028792
31
0.0
  0
LINE
 8
base
10
125.941319067406
20
194.979325028792
30
0.0
11
124.187195598598
21
202.826822318921
31
0.0
  0
LINE
 8
base
10
127.955972212952
20
179.031703261572
30
0.0
11
127.199232742387
21
187.03717065805
31
0.0
  0
LINE
 8
base
10
124.187195598598
20
202.826822318921
30
0.0
11
121.943785059913
21
210.548692041813
31
0.0
  0
LINE
 8
base
10
108.282525438391
20
239.580346519131
30
0.0
11
103.762726254127
21
246.231029055256
31
0.0
  0
LINE
 8
base
10
103.762726254127
20
246.231029055256
30
0.0
11
98.8342460494345
21
252.584787449652
31
0.0
  0
LINE
 8
base
10
98.8342460494345
20
252.584787449652
30
0.0
11
93.5165352840742
21
258.616546320692
31
0.0
  0
LINE
 8
base
10
93.5165352840742
20
258.616546320692
30
0.0
11
87.8305805330057
21
264.30250107176
31
0.0
  0
LINE
 8
base
10
87.8305805330057
20
264.30250107176
30
0.0
11
81.7988216619658
21
269.620211837121
31
0.0
  0
LINE
 8
base
10
81.7988216619658
20
269.620211837121
30
0.0
11
75.4450632675701
21
274.548692041813
31
0.0
  0
LINE
 8
base
10
75.4450632675701
20
274.548692041813
30
0.0
11
68.7943807314451
21
279.068491226077
31
0.0
  0
LINE
 8
base
10
68.7943807314451
20
279.068491226077
30
0.0
11
61.8730212591531
21
283.161771807434
31
0.0
  0
LINE
 8
base
10
61.8730212591531
20
283.161771807434
30
0.0
11
54.7083002944628
21
286.81237947747
31
0.0
  0
LINE
 8
base
10
54.7083002944628
20
286.81237947747
30
0.0
11
47.3284937177723
21
290.005906955516
31
0.0
  0
LINE
 8
base
10
121.943785059913
20
210.548692041813
30
0.0
11
119.21994116783
21
218.114459505458
31
0.0
  0
LINE
 8
base
10
119.21994116783
20
218.114459505458
30
0.0
11
116.026413689784
21
225.494266082149
31
0.0
  0
LINE
 8
base
10
112.375806019748
20
232.658987046839
30
0.0
11
108.282525438391
21
239.580346519131
31
0.0
  0
LINE
 8
base
10
116.026413689784
20
225.494266082149
30
0.0
11
112.375806019748
21
232.658987046839
31
0.0
  0
LINE
 8
base
10
-84.7914490258665
20
75.3749024430513
30
0.0
11
-81.3817197136987
21
72.3688216865185
31
0.0
  0
LINE
 8
base
10
413.606934310128
20
236.20921646194
30
0.0
11
418.606934310127
21
236.20921646194
31
0.0
  0
LINE
 8
base
10
456.856934310127
20
170.99451676182
30
0.0
11
456.908045570694
21
170.606288194166
31
0.0
  0
LINE
 8
base
10
458.745162877782
20
169.545628022387
30
0.0
11
459.106934310127
21
169.695478656143
31
0.0
  0
LINE
 8
base
10
458.356934310128
20
169.49451676182
30
0.0
11
458.551048593954
21
169.520072392102
31
0.0
  0
LINE
 8
base
10
408.606934310128
20
236.20921646194
30
0.0
11
408.606934310128
21
238.20921646194
31
0.0
  0
LINE
 8
base
10
457.968705742473
20
169.545628022386
30
0.0
11
458.356934310128
21
169.49451676182
31
0.0
  0
LINE
 8
base
10
457.606934310127
20
169.695478656143
30
0.0
11
457.968705742473
21
169.545628022386
31
0.0
  0
LINE
 8
base
10
456.908045570694
20
170.606288194166
30
0.0
11
457.057896204452
21
170.24451676182
31
0.0
  0
LINE
 8
base
10
413.606934310128
20
238.20921646194
30
0.0
11
413.606934310128
21
236.20921646194
31
0.0
  0
LINE
 8
base
10
457.296274138347
20
169.93385659004
30
0.0
11
457.606934310127
21
169.695478656143
31
0.0
  0
LINE
 8
base
10
457.057896204452
20
170.24451676182
30
0.0
11
457.296274138347
21
169.93385659004
31
0.0
  0
LINE
 8
base
10
438.606934310127
20
238.20921646194
30
0.0
11
443.606934310128
21
238.20921646194
31
0.0
  0
LINE
 8
base
10
453.606934310127
20
236.20921646194
30
0.0
11
458.606934310128
21
236.20921646194
31
0.0
  0
LINE
 8
base
10
438.606934310127
20
236.20921646194
30
0.0
11
438.606934310127
21
238.20921646194
31
0.0
  0
LINE
 8
base
10
433.606934310127
20
238.20921646194
30
0.0
11
433.606934310127
21
236.20921646194
31
0.0
  0
LINE
 8
base
10
448.606934310128
20
236.20921646194
30
0.0
11
448.606934310128
21
238.20921646194
31
0.0
  0
LINE
 8
base
10
443.606934310128
20
236.20921646194
30
0.0
11
448.606934310128
21
236.20921646194
31
0.0
  0
LINE
 8
base
10
473.606934310127
20
236.20921646194
30
0.0
11
478.606934310128
21
236.20921646194
31
0.0
  0
LINE
 8
base
10
453.606934310127
20
238.20921646194
30
0.0
11
453.606934310127
21
236.20921646194
31
0.0
  0
LINE
 8
base
10
468.606934310127
20
238.20921646194
30
0.0
11
473.606934310127
21
238.20921646194
31
0.0
  0
LINE
 8
base
10
428.606934310128
20
238.20921646194
30
0.0
11
433.606934310127
21
238.20921646194
31
0.0
  0
LINE
 8
base
10
433.606934310127
20
236.20921646194
30
0.0
11
438.606934310127
21
236.20921646194
31
0.0
  0
LINE
 8
base
10
423.606934310127
20
236.20921646194
30
0.0
11
428.606934310128
21
236.20921646194
31
0.0
  0
LINE
 8
base
10
423.606934310127
20
238.20921646194
30
0.0
11
423.606934310127
21
236.20921646194
31
0.0
  0
LINE
 8
base
10
418.606934310127
20
238.20921646194
30
0.0
11
423.606934310127
21
238.20921646194
31
0.0
  0
LINE
 8
base
10
478.606934310128
20
236.20921646194
30
0.0
11
478.606934310128
21
238.20921646194
31
0.0
  0
LINE
 8
base
10
473.606934310127
20
238.20921646194
30
0.0
11
473.606934310127
21
236.20921646194
31
0.0
  0
LINE
 8
base
10
468.606934310127
20
236.20921646194
30
0.0
11
468.606934310127
21
238.20921646194
31
0.0
  0
LINE
 8
base
10
463.606934310128
20
236.20921646194
30
0.0
11
468.606934310127
21
236.20921646194
31
0.0
  0
LINE
 8
base
10
458.606934310128
20
238.20921646194
30
0.0
11
463.606934310128
21
238.20921646194
31
0.0
  0
LINE
 8
base
10
463.606934310128
20
238.20921646194
30
0.0
11
463.606934310128
21
236.20921646194
31
0.0
  0
LINE
 8
base
10
482.361237366779
20
170.99451676182
30
0.0
11
482.357368160692
21
170.958442346101
31
0.0
  0
LINE
 8
base
10
458.606934310128
20
236.20921646194
30
0.0
11
458.606934310128
21
238.20921646194
31
0.0
  0
LINE
 8
base
10
488.606934310127
20
238.20921646194
30
0.0
11
493.606934310128
21
238.20921646194
31
0.0
  0
LINE
 8
base
10
488.606934310127
20
236.20921646194
30
0.0
11
488.606934310127
21
238.20921646194
31
0.0
  0
LINE
 8
base
10
443.606934310128
20
238.20921646194
30
0.0
11
443.606934310128
21
236.20921646194
31
0.0
  0
LINE
 8
base
10
493.606934310128
20
236.20921646194
30
0.0
11
498.606934310128
21
236.20921646194
31
0.0
  0
LINE
 8
base
10
483.662763865662
20
172.469387713934
30
0.0
11
483.433972821452
21
172.433649687958
31
0.0
  0
LINE
 8
base
10
483.606934310127
20
238.20921646194
30
0.0
11
483.606934310127
21
236.20921646194
31
0.0
  0
LINE
 8
base
10
483.662763865662
20
169.519645809706
30
0.0
11
483.893008725847
21
169.494950612385
31
0.0
  0
LINE
 8
base
10
478.606934310128
20
238.20921646194
30
0.0
11
483.606934310127
21
238.20921646194
31
0.0
  0
LINE
 8
base
10
428.606934310128
20
236.20921646194
30
0.0
11
428.606934310128
21
238.20921646194
31
0.0
  0
LINE
 8
base
10
483.606934310127
20
236.20921646194
30
0.0
11
488.606934310127
21
236.20921646194
31
0.0
  0
LINE
 8
base
10
448.606934310128
20
238.20921646194
30
0.0
11
453.606934310127
21
238.20921646194
31
0.0
  0
LINE
 8
base
10
418.606934310127
20
236.20921646194
30
0.0
11
418.606934310127
21
238.20921646194
31
0.0
  0
LINE
 8
base
10
400.914708448789
20
236.20921646194
30
0.0
11
408.606934310128
21
236.20921646194
31
0.0
  0
LINE
 8
base
10
456.908045570694
20
171.382745329474
30
0.0
11
456.856934310127
21
170.99451676182
31
0.0
  0
LINE
 8
base
10
457.057896204451
20
171.74451676182
30
0.0
11
456.908045570694
21
171.382745329474
31
0.0
  0
LINE
 8
base
10
457.296274138347
20
172.055176933599
30
0.0
11
457.057896204451
21
171.74451676182
31
0.0
  0
LINE
 8
base
10
457.606934310127
20
172.293554867496
30
0.0
11
457.296274138347
21
172.055176933599
31
0.0
  0
LINE
 8
base
10
457.968705742474
20
172.443405501253
30
0.0
11
457.606934310127
21
172.293554867496
31
0.0
  0
LINE
 8
base
10
458.356934310127
20
172.494516761819
30
0.0
11
457.968705742474
21
172.443405501253
31
0.0
  0
LINE
 8
base
10
458.745162877781
20
172.443405501253
30
0.0
11
458.551048593953
21
172.468961131536
31
0.0
  0
LINE
 8
base
10
459.106934310128
20
172.293554867496
30
0.0
11
458.745162877781
21
172.443405501253
31
0.0
  0
LINE
 8
base
10
459.417594481907
20
172.055176933599
30
0.0
11
459.106934310128
21
172.293554867496
31
0.0
  0
LINE
 8
base
10
459.655972415804
20
171.74451676182
30
0.0
11
459.417594481907
21
172.055176933599
31
0.0
  0
LINE
 8
base
10
459.805823049561
20
171.382745329473
30
0.0
11
459.655972415804
21
171.74451676182
31
0.0
  0
LINE
 8
base
10
459.856934310126
20
170.99451676182
30
0.0
11
459.805823049561
21
171.382745329473
31
0.0
  0
LINE
 8
base
10
459.80582304956
20
170.606288194166
30
0.0
11
459.856934310126
21
170.99451676182
31
0.0
  0
LINE
 8
base
10
459.655972415804
20
170.244516761819
30
0.0
11
459.80582304956
21
170.606288194166
31
0.0
  0
LINE
 8
base
10
459.417594481907
20
169.93385659004
30
0.0
11
459.655972415804
21
170.244516761819
31
0.0
  0
LINE
 8
base
10
459.106934310127
20
169.695478656143
30
0.0
11
459.417594481907
21
169.93385659004
31
0.0
  0
LINE
 8
base
10
408.606934310128
20
238.20921646194
30
0.0
11
413.606934310128
21
238.20921646194
31
0.0
  0
LINE
 8
base
10
483.893008725847
20
169.494950612385
30
0.0
11
484.279895798802
21
169.55538383568
31
0.0
  0
LINE
 8
base
10
485.296067236265
20
171.417478250495
30
0.0
11
485.137559482333
21
171.775541196976
31
0.0
  0
LINE
 8
base
10
485.137559482333
20
171.775541196976
30
0.0
11
484.891779239248
21
172.080378618905
31
0.0
  0
LINE
 8
base
10
485.356500459563
20
171.030591177538
30
0.0
11
485.296067236265
21
171.417478250495
31
0.0
  0
LINE
 8
base
10
485.314740727924
20
170.641245692765
30
0.0
11
485.356500459563
21
171.030591177538
31
0.0
  0
LINE
 8
base
10
485.173633898052
20
170.275975047541
30
0.0
11
485.314740727924
21
170.641245692765
31
0.0
  0
LINE
 8
base
10
484.942796167211
20
169.959671832698
30
0.0
11
485.173633898052
21
170.275975047541
31
0.0
  0
LINE
 8
base
10
484.637958745283
20
169.713891589614
30
0.0
11
484.942796167211
21
169.959671832698
31
0.0
  0
LINE
 8
base
10
484.279895798802
20
169.55538383568
30
0.0
11
484.637958745283
21
169.713891589614
31
0.0
  0
LINE
 8
base
10
483.503663241072
20
169.536710344023
30
0.0
11
483.662763865662
21
169.519645809706
31
0.0
  0
LINE
 8
base
10
483.138392595848
20
169.677817173895
30
0.0
11
483.503663241072
21
169.536710344023
31
0.0
  0
LINE
 8
base
10
482.822089381005
20
169.908654904734
30
0.0
11
483.138392595848
21
169.677817173895
31
0.0
  0
LINE
 8
base
10
464.852868403309
20
171.753897847429
30
0.0
11
464.85286840331
21
170.99451676182
31
0.0
  0
LINE
 8
base
10
466.92926156321
20
166.278899048342
30
0.0
11
468.179178326251
21
165.416143800205
31
0.0
  0
LINE
 8
base
10
468.179178326251
20
165.416143800205
30
0.0
11
469.599245625116
21
164.877583312035
31
0.0
  0
LINE
 8
base
10
465.216331981209
20
173.228527550187
30
0.0
11
464.852868403309
21
171.753897847429
31
0.0
  0
LINE
 8
base
10
468.179178326251
20
176.572889723435
30
0.0
11
466.929261563211
21
175.710134475298
31
0.0
  0
LINE
 8
base
10
465.922135954997
20
174.573324666226
30
0.0
11
465.216331981209
21
173.228527550187
31
0.0
  0
LINE
 8
base
10
466.929261563211
20
175.710134475298
30
0.0
11
465.922135954997
21
174.573324666226
31
0.0
  0
LINE
 8
base
10
465.922135954997
20
167.415708857414
30
0.0
11
466.92926156321
21
166.278899048342
31
0.0
  0
LINE
 8
base
10
465.216331981209
20
168.760505973451
30
0.0
11
465.922135954997
21
167.415708857414
31
0.0
  0
LINE
 8
base
10
464.852868403309
20
170.235135676211
30
0.0
11
465.216331981209
21
168.760505973451
31
0.0
  0
LINE
 8
base
10
469.599245625116
20
164.877583312035
30
0.0
11
471.106934310127
21
164.69451676182
31
0.0
  0
LINE
 8
base
10
474.034690294002
20
176.572889723434
30
0.0
11
472.614622995139
21
177.111450211604
31
0.0
  0
LINE
 8
base
10
472.614622995139
20
177.111450211604
30
0.0
11
471.106934310128
21
177.294516761819
31
0.0
  0
LINE
 8
base
10
475.284607057044
20
175.710134475298
30
0.0
11
474.034690294002
21
176.572889723434
31
0.0
  0
LINE
 8
base
10
476.291732665257
20
174.573324666226
30
0.0
11
475.284607057044
21
175.710134475298
31
0.0
  0
LINE
 8
base
10
476.997536639046
20
173.228527550188
30
0.0
11
476.291732665257
21
174.573324666226
31
0.0
  0
LINE
 8
base
10
477.361000216945
20
171.753897847428
30
0.0
11
476.997536639046
21
173.228527550188
31
0.0
  0
LINE
 8
base
10
477.361000216945
20
170.235135676211
30
0.0
11
477.361000216944
21
170.99451676182
31
0.0
  0
LINE
 8
base
10
476.997536639045
20
168.760505973451
30
0.0
11
477.361000216945
21
170.235135676211
31
0.0
  0
LINE
 8
base
10
475.284607057044
20
166.278899048342
30
0.0
11
476.291732665257
21
167.415708857413
31
0.0
  0
LINE
 8
base
10
476.291732665257
20
167.415708857413
30
0.0
11
476.997536639045
21
168.760505973451
31
0.0
  0
LINE
 8
base
10
474.034690294004
20
165.416143800204
30
0.0
11
475.284607057044
21
166.278899048342
31
0.0
  0
LINE
 8
base
10
472.614622995139
20
164.877583312035
30
0.0
11
474.034690294004
21
165.416143800204
31
0.0
  0
LINE
 8
base
10
469.599245625116
20
177.111450211604
30
0.0
11
468.179178326251
21
176.572889723435
31
0.0
  0
LINE
 8
base
10
380.606934310128
20
241.20921646194
30
0.0
11
378.606934310128
21
241.20921646194
31
0.0
  0
LINE
 8
base
10
453.606934310127
20
10.7798170616991
30
0.0
11
453.606934310128
21
8.7798170616988
31
0.0
  0
LINE
 8
base
10
453.606934310128
20
8.7798170616988
30
0.0
11
458.606934310127
21
8.77981706169892
31
0.0
  0
LINE
 8
base
10
468.606934310127
20
8.7798170616983
30
0.0
11
468.606934310126
21
10.7798170616993
31
0.0
  0
LINE
 8
base
10
378.606934310128
20
251.20921646194
30
0.0
11
378.606934310128
21
246.20921646194
31
0.0
  0
LINE
 8
base
10
463.606934310127
20
10.779817061699
30
0.0
11
463.606934310127
21
8.77981706169863
31
0.0
  0
LINE
 8
base
10
613.606934310128
20
244.606676083496
30
0.0
11
615.338985117696
21
245.606676083497
31
0.0
  0
LINE
 8
base
10
383.606934310127
20
8.77981706169911
30
0.0
11
388.606934310127
21
8.77981706169877
31
0.0
  0
LINE
 8
base
10
378.606934310128
20
301.20921646194
30
0.0
11
378.606934310128
21
296.20921646194
31
0.0
  0
LINE
 8
base
10
380.606934310128
20
246.20921646194
30
0.0
11
380.606934310128
21
241.20921646194
31
0.0
  0
LINE
 8
base
10
463.606934310127
20
8.77981706169863
30
0.0
11
468.606934310127
21
8.7798170616983
31
0.0
  0
LINE
 8
base
10
398.606934310127
20
8.7798170616986
30
0.0
11
398.606934310126
21
10.7798170616983
31
0.0
  0
LINE
 8
base
10
378.606934310128
20
256.20921646194
30
0.0
11
380.606934310128
21
256.20921646194
31
0.0
  0
LINE
 8
base
10
383.606934310127
20
10.7798170616989
30
0.0
11
383.606934310127
21
8.77981706169911
31
0.0
  0
LINE
 8
base
10
478.606934310127
20
8.779817061699
30
0.0
11
478.606934310127
21
10.7798170616986
31
0.0
  0
LINE
 8
base
10
380.606934310128
20
251.20921646194
30
0.0
11
378.606934310128
21
251.20921646194
31
0.0
  0
LINE
 8
base
10
393.606934310127
20
10.7798170616988
30
0.0
11
393.606934310127
21
8.77981706169881
31
0.0
  0
LINE
 8
base
10
473.606934310127
20
10.7798170616987
30
0.0
11
473.606934310126
21
8.77981706169873
31
0.0
  0
LINE
 8
base
10
473.606934310126
20
8.77981706169873
30
0.0
11
478.606934310127
21
8.779817061699
31
0.0
  0
LINE
 8
base
10
488.606934310127
20
8.77981706169909
30
0.0
11
488.606934310127
21
10.7798170616994
31
0.0
  0
LINE
 8
base
10
378.606934310128
20
261.20921646194
30
0.0
11
378.606934310128
21
256.20921646194
31
0.0
  0
LINE
 8
base
10
380.606934310128
20
256.20921646194
30
0.0
11
380.606934310128
21
251.20921646194
31
0.0
  0
LINE
 8
base
10
378.606934310128
20
266.20921646194
30
0.0
11
380.606934310128
21
266.20921646194
31
0.0
  0
LINE
 8
base
10
380.606934310128
20
261.20921646194
30
0.0
11
378.606934310128
21
261.20921646194
31
0.0
  0
LINE
 8
base
10
503.606934310127
20
10.779817061699
30
0.0
11
503.606934310127
21
8.77981706169869
31
0.0
  0
LINE
 8
base
10
503.606934310127
20
8.77981706169869
30
0.0
11
508.606934310127
21
8.77981706169918
31
0.0
  0
LINE
 8
base
10
483.606934310127
20
8.77981706169911
30
0.0
11
488.606934310127
21
8.77981706169909
31
0.0
  0
LINE
 8
base
10
378.606934310128
20
271.20921646194
30
0.0
11
378.606934310128
21
266.20921646194
31
0.0
  0
LINE
 8
base
10
483.606934310126
20
10.7798170616982
30
0.0
11
483.606934310127
21
8.77981706169911
31
0.0
  0
LINE
 8
base
10
543.606934310127
20
8.77981706169876
30
0.0
11
548.606934310127
21
8.77981706169876
31
0.0
  0
LINE
 8
base
10
508.606934310127
20
8.77981706169918
30
0.0
11
508.606934310127
21
10.7798170616994
31
0.0
  0
LINE
 8
base
10
388.606934310127
20
8.77981706169877
30
0.0
11
388.606934310127
21
10.7798170616992
31
0.0
  0
LINE
 8
base
10
378.606934310127
20
236.20921646194
30
0.0
11
384.216161300326
21
236.20921646194
31
0.0
  0
LINE
 8
base
10
518.606934310126
20
8.77981706169849
30
0.0
11
518.606934310127
21
10.7798170616983
31
0.0
  0
LINE
 8
base
10
380.606934310128
20
266.20921646194
30
0.0
11
380.606934310128
21
261.20921646194
31
0.0
  0
LINE
 8
base
10
498.606934310126
20
8.77981706169898
30
0.0
11
498.606934310128
21
10.7798170616991
31
0.0
  0
LINE
 8
base
10
378.606934310128
20
276.20921646194
30
0.0
11
380.606934310128
21
276.20921646194
31
0.0
  0
LINE
 8
base
10
493.606934310127
20
10.7798170616983
30
0.0
11
493.606934310127
21
8.77981706169871
31
0.0
  0
LINE
 8
base
10
493.606934310127
20
8.77981706169871
30
0.0
11
498.606934310126
21
8.77981706169898
31
0.0
  0
LINE
 8
base
10
380.606934310128
20
271.20921646194
30
0.0
11
378.606934310128
21
271.20921646194
31
0.0
  0
LINE
 8
base
10
378.606934310128
20
281.20921646194
30
0.0
11
378.606934310128
21
276.20921646194
31
0.0
  0
LINE
 8
base
10
513.606934310127
20
10.7798170616988
30
0.0
11
513.606934310127
21
8.77981706169916
31
0.0
  0
LINE
 8
base
10
513.606934310127
20
8.77981706169916
30
0.0
11
518.606934310126
21
8.77981706169849
31
0.0
  0
LINE
 8
base
10
538.606934310127
20
8.77981706169891
30
0.0
11
538.606934310127
21
10.779817061699
31
0.0
  0
LINE
 8
base
10
380.606934310128
20
276.20921646194
30
0.0
11
380.606934310128
21
271.20921646194
31
0.0
  0
LINE
 8
base
10
533.606934310126
20
10.7798170616989
30
0.0
11
533.606934310127
21
8.77981706169887
31
0.0
  0
LINE
 8
base
10
393.606934310127
20
8.77981706169881
30
0.0
11
398.606934310127
21
8.7798170616986
31
0.0
  0
LINE
 8
base
10
408.606934310127
20
8.77981706169882
30
0.0
11
408.606934310128
21
10.779817061699
31
0.0
  0
LINE
 8
base
10
380.606934310128
20
281.20921646194
30
0.0
11
378.606934310128
21
281.20921646194
31
0.0
  0
LINE
 8
base
10
403.606934310126
20
10.7798170616992
30
0.0
11
403.606934310127
21
8.77981706169887
31
0.0
  0
LINE
 8
base
10
403.606934310127
20
8.77981706169887
30
0.0
11
408.606934310127
21
8.77981706169882
31
0.0
  0
LINE
 8
base
10
418.606934310127
20
8.7798170616984
30
0.0
11
418.606934310127
21
10.7798170616988
31
0.0
  0
LINE
 8
base
10
378.606934310128
20
321.20921646194
30
0.0
11
378.606934310128
21
316.20921646194
31
0.0
  0
LINE
 8
base
10
413.606934310127
20
10.7798170616988
30
0.0
11
413.606934310127
21
8.77981706169834
31
0.0
  0
LINE
 8
base
10
413.606934310127
20
8.77981706169834
30
0.0
11
418.606934310127
21
8.7798170616984
31
0.0
  0
LINE
 8
base
10
428.606934310127
20
8.77981706169834
30
0.0
11
428.606934310127
21
10.7798170616986
31
0.0
  0
LINE
 8
base
10
378.606934310128
20
286.20921646194
30
0.0
11
380.606934310128
21
286.20921646194
31
0.0
  0
LINE
 8
base
10
423.606934310127
20
10.7798170616989
30
0.0
11
423.606934310127
21
8.7798170616987
31
0.0
  0
LINE
 8
base
10
423.606934310127
20
8.7798170616987
30
0.0
11
428.606934310127
21
8.77981706169834
31
0.0
  0
LINE
 8
base
10
438.606934310128
20
8.77981706169873
30
0.0
11
438.606934310127
21
10.7798170616992
31
0.0
  0
LINE
 8
base
10
433.606934310127
20
10.7798170616989
30
0.0
11
433.606934310127
21
8.77981706169859
31
0.0
  0
LINE
 8
base
10
433.606934310127
20
8.77981706169859
30
0.0
11
438.606934310128
21
8.77981706169873
31
0.0
  0
LINE
 8
base
10
448.606934310127
20
8.77981706169861
30
0.0
11
448.606934310127
21
10.7798170616988
31
0.0
  0
LINE
 8
base
10
378.606934310128
20
316.20921646194
30
0.0
11
380.606934310128
21
316.20921646194
31
0.0
  0
LINE
 8
base
10
443.606934310127
20
10.7798170616985
30
0.0
11
443.606934310127
21
8.7798170616984
31
0.0
  0
LINE
 8
base
10
443.606934310127
20
8.7798170616984
30
0.0
11
448.606934310127
21
8.77981706169861
31
0.0
  0
LINE
 8
base
10
458.606934310127
20
8.77981706169892
30
0.0
11
458.606934310127
21
10.779817061699
31
0.0
  0
LINE
 8
base
10
533.606934310127
20
8.77981706169887
30
0.0
11
538.606934310127
21
8.77981706169891
31
0.0
  0
LINE
 8
base
10
543.606934310127
20
10.7798170616988
30
0.0
11
543.606934310127
21
8.77981706169876
31
0.0
  0
LINE
 8
base
10
548.606934310127
20
8.77981706169876
30
0.0
11
548.606934310127
21
10.7798170616987
31
0.0
  0
LINE
 8
base
10
380.606934310128
20
311.20921646194
30
0.0
11
378.606934310128
21
311.20921646194
31
0.0
  0
LINE
 8
base
10
553.606934310126
20
10.7798170616987
30
0.0
11
553.606934310126
21
8.77981706169823
31
0.0
  0
LINE
 8
base
10
553.606934310126
20
8.77981706169823
30
0.0
11
558.606934310127
21
8.77981706169904
31
0.0
  0
LINE
 8
base
10
380.606934310128
20
301.20921646194
30
0.0
11
378.606934310128
21
301.20921646194
31
0.0
  0
LINE
 8
base
10
558.606934310127
20
8.77981706169904
30
0.0
11
558.606934310127
21
10.7798170616992
31
0.0
  0
LINE
 8
base
10
523.606934310127
20
8.77981706169804
30
0.0
11
528.606934310127
21
8.77981706169928
31
0.0
  0
LINE
 8
base
10
378.606934310128
20
291.20921646194
30
0.0
11
378.606934310128
21
286.20921646194
31
0.0
  0
LINE
 8
base
10
378.606934310128
20
296.20921646194
30
0.0
11
380.606934310128
21
296.20921646194
31
0.0
  0
LINE
 8
base
10
615.338985117696
20
245.606676083497
30
0.0
11
612.838985117696
21
249.936803102418
31
0.0
  0
LINE
 8
base
10
380.606934310128
20
291.20921646194
30
0.0
11
378.606934310128
21
291.20921646194
31
0.0
  0
LINE
 8
base
10
528.606934310127
20
8.77981706169928
30
0.0
11
528.606934310127
21
10.7798170616992
31
0.0
  0
LINE
 8
base
10
523.606934310127
20
10.7798170616985
30
0.0
11
523.606934310127
21
8.77981706169804
31
0.0
  0
LINE
 8
base
10
561.606934310127
20
251.209216461941
30
0.0
11
563.606934310127
21
251.209216461941
31
0.0
  0
LINE
 8
base
10
380.606934310128
20
316.20921646194
30
0.0
11
380.606934310128
21
311.20921646194
31
0.0
  0
LINE
 8
base
10
508.606934310127
20
10.7798170616994
30
0.0
11
503.606934310127
21
10.779817061699
31
0.0
  0
LINE
 8
base
10
561.606934310127
20
246.209216461941
30
0.0
11
561.606934310127
21
241.209216461941
31
0.0
  0
LINE
 8
base
10
612.838985117696
20
249.936803102418
30
0.0
11
611.106934310127
21
248.936803102418
31
0.0
  0
LINE
 8
base
10
563.606934310127
20
301.209216461941
30
0.0
11
563.606934310127
21
296.209216461941
31
0.0
  0
LINE
 8
base
10
378.606934310128
20
311.20921646194
30
0.0
11
378.606934310128
21
306.20921646194
31
0.0
  0
LINE
 8
base
10
548.606934310127
20
10.7798170616987
30
0.0
11
543.606934310127
21
10.7798170616988
31
0.0
  0
LINE
 8
base
10
378.606934310128
20
246.20921646194
30
0.0
11
380.606934310128
21
246.20921646194
31
0.0
  0
LINE
 8
base
10
378.606934310128
20
241.20921646194
30
0.0
11
378.606934310127
21
236.20921646194
31
0.0
  0
LINE
 8
base
10
558.606934310127
20
10.7798170616992
30
0.0
11
553.606934310126
21
10.7798170616987
31
0.0
  0
LINE
 8
base
10
563.606934310127
20
251.209216461941
30
0.0
11
563.606934310127
21
246.209216461941
31
0.0
  0
LINE
 8
base
10
378.606934310128
20
306.20921646194
30
0.0
11
380.606934310128
21
306.20921646194
31
0.0
  0
LINE
 8
base
10
518.606934310127
20
10.7798170616983
30
0.0
11
513.606934310127
21
10.7798170616988
31
0.0
  0
LINE
 8
base
10
528.606934310127
20
10.7798170616992
30
0.0
11
523.606934310127
21
10.7798170616985
31
0.0
  0
LINE
 8
base
10
561.606934310127
20
241.209216461941
30
0.0
11
563.606934310127
21
241.209216461941
31
0.0
  0
LINE
 8
base
10
380.606934310128
20
286.20921646194
30
0.0
11
380.606934310128
21
281.20921646194
31
0.0
  0
LINE
 8
base
10
380.606934310128
20
296.20921646194
30
0.0
11
380.606934310128
21
291.20921646194
31
0.0
  0
LINE
 8
base
10
-87.2914490258665
20
8.77981706169843
30
0.0
11
-82.2914490258665
21
8.77981706169843
31
0.0
  0
LINE
 8
base
10
-92.2914490258665
20
10.7798170616984
30
0.0
11
-87.2914490258665
21
10.7798170616984
31
0.0
  0
LINE
 8
base
10
620.338985117695
20
236.946422045651
30
0.0
11
617.838985117696
21
241.276549064574
31
0.0
  0
LINE
 8
base
10
380.606934310128
20
306.20921646194
30
0.0
11
380.606934310128
21
301.20921646194
31
0.0
  0
LINE
 8
base
10
563.606934310127
20
256.209216461941
30
0.0
11
561.606934310127
21
256.209216461941
31
0.0
  0
LINE
 8
base
10
655.338985117696
20
176.324643780741
30
0.0
11
652.838985117696
21
180.654770799663
31
0.0
  0
LINE
 8
base
10
647.838985117695
20
189.315024837508
30
0.0
11
646.106934310126
21
188.315024837508
31
0.0
  0
LINE
 8
base
10
-57.2914490258664
20
331.209216461941
30
0.0
11
-52.2914490258664
21
331.209216461941
31
0.0
  0
LINE
 8
base
10
563.606934310127
20
261.209216461941
30
0.0
11
563.606934310127
21
256.209216461941
31
0.0
  0
LINE
 8
base
10
-52.2914490258664
20
333.209216461941
30
0.0
11
-57.2914490258664
21
333.209216461941
31
0.0
  0
LINE
 8
base
10
538.606934310127
20
10.779817061699
30
0.0
11
533.606934310126
21
10.7798170616989
31
0.0
  0
LINE
 8
base
10
561.606934310127
20
256.209216461941
30
0.0
11
561.606934310127
21
251.209216461941
31
0.0
  0
LINE
 8
base
10
618.606934310127
20
235.946422045653
30
0.0
11
620.338985117695
21
236.946422045651
31
0.0
  0
LINE
 8
base
10
563.606934310127
20
266.209216461941
30
0.0
11
561.606934310127
21
266.209216461941
31
0.0
  0
LINE
 8
base
10
-52.2914490258664
20
331.209216461941
30
0.0
11
-52.2914490258664
21
333.209216461941
31
0.0
  0
LINE
 8
base
10
-57.2914490258664
20
333.209216461941
30
0.0
11
-57.2914490258664
21
331.209216461941
31
0.0
  0
LINE
 8
base
10
-87.2914490258665
20
10.7798170616984
30
0.0
11
-87.2914490258665
21
8.77981706169843
31
0.0
  0
LINE
 8
base
10
-82.2914490258665
20
8.77981706169843
30
0.0
11
-82.2914490258665
21
10.7798170616984
31
0.0
  0
LINE
 8
base
10
-77.2914490258665
20
8.77981706169843
30
0.0
11
-72.2914490258665
21
8.77981706169843
31
0.0
  0
LINE
 8
base
10
379.746047627556
20
7.72292193090217
30
0.0
11
380.193303018173
21
7.23319116974575
31
0.0
  0
LINE
 8
base
10
-77.2914490258665
20
10.7798170616984
30
0.0
11
-77.2914490258665
21
8.77981706169843
31
0.0
  0
LINE
 8
base
10
-72.2914490258665
20
8.77981706169843
30
0.0
11
-72.2914490258665
21
10.7798170616984
31
0.0
  0
LINE
 8
base
10
-82.2914490258665
20
10.7798170616984
30
0.0
11
-77.2914490258665
21
10.7798170616984
31
0.0
  0
LINE
 8
base
10
-67.2914490258665
20
8.77981706169843
30
0.0
11
-62.2914490258665
21
8.77981706169843
31
0.0
  0
LINE
 8
base
10
-72.2914490258665
20
10.7798170616984
30
0.0
11
-67.2914490258665
21
10.7798170616984
31
0.0
  0
LINE
 8
base
10
-67.2914490258665
20
10.7798170616984
30
0.0
11
-67.2914490258665
21
8.77981706169843
31
0.0
  0
LINE
 8
base
10
-62.2914490258665
20
8.77981706169843
30
0.0
11
-62.2914490258665
21
10.7798170616984
31
0.0
  0
LINE
 8
base
10
-57.2914490258665
20
8.77981706169843
30
0.0
11
-52.2914490258665
21
8.77981706169843
31
0.0
  0
LINE
 8
base
10
-62.2914490258665
20
10.7798170616984
30
0.0
11
-57.2914490258665
21
10.7798170616984
31
0.0
  0
LINE
 8
base
10
-57.2914490258665
20
10.7798170616984
30
0.0
11
-57.2914490258665
21
8.77981706169843
31
0.0
  0
LINE
 8
base
10
-52.2914490258665
20
8.77981706169843
30
0.0
11
-52.2914490258665
21
10.7798170616984
31
0.0
  0
LINE
 8
base
10
-47.2914490258665
20
8.77981706169843
30
0.0
11
-42.2914490258665
21
8.77981706169843
31
0.0
  0
LINE
 8
base
10
-52.2914490258665
20
10.7798170616984
30
0.0
11
-47.2914490258665
21
10.7798170616984
31
0.0
  0
LINE
 8
base
10
-47.2914490258665
20
10.7798170616984
30
0.0
11
-47.2914490258665
21
8.77981706169843
31
0.0
  0
LINE
 8
base
10
-42.2914490258665
20
8.77981706169843
30
0.0
11
-42.2914490258665
21
10.7798170616984
31
0.0
  0
LINE
 8
base
10
-37.2914490258665
20
8.77981706169843
30
0.0
11
-32.2914490258665
21
8.77981706169843
31
0.0
  0
LINE
 8
base
10
-42.2914490258665
20
10.7798170616984
30
0.0
11
-37.2914490258665
21
10.7798170616984
31
0.0
  0
LINE
 8
base
10
-37.2914490258665
20
10.7798170616984
30
0.0
11
-37.2914490258665
21
8.77981706169843
31
0.0
  0
LINE
 8
base
10
-32.2914490258665
20
8.77981706169843
30
0.0
11
-32.2914490258665
21
10.7798170616984
31
0.0
  0
LINE
 8
base
10
630.126172196596
20
185.994516761822
30
0.0
11
625.796045177674
21
188.494516761822
31
0.0
  0
LINE
 8
base
10
-27.2914490258665
20
8.77981706169843
30
0.0
11
-22.2914490258665
21
8.77981706169843
31
0.0
  0
LINE
 8
base
10
-32.2914490258665
20
10.7798170616984
30
0.0
11
-27.2914490258665
21
10.7798170616984
31
0.0
  0
LINE
 8
base
10
-27.2914490258665
20
10.7798170616984
30
0.0
11
-27.2914490258665
21
8.77981706169843
31
0.0
  0
LINE
 8
base
10
-22.2914490258665
20
8.77981706169843
30
0.0
11
-22.2914490258665
21
10.7798170616984
31
0.0
  0
LINE
 8
base
10
-17.2914490258665
20
8.77981706169843
30
0.0
11
-12.2914490258665
21
8.77981706169843
31
0.0
  0
LINE
 8
base
10
-22.2914490258665
20
10.7798170616984
30
0.0
11
-17.2914490258665
21
10.7798170616984
31
0.0
  0
LINE
 8
base
10
-17.2914490258665
20
10.7798170616984
30
0.0
11
-17.2914490258665
21
8.77981706169843
31
0.0
  0
LINE
 8
base
10
-12.2914490258665
20
8.77981706169843
30
0.0
11
-12.2914490258665
21
10.7798170616984
31
0.0
  0
LINE
 8
base
10
-7.29144902586648
20
8.77981706169843
30
0.0
11
-2.29144902586648
21
8.77981706169843
31
0.0
  0
LINE
 8
base
10
-12.2914490258665
20
10.7798170616984
30
0.0
11
-7.29144902586648
21
10.7798170616984
31
0.0
  0
LINE
 8
base
10
-7.29144902586648
20
10.7798170616984
30
0.0
11
-7.29144902586648
21
8.77981706169843
31
0.0
  0
LINE
 8
base
10
-2.29144902586648
20
8.77981706169843
30
0.0
11
-2.29144902586648
21
10.7798170616984
31
0.0
  0
LINE
 8
base
10
2.70855097413352
20
8.77981706169843
30
0.0
11
7.70855097413352
21
8.77981706169843
31
0.0
  0
LINE
 8
base
10
-2.29144902586648
20
10.7798170616984
30
0.0
11
2.70855097413352
21
10.7798170616984
31
0.0
  0
LINE
 8
base
10
2.70855097413352
20
10.7798170616984
30
0.0
11
2.70855097413352
21
8.77981706169843
31
0.0
  0
LINE
 8
base
10
7.70855097413352
20
8.77981706169843
30
0.0
11
7.70855097413352
21
10.7798170616984
31
0.0
  0
LINE
 8
base
10
12.7085509741335
20
8.77981706169843
30
0.0
11
17.7085509741335
21
8.77981706169843
31
0.0
  0
LINE
 8
base
10
7.70855097413352
20
10.7798170616984
30
0.0
11
12.7085509741335
21
10.7798170616984
31
0.0
  0
LINE
 8
base
10
12.7085509741335
20
10.7798170616984
30
0.0
11
12.7085509741335
21
8.77981706169843
31
0.0
  0
LINE
 8
base
10
17.7085509741335
20
8.77981706169843
30
0.0
11
17.7085509741335
21
10.7798170616984
31
0.0
  0
LINE
 8
base
10
22.7085509741335
20
8.77981706169843
30
0.0
11
27.7085509741335
21
8.77981706169843
31
0.0
  0
LINE
 8
base
10
17.7085509741335
20
10.7798170616984
30
0.0
11
22.7085509741335
21
10.7798170616984
31
0.0
  0
LINE
 8
base
10
22.7085509741335
20
10.7798170616984
30
0.0
11
22.7085509741335
21
8.77981706169843
31
0.0
  0
LINE
 8
base
10
27.7085509741335
20
8.77981706169843
30
0.0
11
27.7085509741335
21
10.7798170616984
31
0.0
  0
LINE
 8
base
10
32.7085509741335
20
8.77981706169843
30
0.0
11
37.7085509741335
21
8.77981706169843
31
0.0
  0
LINE
 8
base
10
27.7085509741335
20
10.7798170616984
30
0.0
11
32.7085509741335
21
10.7798170616984
31
0.0
  0
LINE
 8
base
10
32.7085509741335
20
10.7798170616984
30
0.0
11
32.7085509741335
21
8.77981706169843
31
0.0
  0
LINE
 8
base
10
37.7085509741335
20
8.77981706169843
30
0.0
11
37.7085509741335
21
10.7798170616984
31
0.0
  0
LINE
 8
base
10
42.7085509741335
20
8.77981706169843
30
0.0
11
47.7085509741335
21
8.77981706169843
31
0.0
  0
LINE
 8
base
10
37.7085509741335
20
10.7798170616984
30
0.0
11
42.7085509741335
21
10.7798170616984
31
0.0
  0
LINE
 8
base
10
42.7085509741335
20
10.7798170616984
30
0.0
11
42.7085509741335
21
8.77981706169843
31
0.0
  0
LINE
 8
base
10
47.7085509741335
20
8.77981706169843
30
0.0
11
47.7085509741335
21
10.7798170616984
31
0.0
  0
LINE
 8
base
10
52.7085509741335
20
8.77981706169843
30
0.0
11
57.7085509741335
21
8.77981706169843
31
0.0
  0
LINE
 8
base
10
47.7085509741335
20
10.7798170616984
30
0.0
11
52.7085509741335
21
10.7798170616984
31
0.0
  0
LINE
 8
base
10
52.7085509741335
20
10.7798170616984
30
0.0
11
52.7085509741335
21
8.77981706169843
31
0.0
  0
LINE
 8
base
10
57.7085509741335
20
8.77981706169843
30
0.0
11
57.7085509741335
21
10.7798170616984
31
0.0
  0
LINE
 8
base
10
62.7085509741335
20
8.77981706169843
30
0.0
11
67.7085509741335
21
8.77981706169843
31
0.0
  0
LINE
 8
base
10
57.7085509741335
20
10.7798170616984
30
0.0
11
62.7085509741335
21
10.7798170616984
31
0.0
  0
LINE
 8
base
10
62.7085509741335
20
10.7798170616984
30
0.0
11
62.7085509741335
21
8.77981706169843
31
0.0
  0
LINE
 8
base
10
67.7085509741335
20
8.77981706169843
30
0.0
11
67.7085509741335
21
10.7798170616984
31
0.0
  0
LINE
 8
base
10
72.7085509741335
20
8.77981706169843
30
0.0
11
77.7085509741336
21
8.77981706169843
31
0.0
  0
LINE
 8
base
10
67.7085509741335
20
10.7798170616984
30
0.0
11
72.7085509741335
21
10.7798170616984
31
0.0
  0
LINE
 8
base
10
72.7085509741335
20
10.7798170616984
30
0.0
11
72.7085509741335
21
8.77981706169843
31
0.0
  0
LINE
 8
base
10
77.7085509741336
20
8.77981706169843
30
0.0
11
77.7085509741336
21
10.7798170616984
31
0.0
  0
LINE
 8
base
10
82.7085509741336
20
8.77981706169843
30
0.0
11
87.7085509741336
21
8.77981706169843
31
0.0
  0
LINE
 8
base
10
77.7085509741336
20
10.7798170616984
30
0.0
11
82.7085509741336
21
10.7798170616984
31
0.0
  0
LINE
 8
base
10
82.7085509741336
20
10.7798170616984
30
0.0
11
82.7085509741336
21
8.77981706169843
31
0.0
  0
LINE
 8
base
10
87.7085509741336
20
8.77981706169843
30
0.0
11
87.7085509741336
21
10.7798170616984
31
0.0
  0
LINE
 8
base
10
380.699328198034
20
6.80445801240233
30
0.0
11
381.255869600418
21
6.44371534748581
31
0.0
  0
LINE
 8
base
10
87.7085509741336
20
10.7798170616984
30
0.0
11
92.7085509741334
21
10.7798170616983
31
0.0
  0
LINE
 8
base
10
380.193303018173
20
7.23319116974575
30
0.0
11
380.699328198034
21
6.80445801240233
31
0.0
  0
LINE
 8
base
10
586.824902007374
20
210.994516761822
30
0.0
11
582.494774988452
21
213.494516761822
31
0.0
  0
LINE
 8
base
10
591.155029026297
20
208.494516761822
30
0.0
11
590.155029026297
21
206.762465954253
31
0.0
  0
LINE
 8
base
10
581.494774988452
20
211.762465954253
30
0.0
11
577.16464796953
21
214.262465954253
31
0.0
  0
LINE
 8
base
10
379.364857023259
20
8.26566250065309
30
0.0
11
379.746047627556
21
7.72292193090217
31
0.0
  0
LINE
 8
base
10
379.05594864704
20
8.85256046279058
30
0.0
11
379.364857023259
21
8.26566250065309
31
0.0
  0
LINE
 8
base
10
383.134595620099
20
5.82216855458463
30
0.0
11
383.796471706619
21
5.77981706169861
31
0.0
  0
LINE
 8
base
10
-82.2914490258664
20
333.209216461941
30
0.0
11
-87.2914490258664
21
333.209216461941
31
0.0
  0
LINE
 8
base
10
382.48351511976
20
5.94853225561617
30
0.0
11
383.134595620099
21
5.82216855458463
31
0.0
  0
LINE
 8
base
10
381.853849709463
20
6.15684709890462
30
0.0
11
382.48351511976
21
5.94853225561617
31
0.0
  0
LINE
 8
base
10
381.255869600418
20
6.44371534748581
30
0.0
11
381.853849709463
21
6.15684709890462
31
0.0
  0
LINE
 8
base
10
-82.2914490258664
20
331.209216461941
30
0.0
11
-82.2914490258664
21
333.209216461941
31
0.0
  0
LINE
 8
base
10
456.549220650731
20
55.7798170616972
30
0.0
11
459.147296862081
21
57.2798170616982
31
0.0
  0
LINE
 8
base
10
-87.2914490258664
20
331.209216461941
30
0.0
11
-82.2914490258664
21
331.209216461941
31
0.0
  0
LINE
 8
base
10
-87.2914490258664
20
333.209216461941
30
0.0
11
-87.2914490258664
21
331.209216461941
31
0.0
  0
LINE
 8
base
10
-72.2914490258664
20
333.209216461941
30
0.0
11
-77.2914490258664
21
333.209216461941
31
0.0
  0
LINE
 8
base
10
92.7085509741336
20
331.209216461941
30
0.0
11
89.8217996281854
21
336.209216461941
31
0.0
  0
LINE
 8
base
10
-77.2914490258664
20
331.209216461941
30
0.0
11
-72.2914490258664
21
331.209216461941
31
0.0
  0
LINE
 8
base
10
-77.2914490258664
20
333.209216461941
30
0.0
11
-77.2914490258664
21
331.209216461941
31
0.0
  0
LINE
 8
base
10
-72.2914490258664
20
331.209216461941
30
0.0
11
-72.2914490258664
21
333.209216461941
31
0.0
  0
LINE
 8
base
10
-62.2914490258664
20
333.209216461941
30
0.0
11
-67.2914490258664
21
333.209216461941
31
0.0
  0
LINE
 8
base
10
-62.2914490258664
20
331.209216461941
30
0.0
11
-62.2914490258664
21
333.209216461941
31
0.0
  0
LINE
 8
base
10
-67.2914490258664
20
331.209216461941
30
0.0
11
-62.2914490258664
21
331.209216461941
31
0.0
  0
LINE
 8
base
10
-67.2914490258664
20
333.209216461941
30
0.0
11
-67.2914490258664
21
331.209216461941
31
0.0
  0
LINE
 8
base
10
422.087919303865
20
201.526368414398
30
0.0
11
421.57028121366
21
201.594516761819
31
0.0
  0
LINE
 8
base
10
423.302332021228
20
200.594516761819
30
0.0
11
422.984494776033
21
201.008730324192
31
0.0
  0
LINE
 8
base
10
423.57028121366
20
199.594516761819
30
0.0
11
423.502132866238
21
200.112154852024
31
0.0
  0
LINE
 8
base
10
420.57028121366
20
197.86246595425
30
0.0
11
420.811462168557
21
197.762565531746
31
0.0
  0
LINE
 8
base
10
422.984494776033
20
201.008730324192
30
0.0
11
422.777387994846
21
201.16764894679
31
0.0
  0
LINE
 8
base
10
421.57028121366
20
197.594516761819
30
0.0
11
422.087919303865
21
197.662665109241
31
0.0
  0
LINE
 8
base
10
422.57028121366
20
201.326567569388
30
0.0
11
422.087919303865
21
201.526368414398
31
0.0
  0
LINE
 8
base
10
421.57028121366
20
201.594516761819
30
0.0
11
421.052643123455
21
201.526368414397
31
0.0
  0
LINE
 8
base
10
419.838230406091
20
198.594516761819
30
0.0
11
420.156067651286
21
198.180303199446
31
0.0
  0
LINE
 8
base
10
420.57028121366
20
201.326567569388
30
0.0
11
420.156067651287
21
201.008730324192
31
0.0
  0
LINE
 8
base
10
423.502132866238
20
200.112154852024
30
0.0
11
423.302332021228
21
200.594516761819
31
0.0
  0
LINE
 8
base
10
419.638429561082
20
199.076878671614
30
0.0
11
419.838230406091
21
198.594516761819
31
0.0
  0
LINE
 8
base
10
423.502132866238
20
199.076878671614
30
0.0
11
423.57028121366
21
199.594516761819
31
0.0
  0
LINE
 8
base
10
422.777387994846
20
201.16764894679
30
0.0
11
422.57028121366
21
201.326567569388
31
0.0
  0
LINE
 8
base
10
419.638429561082
20
200.112154852024
30
0.0
11
419.57028121366
21
199.594516761819
31
0.0
  0
LINE
 8
base
10
419.838230406091
20
200.594516761819
30
0.0
11
419.638429561082
21
200.112154852024
31
0.0
  0
LINE
 8
base
10
422.087919303865
20
197.662665109241
30
0.0
11
422.57028121366
21
197.86246595425
31
0.0
  0
LINE
 8
base
10
423.302332021229
20
198.594516761819
30
0.0
11
423.502132866238
21
199.076878671614
31
0.0
  0
LINE
 8
base
10
420.156067651287
20
201.008730324192
30
0.0
11
419.838230406091
21
200.594516761819
31
0.0
  0
LINE
 8
base
10
421.052643123455
20
197.662665109241
30
0.0
11
421.57028121366
21
197.594516761819
31
0.0
  0
LINE
 8
base
10
419.57028121366
20
199.594516761819
30
0.0
11
419.638429561082
21
199.076878671614
31
0.0
  0
LINE
 8
base
10
420.156067651286
20
198.180303199446
30
0.0
11
420.57028121366
21
197.86246595425
31
0.0
  0
LINE
 8
base
10
421.052643123455
20
201.526368414397
30
0.0
11
420.57028121366
21
201.326567569388
31
0.0
  0
LINE
 8
base
10
422.984494776033
20
198.180303199446
30
0.0
11
423.302332021229
21
198.594516761819
31
0.0
  0
LINE
 8
base
10
422.57028121366
20
197.86246595425
30
0.0
11
422.984494776033
21
198.180303199446
31
0.0
  0
LINE
 8
base
10
420.811462168557
20
197.762565531746
30
0.0
11
421.052643123455
21
197.662665109241
31
0.0
  0
LINE
 8
base
10
176.940601781702
20
189.315024837508
30
0.0
11
175.208550974134
21
188.315024837508
31
0.0
  0
LINE
 8
base
10
180.208550974134
20
179.654770799664
30
0.0
11
177.708550974134
21
183.984897818586
31
0.0
  0
LINE
 8
base
10
177.708550974134
20
183.984897818586
30
0.0
11
179.440601781702
21
184.984897818586
31
0.0
  0
LINE
 8
base
10
175.208550974134
20
188.315024837508
30
0.0
11
172.708550974134
21
192.64515185643
31
0.0
  0
LINE
 8
base
10
174.440601781702
20
193.64515185643
30
0.0
11
171.940601781702
21
197.975278875353
31
0.0
  0
LINE
 8
base
10
179.440601781702
20
184.984897818586
30
0.0
11
176.940601781702
21
189.315024837508
31
0.0
  0
LINE
 8
base
10
172.708550974134
20
192.64515185643
30
0.0
11
174.440601781702
21
193.64515185643
31
0.0
  0
LINE
 8
base
10
171.940601781702
20
197.975278875353
30
0.0
11
170.208550974134
21
196.975278875353
31
0.0
  0
LINE
 8
base
10
169.440601781702
20
202.305405894275
30
0.0
11
166.940601781702
21
206.635532913197
31
0.0
  0
LINE
 8
base
10
170.208550974134
20
196.975278875353
30
0.0
11
167.708550974133
21
201.305405894275
31
0.0
  0
LINE
 8
base
10
167.708550974133
20
201.305405894275
30
0.0
11
169.440601781702
21
202.305405894275
31
0.0
  0
LINE
 8
base
10
166.940601781702
20
206.635532913197
30
0.0
11
165.208550974134
21
205.635532913197
31
0.0
  0
LINE
 8
base
10
164.440601781702
20
210.965659932119
30
0.0
11
161.940601781702
21
215.295786951041
31
0.0
  0
LINE
 8
base
10
165.208550974134
20
205.635532913197
30
0.0
11
162.708550974134
21
209.965659932119
31
0.0
  0
LINE
 8
base
10
162.708550974134
20
209.965659932119
30
0.0
11
164.440601781702
21
210.965659932119
31
0.0
  0
LINE
 8
base
10
161.940601781702
20
215.295786951041
30
0.0
11
160.208550974133
21
214.295786951041
31
0.0
  0
LINE
 8
base
10
159.440601781702
20
219.625913969964
30
0.0
11
156.940601781702
21
223.956040988886
31
0.0
  0
LINE
 8
base
10
160.208550974133
20
214.295786951041
30
0.0
11
157.708550974133
21
218.625913969964
31
0.0
  0
LINE
 8
base
10
157.708550974133
20
218.625913969964
30
0.0
11
159.440601781702
21
219.625913969964
31
0.0
  0
LINE
 8
base
10
156.940601781702
20
223.956040988886
30
0.0
11
155.208550974133
21
222.956040988886
31
0.0
  0
LINE
 8
base
10
154.440601781702
20
228.286168007808
30
0.0
11
151.940601781702
21
232.61629502673
31
0.0
  0
LINE
 8
base
10
155.208550974133
20
222.956040988886
30
0.0
11
152.708550974133
21
227.286168007808
31
0.0
  0
LINE
 8
base
10
152.708550974133
20
227.286168007808
30
0.0
11
154.440601781702
21
228.286168007808
31
0.0
  0
LINE
 8
base
10
151.940601781702
20
232.61629502673
30
0.0
11
150.208550974133
21
231.61629502673
31
0.0
  0
LINE
 8
base
10
149.440601781702
20
236.946422045652
30
0.0
11
146.940601781702
21
241.276549064575
31
0.0
  0
LINE
 8
base
10
150.208550974133
20
231.61629502673
30
0.0
11
147.708550974133
21
235.946422045652
31
0.0
  0
LINE
 8
base
10
147.708550974133
20
235.946422045652
30
0.0
11
149.440601781702
21
236.946422045652
31
0.0
  0
LINE
 8
base
10
146.940601781702
20
241.276549064575
30
0.0
11
145.208550974133
21
240.276549064575
31
0.0
  0
LINE
 8
base
10
144.440601781702
20
245.606676083497
30
0.0
11
141.940601781702
21
249.936803102419
31
0.0
  0
LINE
 8
base
10
145.208550974133
20
240.276549064575
30
0.0
11
142.708550974133
21
244.606676083497
31
0.0
  0
LINE
 8
base
10
142.708550974133
20
244.606676083497
30
0.0
11
144.440601781702
21
245.606676083497
31
0.0
  0
LINE
 8
base
10
141.940601781702
20
249.936803102419
30
0.0
11
140.208550974133
21
248.936803102419
31
0.0
  0
LINE
 8
base
10
139.440601781702
20
254.266930121341
30
0.0
11
136.940601781702
21
258.597057140263
31
0.0
  0
LINE
 8
base
10
140.208550974133
20
248.936803102419
30
0.0
11
137.708550974133
21
253.266930121341
31
0.0
  0
LINE
 8
base
10
137.708550974133
20
253.266930121341
30
0.0
11
139.440601781702
21
254.266930121341
31
0.0
  0
LINE
 8
base
10
136.940601781702
20
258.597057140263
30
0.0
11
135.208550974133
21
257.597057140263
31
0.0
  0
LINE
 8
base
10
134.440601781702
20
262.927184159186
30
0.0
11
131.940601781702
21
267.257311178108
31
0.0
  0
LINE
 8
base
10
135.208550974133
20
257.597057140263
30
0.0
11
132.708550974133
21
261.927184159186
31
0.0
  0
LINE
 8
base
10
132.708550974133
20
261.927184159186
30
0.0
11
134.440601781702
21
262.927184159186
31
0.0
  0
LINE
 8
base
10
131.940601781702
20
267.257311178108
30
0.0
11
130.208550974133
21
266.257311178108
31
0.0
  0
LINE
 8
base
10
129.440601781702
20
271.58743819703
30
0.0
11
126.940601781702
21
275.917565215952
31
0.0
  0
LINE
 8
base
10
130.208550974133
20
266.257311178108
30
0.0
11
127.708550974133
21
270.58743819703
31
0.0
  0
LINE
 8
base
10
127.708550974133
20
270.58743819703
30
0.0
11
129.440601781702
21
271.58743819703
31
0.0
  0
LINE
 8
base
10
126.940601781702
20
275.917565215952
30
0.0
11
125.208550974133
21
274.917565215952
31
0.0
  0
LINE
 8
base
10
124.440601781702
20
280.247692234874
30
0.0
11
121.940601781702
21
284.577819253797
31
0.0
  0
LINE
 8
base
10
125.208550974133
20
274.917565215952
30
0.0
11
122.708550974133
21
279.247692234874
31
0.0
  0
LINE
 8
base
10
122.708550974133
20
279.247692234874
30
0.0
11
124.440601781702
21
280.247692234874
31
0.0
  0
LINE
 8
base
10
-42.2914490258664
20
333.209216461941
30
0.0
11
-47.2914490258664
21
333.209216461941
31
0.0
  0
LINE
 8
base
10
-42.2914490258664
20
331.209216461941
30
0.0
11
-42.2914490258664
21
333.209216461941
31
0.0
  0
LINE
 8
base
10
-47.2914490258664
20
331.209216461941
30
0.0
11
-42.2914490258664
21
331.209216461941
31
0.0
  0
LINE
 8
base
10
-47.2914490258664
20
333.209216461941
30
0.0
11
-47.2914490258664
21
331.209216461941
31
0.0
  0
LINE
 8
base
10
-32.2914490258664
20
333.209216461941
30
0.0
11
-37.2914490258664
21
333.209216461941
31
0.0
  0
LINE
 8
base
10
-32.2914490258664
20
331.209216461941
30
0.0
11
-32.2914490258664
21
333.209216461941
31
0.0
  0
LINE
 8
base
10
-37.2914490258664
20
331.209216461941
30
0.0
11
-32.2914490258664
21
331.209216461941
31
0.0
  0
LINE
 8
base
10
-37.2914490258664
20
333.209216461941
30
0.0
11
-37.2914490258664
21
331.209216461941
31
0.0
  0
LINE
 8
base
10
-22.2914490258664
20
333.209216461941
30
0.0
11
-27.2914490258664
21
333.209216461941
31
0.0
  0
LINE
 8
base
10
-22.2914490258664
20
331.209216461941
30
0.0
11
-22.2914490258664
21
333.209216461941
31
0.0
  0
LINE
 8
base
10
-27.2914490258664
20
331.209216461941
30
0.0
11
-22.2914490258664
21
331.209216461941
31
0.0
  0
LINE
 8
base
10
-27.2914490258664
20
333.209216461941
30
0.0
11
-27.2914490258664
21
331.209216461941
31
0.0
  0
LINE
 8
base
10
-12.2914490258664
20
333.209216461941
30
0.0
11
-17.2914490258664
21
333.209216461941
31
0.0
  0
LINE
 8
base
10
-12.2914490258664
20
331.209216461941
30
0.0
11
-12.2914490258664
21
333.209216461941
31
0.0
  0
LINE
 8
base
10
-17.2914490258664
20
331.209216461941
30
0.0
11
-12.2914490258664
21
331.209216461941
31
0.0
  0
LINE
 8
base
10
-17.2914490258664
20
333.209216461941
30
0.0
11
-17.2914490258664
21
331.209216461941
31
0.0
  0
LINE
 8
base
10
-2.29144902586636
20
333.209216461941
30
0.0
11
-7.29144902586636
21
333.209216461941
31
0.0
  0
LINE
 8
base
10
-2.29144902586636
20
331.209216461941
30
0.0
11
-2.29144902586636
21
333.209216461941
31
0.0
  0
LINE
 8
base
10
-7.29144902586636
20
331.209216461941
30
0.0
11
-2.29144902586636
21
331.209216461941
31
0.0
  0
LINE
 8
base
10
-7.29144902586636
20
333.209216461941
30
0.0
11
-7.29144902586636
21
331.209216461941
31
0.0
  0
LINE
 8
base
10
7.70855097413365
20
333.209216461941
30
0.0
11
2.70855097413365
21
333.209216461941
31
0.0
  0
LINE
 8
base
10
7.70855097413365
20
331.209216461941
30
0.0
11
7.70855097413365
21
333.209216461941
31
0.0
  0
LINE
 8
base
10
2.70855097413365
20
331.209216461941
30
0.0
11
7.70855097413365
21
331.209216461941
31
0.0
  0
LINE
 8
base
10
2.70855097413365
20
333.209216461941
30
0.0
11
2.70855097413365
21
331.209216461941
31
0.0
  0
LINE
 8
base
10
17.7085509741337
20
333.209216461941
30
0.0
11
12.7085509741336
21
333.209216461941
31
0.0
  0
LINE
 8
base
10
17.7085509741337
20
331.209216461941
30
0.0
11
17.7085509741337
21
333.209216461941
31
0.0
  0
LINE
 8
base
10
12.7085509741336
20
331.209216461941
30
0.0
11
17.7085509741337
21
331.209216461941
31
0.0
  0
LINE
 8
base
10
12.7085509741336
20
333.209216461941
30
0.0
11
12.7085509741336
21
331.209216461941
31
0.0
  0
LINE
 8
base
10
27.7085509741337
20
333.209216461941
30
0.0
11
22.7085509741337
21
333.209216461941
31
0.0
  0
LINE
 8
base
10
27.7085509741337
20
331.209216461941
30
0.0
11
27.7085509741337
21
333.209216461941
31
0.0
  0
LINE
 8
base
10
22.7085509741337
20
331.209216461941
30
0.0
11
27.7085509741337
21
331.209216461941
31
0.0
  0
LINE
 8
base
10
22.7085509741337
20
333.209216461941
30
0.0
11
22.7085509741337
21
331.209216461941
31
0.0
  0
LINE
 8
base
10
37.7085509741337
20
333.209216461941
30
0.0
11
32.7085509741337
21
333.209216461941
31
0.0
  0
LINE
 8
base
10
37.7085509741337
20
331.209216461941
30
0.0
11
37.7085509741337
21
333.209216461941
31
0.0
  0
LINE
 8
base
10
32.7085509741337
20
331.209216461941
30
0.0
11
37.7085509741337
21
331.209216461941
31
0.0
  0
LINE
 8
base
10
32.7085509741337
20
333.209216461941
30
0.0
11
32.7085509741337
21
331.209216461941
31
0.0
  0
LINE
 8
base
10
47.7085509741337
20
333.209216461941
30
0.0
11
42.7085509741337
21
333.209216461941
31
0.0
  0
LINE
 8
base
10
47.7085509741337
20
331.209216461941
30
0.0
11
47.7085509741337
21
333.209216461941
31
0.0
  0
LINE
 8
base
10
42.7085509741337
20
331.209216461941
30
0.0
11
47.7085509741337
21
331.209216461941
31
0.0
  0
LINE
 8
base
10
42.7085509741337
20
333.209216461941
30
0.0
11
42.7085509741337
21
331.209216461941
31
0.0
  0
LINE
 8
base
10
57.7085509741337
20
333.209216461941
30
0.0
11
52.7085509741337
21
333.209216461941
31
0.0
  0
LINE
 8
base
10
57.7085509741337
20
331.209216461941
30
0.0
11
57.7085509741337
21
333.209216461941
31
0.0
  0
LINE
 8
base
10
52.7085509741337
20
331.209216461941
30
0.0
11
57.7085509741337
21
331.209216461941
31
0.0
  0
LINE
 8
base
10
52.7085509741337
20
333.209216461941
30
0.0
11
52.7085509741337
21
331.209216461941
31
0.0
  0
LINE
 8
base
10
67.7085509741337
20
333.209216461941
30
0.0
11
62.7085509741337
21
333.209216461941
31
0.0
  0
LINE
 8
base
10
67.7085509741337
20
331.209216461941
30
0.0
11
67.7085509741337
21
333.209216461941
31
0.0
  0
LINE
 8
base
10
62.7085509741337
20
331.209216461941
30
0.0
11
67.7085509741337
21
331.209216461941
31
0.0
  0
LINE
 8
base
10
62.7085509741337
20
333.209216461941
30
0.0
11
62.7085509741337
21
331.209216461941
31
0.0
  0
LINE
 8
base
10
77.7085509741337
20
333.209216461941
30
0.0
11
72.7085509741337
21
333.209216461941
31
0.0
  0
LINE
 8
base
10
77.7085509741337
20
331.209216461941
30
0.0
11
77.7085509741337
21
333.209216461941
31
0.0
  0
LINE
 8
base
10
72.7085509741337
20
331.209216461941
30
0.0
11
77.7085509741337
21
331.209216461941
31
0.0
  0
LINE
 8
base
10
72.7085509741337
20
333.209216461941
30
0.0
11
72.7085509741337
21
331.209216461941
31
0.0
  0
LINE
 8
base
10
87.7085509741337
20
333.209216461941
30
0.0
11
82.7085509741337
21
333.209216461941
31
0.0
  0
LINE
 8
base
10
87.7085509741337
20
331.209216461941
30
0.0
11
87.7085509741337
21
333.209216461941
31
0.0
  0
LINE
 8
base
10
82.7085509741337
20
331.209216461941
30
0.0
11
87.7085509741337
21
331.209216461941
31
0.0
  0
LINE
 8
base
10
82.7085509741337
20
333.209216461941
30
0.0
11
82.7085509741337
21
331.209216461941
31
0.0
  0
LINE
 8
base
10
-152.291449025866
20
227.286168007808
30
0.0
11
-154.791449025866
21
222.956040988886
31
0.0
  0
LINE
 8
base
10
-154.023499833435
20
228.286168007808
30
0.0
11
-152.291449025866
21
227.286168007808
31
0.0
  0
LINE
 8
base
10
89.8217996281854
20
336.209216461941
30
0.0
11
-89.4046976799183
21
336.209216461941
31
0.0
  0
LINE
 8
base
10
-154.791449025866
20
222.956040988886
30
0.0
11
-156.523499833435
21
223.956040988886
31
0.0
  0
LINE
 8
base
10
-156.523499833435
20
223.956040988886
30
0.0
11
-159.023499833435
21
219.625913969964
31
0.0
  0
LINE
 8
base
10
-111.523499833435
20
40.0907061941538
30
0.0
11
-109.791449025866
21
41.0907061941538
31
0.0
  0
LINE
 8
base
10
-99.0234998334353
20
18.4400710995428
30
0.0
11
-96.5234998334353
21
14.1099440806206
31
0.0
  0
LINE
 8
base
10
-92.2914490258665
20
10.7798170616984
30
0.0
11
-98.0649517177627
21
10.7798170616984
31
0.0
  0
LINE
 8
base
10
-97.2914490258664
20
19.4400710995428
30
0.0
11
-99.0234998334353
21
18.4400710995428
31
0.0
  0
LINE
 8
base
10
-94.7914490258664
20
15.1099440806206
30
0.0
11
-97.2914490258664
21
19.4400710995428
31
0.0
  0
LINE
 8
base
10
-96.5234998334353
20
14.1099440806206
30
0.0
11
-94.7914490258664
21
15.1099440806206
31
0.0
  0
LINE
 8
base
10
-104.023499833435
20
27.1003251373872
30
0.0
11
-101.523499833435
21
22.770198118465
31
0.0
  0
LINE
 8
base
10
-184.791449025866
20
170.99451676182
30
0.0
11
-187.678200371815
21
165.99451676182
31
0.0
  0
LINE
 8
base
10
-99.7914490258664
20
23.770198118465
30
0.0
11
-102.291449025866
21
28.1003251373872
31
0.0
  0
LINE
 8
base
10
-101.523499833435
20
22.770198118465
30
0.0
11
-99.7914490258664
21
23.770198118465
31
0.0
  0
LINE
 8
base
10
-102.291449025866
20
28.1003251373872
30
0.0
11
-104.023499833435
21
27.1003251373872
31
0.0
  0
LINE
 8
base
10
-109.023499833435
20
35.7605791752316
30
0.0
11
-106.523499833435
21
31.4304521563094
31
0.0
  0
LINE
 8
base
10
-107.291449025866
20
36.7605791752316
30
0.0
11
-109.023499833435
21
35.7605791752316
31
0.0
  0
LINE
 8
base
10
-104.791449025866
20
32.4304521563094
30
0.0
11
-107.291449025866
21
36.7605791752316
31
0.0
  0
LINE
 8
base
10
-106.523499833435
20
31.4304521563094
30
0.0
11
-104.791449025866
21
32.4304521563094
31
0.0
  0
LINE
 8
base
10
471.10693431013
20
111.79451676182
30
0.0
11
471.624572400335
21
111.862665109241
31
0.0
  0
LINE
 8
base
10
-114.791449025866
20
49.7509602319981
30
0.0
11
-117.291449025866
21
54.0810872509203
31
0.0
  0
LINE
 8
base
10
-116.523499833435
20
48.7509602319982
30
0.0
11
-114.791449025866
21
49.7509602319981
31
0.0
  0
LINE
 8
base
10
-119.023499833435
20
53.0810872509203
30
0.0
11
-116.523499833435
21
48.7509602319982
31
0.0
  0
LINE
 8
base
10
-117.291449025866
20
54.0810872509203
30
0.0
11
-119.023499833435
21
53.0810872509203
31
0.0
  0
LINE
 8
base
10
-119.791449025866
20
58.4112142698425
30
0.0
11
-122.291449025866
21
62.7413412887647
31
0.0
  0
LINE
 8
base
10
-121.523499833435
20
57.4112142698425
30
0.0
11
-119.791449025866
21
58.4112142698425
31
0.0
  0
LINE
 8
base
10
-124.023499833435
20
61.7413412887647
30
0.0
11
-121.523499833435
21
57.4112142698425
31
0.0
  0
LINE
 8
base
10
-122.291449025866
20
62.7413412887647
30
0.0
11
-124.023499833435
21
61.7413412887647
31
0.0
  0
LINE
 8
base
10
-124.791449025866
20
67.0714683076869
30
0.0
11
-127.291449025866
21
71.4015953266091
31
0.0
  0
LINE
 8
base
10
-126.523499833435
20
66.0714683076869
30
0.0
11
-124.791449025866
21
67.0714683076869
31
0.0
  0
LINE
 8
base
10
-129.023499833435
20
70.4015953266091
30
0.0
11
-126.523499833435
21
66.0714683076869
31
0.0
  0
LINE
 8
base
10
-127.291449025866
20
71.4015953266091
30
0.0
11
-129.023499833435
21
70.4015953266091
31
0.0
  0
LINE
 8
base
10
-129.791449025866
20
75.7317223455313
30
0.0
11
-132.291449025866
21
80.0618493644535
31
0.0
  0
LINE
 8
base
10
-131.523499833435
20
74.7317223455313
30
0.0
11
-129.791449025866
21
75.7317223455313
31
0.0
  0
LINE
 8
base
10
-134.023499833435
20
79.0618493644535
30
0.0
11
-131.523499833435
21
74.7317223455313
31
0.0
  0
LINE
 8
base
10
-132.291449025866
20
80.0618493644535
30
0.0
11
-134.023499833435
21
79.0618493644535
31
0.0
  0
LINE
 8
base
10
-134.791449025866
20
84.3919763833757
30
0.0
11
-137.291449025866
21
88.7221034022979
31
0.0
  0
LINE
 8
base
10
-136.523499833435
20
83.3919763833757
30
0.0
11
-134.791449025866
21
84.3919763833757
31
0.0
  0
LINE
 8
base
10
-139.023499833435
20
87.7221034022979
30
0.0
11
-136.523499833435
21
83.3919763833757
31
0.0
  0
LINE
 8
base
10
-137.291449025866
20
88.7221034022979
30
0.0
11
-139.023499833435
21
87.7221034022979
31
0.0
  0
LINE
 8
base
10
-139.791449025866
20
93.0522304212201
30
0.0
11
-142.291449025866
21
97.3823574401423
31
0.0
  0
LINE
 8
base
10
-141.523499833435
20
92.0522304212201
30
0.0
11
-139.791449025866
21
93.0522304212201
31
0.0
  0
LINE
 8
base
10
-144.023499833435
20
96.3823574401423
30
0.0
11
-141.523499833435
21
92.0522304212201
31
0.0
  0
LINE
 8
base
10
-142.291449025866
20
97.3823574401423
30
0.0
11
-144.023499833435
21
96.3823574401423
31
0.0
  0
LINE
 8
base
10
-144.791449025866
20
101.712484459064
30
0.0
11
-147.291449025866
21
106.042611477987
31
0.0
  0
LINE
 8
base
10
-146.523499833435
20
100.712484459064
30
0.0
11
-144.791449025866
21
101.712484459064
31
0.0
  0
LINE
 8
base
10
-149.023499833435
20
105.042611477987
30
0.0
11
-146.523499833435
21
100.712484459064
31
0.0
  0
LINE
 8
base
10
-147.291449025866
20
106.042611477987
30
0.0
11
-149.023499833435
21
105.042611477987
31
0.0
  0
LINE
 8
base
10
-149.791449025866
20
110.372738496909
30
0.0
11
-152.291449025867
21
114.702865515831
31
0.0
  0
LINE
 8
base
10
-151.523499833435
20
109.372738496909
30
0.0
11
-149.791449025866
21
110.372738496909
31
0.0
  0
LINE
 8
base
10
-154.023499833435
20
113.702865515831
30
0.0
11
-151.523499833435
21
109.372738496909
31
0.0
  0
LINE
 8
base
10
-152.291449025867
20
114.702865515831
30
0.0
11
-154.023499833435
21
113.702865515831
31
0.0
  0
LINE
 8
base
10
470.589296219924
20
115.726368414398
30
0.0
11
470.10693431013
21
115.526567569388
31
0.0
  0
LINE
 8
base
10
-154.791449025866
20
119.032992534753
30
0.0
11
-157.291449025866
21
123.363119553675
31
0.0
  0
LINE
 8
base
10
-156.523499833435
20
118.032992534753
30
0.0
11
-154.791449025866
21
119.032992534753
31
0.0
  0
LINE
 8
base
10
469.692720747756
20
115.208730324193
30
0.0
11
469.374883502561
21
114.79451676182
31
0.0
  0
LINE
 8
base
10
-159.023499833435
20
122.363119553675
30
0.0
11
-156.523499833435
21
118.032992534753
31
0.0
  0
LINE
 8
base
10
469.374883502561
20
114.79451676182
30
0.0
11
469.175082657551
21
114.312154852025
31
0.0
  0
LINE
 8
base
10
-157.291449025866
20
123.363119553675
30
0.0
11
-159.023499833435
21
122.363119553675
31
0.0
  0
LINE
 8
base
10
-159.791449025867
20
127.693246572598
30
0.0
11
-162.291449025866
21
132.02337359152
31
0.0
  0
LINE
 8
base
10
469.175082657551
20
114.312154852025
30
0.0
11
469.14100848384
21
114.053335806922
31
0.0
  0
LINE
 8
base
10
-161.523499833435
20
126.693246572598
30
0.0
11
-159.791449025867
21
127.693246572598
31
0.0
  0
LINE
 8
base
10
-164.023499833435
20
131.02337359152
30
0.0
11
-161.523499833435
21
126.693246572598
31
0.0
  0
LINE
 8
base
10
469.10693431013
20
113.79451676182
30
0.0
11
469.175082657551
21
113.276878671615
31
0.0
  0
LINE
 8
base
10
-162.291449025866
20
132.02337359152
30
0.0
11
-164.023499833435
21
131.02337359152
31
0.0
  0
LINE
 8
base
10
-164.791449025867
20
136.353500610442
30
0.0
11
-167.291449025866
21
140.683627629364
31
0.0
  0
LINE
 8
base
10
469.175082657551
20
113.276878671615
30
0.0
11
469.374883502561
21
112.79451676182
31
0.0
  0
LINE
 8
base
10
-166.523499833435
20
135.353500610442
30
0.0
11
-164.791449025867
21
136.353500610442
31
0.0
  0
LINE
 8
base
10
-169.023499833435
20
139.683627629364
30
0.0
11
-166.523499833435
21
135.353500610442
31
0.0
  0
LINE
 8
base
10
469.374883502561
20
112.79451676182
30
0.0
11
469.692720747756
21
112.380303199446
31
0.0
  0
LINE
 8
base
10
-167.291449025866
20
140.683627629364
30
0.0
11
-169.023499833435
21
139.683627629364
31
0.0
  0
LINE
 8
base
10
-169.791449025867
20
145.013754648286
30
0.0
11
-172.291449025867
21
149.343881667209
31
0.0
  0
LINE
 8
base
10
469.692720747756
20
112.380303199446
30
0.0
11
470.106934310129
21
112.062465954251
31
0.0
  0
LINE
 8
base
10
-171.523499833435
20
144.013754648286
30
0.0
11
-169.791449025867
21
145.013754648286
31
0.0
  0
LINE
 8
base
10
-174.023499833435
20
148.343881667209
30
0.0
11
-171.523499833435
21
144.013754648286
31
0.0
  0
LINE
 8
base
10
-172.291449025867
20
149.343881667209
30
0.0
11
-174.023499833435
21
148.343881667209
31
0.0
  0
LINE
 8
base
10
470.106934310129
20
112.062465954251
30
0.0
11
470.589296219924
21
111.862665109241
31
0.0
  0
LINE
 8
base
10
-174.791449025867
20
153.674008686131
30
0.0
11
-177.291449025867
21
158.004135705053
31
0.0
  0
LINE
 8
base
10
-176.523499833435
20
152.674008686131
30
0.0
11
-174.791449025867
21
153.674008686131
31
0.0
  0
LINE
 8
base
10
470.589296219924
20
111.862665109241
30
0.0
11
471.10693431013
21
111.79451676182
31
0.0
  0
LINE
 8
base
10
-179.023499833435
20
157.004135705053
30
0.0
11
-176.523499833435
21
152.674008686131
31
0.0
  0
LINE
 8
base
10
-177.291449025867
20
158.004135705053
30
0.0
11
-179.023499833435
21
157.004135705053
31
0.0
  0
LINE
 8
base
10
473.072860136419
20
114.053335806922
30
0.0
11
473.038785962708
21
114.312154852025
31
0.0
  0
LINE
 8
base
10
-179.791449025867
20
162.334262723975
30
0.0
11
-182.291449025867
21
166.664389742897
31
0.0
  0
LINE
 8
base
10
-181.523499833435
20
161.334262723975
30
0.0
11
-179.791449025867
21
162.334262723975
31
0.0
  0
LINE
 8
base
10
-184.023499833435
20
165.664389742897
30
0.0
11
-181.523499833435
21
161.334262723975
31
0.0
  0
LINE
 8
base
10
-182.291449025867
20
166.664389742897
30
0.0
11
-184.023499833435
21
165.664389742897
31
0.0
  0
LINE
 8
base
10
472.106934310129
20
112.062465954251
30
0.0
11
472.521147872503
21
112.380303199446
31
0.0
  0
LINE
 8
base
10
-187.678200371815
20
165.99451676182
30
0.0
11
-98.0649517177627
21
10.7798170616984
31
0.0
  0
LINE
 8
base
10
473.10693431013
20
113.79451676182
30
0.0
11
473.072860136419
21
114.053335806922
31
0.0
  0
LINE
 8
base
10
185.208550974133
20
170.994516761819
30
0.0
11
182.708550974134
21
175.324643780742
31
0.0
  0
LINE
 8
base
10
-97.2914490258664
20
322.548962424096
30
0.0
11
-99.7914490258665
21
318.218835405174
31
0.0
  0
LINE
 8
base
10
471.10693431013
20
115.79451676182
30
0.0
11
470.589296219924
21
115.726368414398
31
0.0
  0
LINE
 8
base
10
472.838985117698
20
114.79451676182
30
0.0
11
472.521147872503
21
115.208730324193
31
0.0
  0
LINE
 8
base
10
470.10693431013
20
115.526567569388
30
0.0
11
469.692720747756
21
115.208730324193
31
0.0
  0
LINE
 8
base
10
469.14100848384
20
114.053335806922
30
0.0
11
469.10693431013
21
113.79451676182
31
0.0
  0
LINE
 8
base
10
471.624572400335
20
111.862665109241
30
0.0
11
472.106934310129
21
112.062465954251
31
0.0
  0
LINE
 8
base
10
472.521147872503
20
115.208730324193
30
0.0
11
472.10693431013
21
115.526567569388
31
0.0
  0
LINE
 8
base
10
472.10693431013
20
115.526567569388
30
0.0
11
471.624572400335
21
115.726368414398
31
0.0
  0
LINE
 8
base
10
471.624572400335
20
115.726368414398
30
0.0
11
471.10693431013
21
115.79451676182
31
0.0
  0
LINE
 8
base
10
472.521147872503
20
112.380303199446
30
0.0
11
472.838985117698
21
112.79451676182
31
0.0
  0
LINE
 8
base
10
473.038785962708
20
113.276878671615
30
0.0
11
473.10693431013
21
113.79451676182
31
0.0
  0
LINE
 8
base
10
472.838985117698
20
112.79451676182
30
0.0
11
473.038785962708
21
113.276878671615
31
0.0
  0
LINE
 8
base
10
184.440601781702
20
176.324643780742
30
0.0
11
181.940601781702
21
180.654770799664
31
0.0
  0
LINE
 8
base
10
181.940601781702
20
180.654770799664
30
0.0
11
180.208550974134
21
179.654770799664
31
0.0
  0
LINE
 8
base
10
182.708550974134
20
175.324643780742
30
0.0
11
184.440601781702
21
176.324643780742
31
0.0
  0
LINE
 8
base
10
473.038785962708
20
114.312154852025
30
0.0
11
472.838985117698
21
114.79451676182
31
0.0
  0
LINE
 8
base
10
-99.7914490258665
20
318.218835405174
30
0.0
11
-101.523499833435
21
319.218835405174
31
0.0
  0
LINE
 8
base
10
-104.023499833435
20
314.888708386252
30
0.0
11
-102.291449025866
21
313.888708386252
31
0.0
  0
LINE
 8
base
10
135.208550974133
20
84.3919763833756
30
0.0
11
136.940601781702
21
83.3919763833756
31
0.0
  0
LINE
 8
base
10
117.708550974133
20
54.0810872509202
30
0.0
11
115.208550974133
21
49.7509602319981
31
0.0
  0
LINE
 8
base
10
144.440601781702
20
96.3823574401422
30
0.0
11
142.708550974133
21
97.3823574401422
31
0.0
  0
LINE
 8
base
10
122.708550974133
20
62.7413412887647
30
0.0
11
120.208550974133
21
58.4112142698424
31
0.0
  0
LINE
 8
base
10
150.208550974133
20
110.372738496909
30
0.0
11
151.940601781702
21
109.372738496909
31
0.0
  0
LINE
 8
base
10
154.440601781702
20
113.702865515831
30
0.0
11
152.708550974133
21
114.702865515831
31
0.0
  0
LINE
 8
base
10
155.208550974133
20
119.032992534753
30
0.0
11
156.940601781702
21
118.032992534753
31
0.0
  0
LINE
 8
base
10
160.208550974133
20
127.693246572598
30
0.0
11
161.940601781702
21
126.693246572598
31
0.0
  0
LINE
 8
base
10
164.440601781702
20
131.02337359152
30
0.0
11
162.708550974133
21
132.02337359152
31
0.0
  0
LINE
 8
base
10
-144.791449025866
20
240.276549064575
30
0.0
11
-146.523499833435
21
241.276549064574
31
0.0
  0
LINE
 8
base
10
170.208550974133
20
145.013754648286
30
0.0
11
171.940601781702
21
144.013754648286
31
0.0
  0
LINE
 8
base
10
177.708550974133
20
158.004135705053
30
0.0
11
175.208550974133
21
153.674008686131
31
0.0
  0
LINE
 8
base
10
182.708550974133
20
166.664389742897
30
0.0
11
180.208550974133
21
162.334262723975
31
0.0
  0
LINE
 8
base
10
140.208550974133
20
93.05223042122
30
0.0
11
141.940601781702
21
92.05223042122
31
0.0
  0
LINE
 8
base
10
145.208550974133
20
101.712484459064
30
0.0
11
146.940601781702
21
100.712484459064
31
0.0
  0
LINE
 8
base
10
134.440601781702
20
79.0618493644534
30
0.0
11
132.708550974133
21
80.0618493644535
31
0.0
  0
LINE
 8
base
10
139.440601781702
20
87.7221034022978
30
0.0
11
137.708550974133
21
88.7221034022978
31
0.0
  0
LINE
 8
base
10
127.708550974133
20
71.401595326609
30
0.0
11
125.208550974134
21
67.0714683076868
31
0.0
  0
LINE
 8
base
10
159.440601781702
20
122.363119553675
30
0.0
11
157.708550974133
21
123.363119553675
31
0.0
  0
LINE
 8
base
10
149.440601781702
20
105.042611477987
30
0.0
11
147.708550974133
21
106.042611477987
31
0.0
  0
LINE
 8
base
10
106.940601781702
20
31.4304521563093
30
0.0
11
109.440601781702
21
35.7605791752314
31
0.0
  0
LINE
 8
base
10
175.208550974133
20
153.674008686131
30
0.0
11
176.940601781702
21
152.674008686131
31
0.0
  0
LINE
 8
base
10
-112.291449025866
20
45.420833213076
30
0.0
11
-114.023499833435
21
44.420833213076
31
0.0
  0
LINE
 8
base
10
174.440601781702
20
148.343881667209
30
0.0
11
172.708550974133
21
149.343881667209
31
0.0
  0
LINE
 8
base
10
100.208550974133
20
23.7701981184649
30
0.0
11
101.940601781702
21
22.7701981184649
31
0.0
  0
LINE
 8
base
10
125.208550974134
20
67.0714683076868
30
0.0
11
126.940601781702
21
66.0714683076868
31
0.0
  0
LINE
 8
base
10
112.708550974134
20
45.4208332130759
30
0.0
11
110.208550974133
21
41.0907061941537
31
0.0
  0
LINE
 8
base
10
99.4406017817024
20
18.4400710995427
30
0.0
11
97.7085509741335
21
19.4400710995427
31
0.0
  0
LINE
 8
base
10
95.2085509741335
20
15.1099440806205
30
0.0
11
96.9406017817024
21
14.1099440806205
31
0.0
  0
LINE
 8
base
10
169.440601781702
20
139.683627629364
30
0.0
11
167.708550974133
21
140.683627629364
31
0.0
  0
LINE
 8
base
10
185.208550974133
20
170.994516761819
30
0.0
11
188.095302320082
21
165.99451676182
31
0.0
  0
LINE
 8
base
10
116.940601781702
20
293.238073291641
30
0.0
11
115.208550974133
21
292.238073291641
31
0.0
  0
LINE
 8
base
10
104.440601781702
20
27.1003251373871
30
0.0
11
102.708550974134
21
28.1003251373871
31
0.0
  0
LINE
 8
base
10
111.940601781702
20
301.898327329485
30
0.0
11
110.208550974133
21
300.898327329485
31
0.0
  0
LINE
 8
base
10
115.208550974133
20
292.238073291641
30
0.0
11
112.708550974133
21
296.568200310563
31
0.0
  0
LINE
 8
base
10
110.208550974133
20
300.898327329485
30
0.0
11
107.708550974133
21
305.228454348408
31
0.0
  0
LINE
 8
base
10
166.940601781702
20
135.353500610442
30
0.0
11
169.440601781702
21
139.683627629364
31
0.0
  0
LINE
 8
base
10
105.208550974133
20
309.55858136733
30
0.0
11
102.708550974133
21
313.888708386252
31
0.0
  0
LINE
 8
base
10
106.940601781702
20
310.55858136733
30
0.0
11
105.208550974133
21
309.55858136733
31
0.0
  0
LINE
 8
base
10
100.208550974133
20
318.218835405174
30
0.0
11
97.7085509741334
21
322.548962424096
31
0.0
  0
LINE
 8
base
10
176.940601781702
20
152.674008686131
30
0.0
11
179.440601781702
21
157.004135705053
31
0.0
  0
LINE
 8
base
10
96.9406017817023
20
327.879089443018
30
0.0
11
95.2085509741334
21
326.879089443018
31
0.0
  0
LINE
 8
base
10
101.940601781702
20
319.218835405174
30
0.0
11
100.208550974133
21
318.218835405174
31
0.0
  0
LINE
 8
base
10
-104.791449025866
20
309.55858136733
30
0.0
11
-106.523499833435
21
310.55858136733
31
0.0
  0
LINE
 8
base
10
-106.523499833435
20
310.55858136733
30
0.0
11
-109.023499833435
21
306.228454348407
31
0.0
  0
LINE
 8
base
10
-139.791449025866
20
248.936803102419
30
0.0
11
-141.523499833435
21
249.936803102419
31
0.0
  0
LINE
 8
base
10
-89.4046976799183
20
336.209216461941
30
0.0
11
-94.7914490258664
21
326.879089443018
31
0.0
  0
LINE
 8
base
10
-141.523499833435
20
249.936803102419
30
0.0
11
-144.023499833435
21
245.606676083497
31
0.0
  0
LINE
 8
base
10
119.440601781702
20
288.907946272719
30
0.0
11
116.940601781702
21
293.238073291641
31
0.0
  0
LINE
 8
base
10
-116.523499833435
20
293.238073291641
30
0.0
11
-119.023499833435
21
288.907946272719
31
0.0
  0
LINE
 8
base
10
98.4820536660298
20
10.7798170616984
30
0.0
11
188.095302320082
21
165.99451676182
31
0.0
  0
LINE
 8
base
10
-111.523499833435
20
301.898327329485
30
0.0
11
-114.023499833435
21
297.568200310563
31
0.0
  0
LINE
 8
base
10
-114.791449025866
20
292.238073291641
30
0.0
11
-116.523499833435
21
293.238073291641
31
0.0
  0
LINE
 8
base
10
-121.523499833435
20
284.577819253796
30
0.0
11
-124.023499833435
21
280.247692234874
31
0.0
  0
LINE
 8
base
10
121.940601781702
20
284.577819253797
30
0.0
11
120.208550974133
21
283.577819253797
31
0.0
  0
LINE
 8
base
10
-119.791449025866
20
283.577819253796
30
0.0
11
-121.523499833435
21
284.577819253796
31
0.0
  0
LINE
 8
base
10
-127.291449025866
20
270.58743819703
30
0.0
11
-129.791449025866
21
266.257311178108
31
0.0
  0
LINE
 8
base
10
-132.291449025866
20
261.927184159186
30
0.0
11
-134.791449025866
21
257.597057140263
31
0.0
  0
LINE
 8
base
10
-109.791449025866
20
300.898327329485
30
0.0
11
-111.523499833435
21
301.898327329485
31
0.0
  0
LINE
 8
base
10
-134.023499833435
20
262.927184159185
30
0.0
11
-132.291449025866
21
261.927184159186
31
0.0
  0
LINE
 8
base
10
-134.791449025866
20
257.597057140263
30
0.0
11
-136.523499833435
21
258.597057140263
31
0.0
  0
LINE
 8
base
10
-146.523499833435
20
241.276549064574
30
0.0
11
-149.023499833435
21
236.946422045652
31
0.0
  0
LINE
 8
base
10
-126.523499833435
20
275.917565215952
30
0.0
11
-129.023499833435
21
271.58743819703
31
0.0
  0
LINE
 8
base
10
97.7085509741335
20
19.4400710995427
30
0.0
11
95.2085509741335
21
15.1099440806205
31
0.0
  0
LINE
 8
base
10
-114.023499833435
20
44.420833213076
30
0.0
11
-111.523499833435
21
40.0907061941538
31
0.0
  0
LINE
 8
base
10
-109.791449025866
20
41.0907061941538
30
0.0
11
-112.291449025866
21
45.420833213076
31
0.0
  0
LINE
 8
base
10
114.440601781702
20
44.4208332130759
30
0.0
11
112.708550974134
21
45.4208332130759
31
0.0
  0
LINE
 8
base
10
109.440601781702
20
35.7605791752314
30
0.0
11
107.708550974134
21
36.7605791752314
31
0.0
  0
LINE
 8
base
10
121.940601781702
20
57.4112142698425
30
0.0
11
124.440601781702
21
61.7413412887647
31
0.0
  0
LINE
 8
base
10
116.940601781702
20
48.7509602319981
30
0.0
11
119.440601781702
21
53.0810872509202
31
0.0
  0
LINE
 8
base
10
131.940601781702
20
74.7317223455312
30
0.0
11
134.440601781702
21
79.0618493644534
31
0.0
  0
LINE
 8
base
10
126.940601781702
20
66.0714683076868
30
0.0
11
129.440601781702
21
70.401595326609
31
0.0
  0
LINE
 8
base
10
102.708550974134
20
28.1003251373871
30
0.0
11
100.208550974133
21
23.7701981184649
31
0.0
  0
LINE
 8
base
10
107.708550974134
20
36.7605791752314
30
0.0
11
105.208550974134
21
32.4304521563093
31
0.0
  0
LINE
 8
base
10
119.440601781702
20
53.0810872509202
30
0.0
11
117.708550974133
21
54.0810872509202
31
0.0
  0
LINE
 8
base
10
115.208550974133
20
49.7509602319981
30
0.0
11
116.940601781702
21
48.7509602319981
31
0.0
  0
LINE
 8
base
10
120.208550974133
20
58.4112142698424
30
0.0
11
121.940601781702
21
57.4112142698425
31
0.0
  0
LINE
 8
base
10
111.940601781702
20
40.0907061941536
30
0.0
11
114.440601781702
21
44.4208332130759
31
0.0
  0
LINE
 8
base
10
130.208550974133
20
75.7317223455312
30
0.0
11
131.940601781702
21
74.7317223455312
31
0.0
  0
LINE
 8
base
10
129.440601781702
20
70.401595326609
30
0.0
11
127.708550974133
21
71.401595326609
31
0.0
  0
LINE
 8
base
10
167.708550974133
20
140.683627629364
30
0.0
11
165.208550974133
21
136.353500610442
31
0.0
  0
LINE
 8
base
10
124.440601781702
20
61.7413412887647
30
0.0
11
122.708550974133
21
62.7413412887647
31
0.0
  0
LINE
 8
base
10
132.708550974133
20
80.0618493644535
30
0.0
11
130.208550974133
21
75.7317223455312
31
0.0
  0
LINE
 8
base
10
165.208550974133
20
136.353500610442
30
0.0
11
166.940601781702
21
135.353500610442
31
0.0
  0
LINE
 8
base
10
137.708550974133
20
88.7221034022978
30
0.0
11
135.208550974133
21
84.3919763833756
31
0.0
  0
LINE
 8
base
10
136.940601781702
20
83.3919763833756
30
0.0
11
139.440601781702
21
87.7221034022978
31
0.0
  0
LINE
 8
base
10
142.708550974133
20
97.3823574401422
30
0.0
11
140.208550974133
21
93.05223042122
31
0.0
  0
LINE
 8
base
10
141.940601781702
20
92.05223042122
30
0.0
11
144.440601781702
21
96.3823574401422
31
0.0
  0
LINE
 8
base
10
147.708550974133
20
106.042611477987
30
0.0
11
145.208550974133
21
101.712484459064
31
0.0
  0
LINE
 8
base
10
146.940601781702
20
100.712484459064
30
0.0
11
149.440601781702
21
105.042611477987
31
0.0
  0
LINE
 8
base
10
152.708550974133
20
114.702865515831
30
0.0
11
150.208550974133
21
110.372738496909
31
0.0
  0
LINE
 8
base
10
151.940601781702
20
109.372738496909
30
0.0
11
154.440601781702
21
113.702865515831
31
0.0
  0
LINE
 8
base
10
157.708550974133
20
123.363119553675
30
0.0
11
155.208550974133
21
119.032992534753
31
0.0
  0
LINE
 8
base
10
156.940601781702
20
118.032992534753
30
0.0
11
159.440601781702
21
122.363119553675
31
0.0
  0
LINE
 8
base
10
162.708550974133
20
132.02337359152
30
0.0
11
160.208550974133
21
127.693246572598
31
0.0
  0
LINE
 8
base
10
161.940601781702
20
126.693246572598
30
0.0
11
164.440601781702
21
131.02337359152
31
0.0
  0
LINE
 8
base
10
171.940601781702
20
144.013754648286
30
0.0
11
174.440601781702
21
148.343881667209
31
0.0
  0
LINE
 8
base
10
172.708550974133
20
149.343881667209
30
0.0
11
170.208550974133
21
145.013754648286
31
0.0
  0
LINE
 8
base
10
92.7085509741334
20
10.7798170616983
30
0.0
11
98.4820536660298
21
10.7798170616984
31
0.0
  0
LINE
 8
base
10
179.440601781702
20
157.004135705053
30
0.0
11
177.708550974133
21
158.004135705053
31
0.0
  0
LINE
 8
base
10
180.208550974133
20
162.334262723975
30
0.0
11
181.940601781702
21
161.334262723975
31
0.0
  0
LINE
 8
base
10
184.440601781702
20
165.664389742897
30
0.0
11
182.708550974133
21
166.664389742897
31
0.0
  0
LINE
 8
base
10
117.708550974133
20
287.907946272719
30
0.0
11
119.440601781702
21
288.907946272719
31
0.0
  0
LINE
 8
base
10
181.940601781702
20
161.334262723975
30
0.0
11
184.440601781702
21
165.664389742897
31
0.0
  0
LINE
 8
base
10
112.708550974133
20
296.568200310563
30
0.0
11
114.440601781702
21
297.568200310563
31
0.0
  0
LINE
 8
base
10
114.440601781702
20
297.568200310563
30
0.0
11
111.940601781702
21
301.898327329485
31
0.0
  0
LINE
 8
base
10
107.708550974133
20
305.228454348408
30
0.0
11
109.440601781702
21
306.228454348408
31
0.0
  0
LINE
 8
base
10
109.440601781702
20
306.228454348408
30
0.0
11
106.940601781702
21
310.55858136733
31
0.0
  0
LINE
 8
base
10
102.708550974133
20
313.888708386252
30
0.0
11
104.440601781702
21
314.888708386252
31
0.0
  0
LINE
 8
base
10
104.440601781702
20
314.888708386252
30
0.0
11
101.940601781702
21
319.218835405174
31
0.0
  0
LINE
 8
base
10
97.7085509741334
20
322.548962424096
30
0.0
11
99.4406017817023
21
323.548962424096
31
0.0
  0
LINE
 8
base
10
99.4406017817023
20
323.548962424096
30
0.0
11
96.9406017817023
21
327.879089443018
31
0.0
  0
LINE
 8
base
10
95.2085509741334
20
326.879089443018
30
0.0
11
92.7085509741336
21
331.209216461941
31
0.0
  0
LINE
 8
base
10
-102.291449025866
20
313.888708386252
30
0.0
11
-104.791449025866
21
309.55858136733
31
0.0
  0
LINE
 8
base
10
-109.023499833435
20
306.228454348407
30
0.0
11
-107.291449025866
21
305.228454348407
31
0.0
  0
LINE
 8
base
10
-101.523499833435
20
319.218835405174
30
0.0
11
-104.023499833435
21
314.888708386252
31
0.0
  0
LINE
 8
base
10
-114.023499833435
20
297.568200310563
30
0.0
11
-112.291449025866
21
296.568200310563
31
0.0
  0
LINE
 8
base
10
-107.291449025866
20
305.228454348407
30
0.0
11
-109.791449025866
21
300.898327329485
31
0.0
  0
LINE
 8
base
10
-119.023499833435
20
288.907946272719
30
0.0
11
-117.291449025866
21
287.907946272719
31
0.0
  0
LINE
 8
base
10
-112.291449025866
20
296.568200310563
30
0.0
11
-114.791449025866
21
292.238073291641
31
0.0
  0
LINE
 8
base
10
-124.023499833435
20
280.247692234874
30
0.0
11
-122.291449025866
21
279.247692234874
31
0.0
  0
LINE
 8
base
10
-117.291449025866
20
287.907946272719
30
0.0
11
-119.791449025866
21
283.577819253796
31
0.0
  0
LINE
 8
base
10
-129.023499833435
20
271.58743819703
30
0.0
11
-127.291449025866
21
270.58743819703
31
0.0
  0
LINE
 8
base
10
-122.291449025866
20
279.247692234874
30
0.0
11
-124.791449025866
21
274.917565215952
31
0.0
  0
LINE
 8
base
10
-131.523499833435
20
267.257311178108
30
0.0
11
-134.023499833435
21
262.927184159185
31
0.0
  0
LINE
 8
base
10
-124.791449025866
20
274.917565215952
30
0.0
11
-126.523499833435
21
275.917565215952
31
0.0
  0
LINE
 8
base
10
-136.523499833435
20
258.597057140263
30
0.0
11
-139.023499833435
21
254.266930121341
31
0.0
  0
LINE
 8
base
10
-129.791449025866
20
266.257311178108
30
0.0
11
-131.523499833435
21
267.257311178108
31
0.0
  0
LINE
 8
base
10
-137.291449025866
20
253.266930121341
30
0.0
11
-139.791449025866
21
248.936803102419
31
0.0
  0
LINE
 8
base
10
-139.023499833435
20
254.266930121341
30
0.0
11
-137.291449025866
21
253.266930121341
31
0.0
  0
LINE
 8
base
10
-149.791449025866
20
231.61629502673
30
0.0
11
-151.523499833435
21
232.61629502673
31
0.0
  0
LINE
 8
base
10
120.208550974133
20
283.577819253797
30
0.0
11
117.708550974133
21
287.907946272719
31
0.0
  0
LINE
 8
base
10
-144.023499833435
20
245.606676083497
30
0.0
11
-142.291449025866
21
244.606676083497
31
0.0
  0
LINE
 8
base
10
-142.291449025866
20
244.606676083497
30
0.0
11
-144.791449025866
21
240.276549064575
31
0.0
  0
LINE
 8
base
10
-149.023499833435
20
236.946422045652
30
0.0
11
-147.291449025866
21
235.946422045652
31
0.0
  0
LINE
 8
base
10
-151.523499833435
20
232.61629502673
30
0.0
11
-154.023499833435
21
228.286168007808
31
0.0
  0
LINE
 8
base
10
96.9406017817024
20
14.1099440806205
30
0.0
11
99.4406017817024
21
18.4400710995427
31
0.0
  0
LINE
 8
base
10
-147.291449025866
20
235.946422045652
30
0.0
11
-149.791449025866
21
231.61629502673
31
0.0
  0
LINE
 8
base
10
101.940601781702
20
22.7701981184649
30
0.0
11
104.440601781702
21
27.1003251373871
31
0.0
  0
LINE
 8
base
10
105.208550974134
20
32.4304521563093
30
0.0
11
106.940601781702
21
31.4304521563093
31
0.0
  0
LINE
 8
base
10
110.208550974133
20
41.0907061941537
30
0.0
11
111.940601781702
21
40.0907061941536
31
0.0
  0
LINE
 8
base
10
-96.5234998334353
20
327.879089443018
30
0.0
11
-99.0234998334353
21
323.548962424096
31
0.0
  0
LINE
 8
base
10
-99.0234998334353
20
323.548962424096
30
0.0
11
-97.2914490258664
21
322.548962424096
31
0.0
  0
LINE
 8
base
10
-94.7914490258664
20
326.879089443018
30
0.0
11
-96.5234998334353
21
327.879089443018
31
0.0
  0
LINE
 8
base
10
-164.023499833435
20
210.965659932119
30
0.0
11
-162.291449025866
21
209.965659932119
31
0.0
  0
LINE
 8
base
10
-169.023499833435
20
202.305405894275
30
0.0
11
-167.291449025866
21
201.305405894275
31
0.0
  0
LINE
 8
base
10
-162.291449025866
20
209.965659932119
30
0.0
11
-164.791449025866
21
205.635532913197
31
0.0
  0
LINE
 8
base
10
-167.291449025866
20
201.305405894275
30
0.0
11
-169.791449025866
21
196.975278875353
31
0.0
  0
LINE
 8
base
10
-172.291449025866
20
192.64515185643
30
0.0
11
-174.791449025866
21
188.315024837508
31
0.0
  0
LINE
 8
base
10
-174.023499833435
20
193.64515185643
30
0.0
11
-172.291449025866
21
192.64515185643
31
0.0
  0
LINE
 8
base
10
-177.291449025866
20
183.984897818586
30
0.0
11
-179.791449025866
21
179.654770799664
31
0.0
  0
LINE
 8
base
10
-184.023499833435
20
176.324643780742
30
0.0
11
-182.291449025866
21
175.324643780742
31
0.0
  0
LINE
 8
base
10
-179.023499833435
20
184.984897818586
30
0.0
11
-177.291449025866
21
183.984897818586
31
0.0
  0
LINE
 8
base
10
-161.523499833435
20
215.295786951041
30
0.0
11
-164.023499833435
21
210.965659932119
31
0.0
  0
LINE
 8
base
10
-159.023499833435
20
219.625913969964
30
0.0
11
-157.291449025866
21
218.625913969964
31
0.0
  0
LINE
 8
base
10
-159.791449025866
20
214.295786951041
30
0.0
11
-161.523499833435
21
215.295786951041
31
0.0
  0
LINE
 8
base
10
-164.791449025866
20
205.635532913197
30
0.0
11
-166.523499833435
21
206.635532913197
31
0.0
  0
LINE
 8
base
10
-166.523499833435
20
206.635532913197
30
0.0
11
-169.023499833435
21
202.305405894275
31
0.0
  0
LINE
 8
base
10
-169.791449025866
20
196.975278875353
30
0.0
11
-171.523499833435
21
197.975278875352
31
0.0
  0
LINE
 8
base
10
-171.523499833435
20
197.975278875352
30
0.0
11
-174.023499833435
21
193.64515185643
31
0.0
  0
LINE
 8
base
10
-174.791449025866
20
188.315024837508
30
0.0
11
-176.523499833435
21
189.315024837508
31
0.0
  0
LINE
 8
base
10
-176.523499833435
20
189.315024837508
30
0.0
11
-179.023499833435
21
184.984897818586
31
0.0
  0
LINE
 8
base
10
-179.791449025866
20
179.654770799664
30
0.0
11
-181.523499833435
21
180.654770799664
31
0.0
  0
LINE
 8
base
10
-181.523499833435
20
180.654770799664
30
0.0
11
-184.023499833435
21
176.324643780742
31
0.0
  0
LINE
 8
base
10
-182.291449025866
20
175.324643780742
30
0.0
11
-184.791449025866
21
170.99451676182
31
0.0
  0
LINE
 8
base
10
-157.291449025866
20
218.625913969964
30
0.0
11
-159.791449025866
21
214.295786951041
31
0.0
  0
LINE
 8
base
10
608.606934310126
20
253.266930121341
30
0.0
11
610.338985117696
21
254.266930121341
31
0.0
  0
LINE
 8
base
10
348.606934310128
20
279.247692234873
30
0.0
11
351.106934310128
21
283.577819253796
31
0.0
  0
LINE
 8
base
10
657.551480315936
20
172.347002883704
30
0.0
11
657.905294672467
21
172.90797436602
31
0.0
  0
LINE
 8
base
10
593.606934310128
20
279.247692234874
30
0.0
11
595.338985117697
21
280.247692234874
31
0.0
  0
LINE
 8
base
10
657.905294672467
20
172.90797436602
30
0.0
11
658.184726491386
21
173.509465397901
31
0.0
  0
LINE
 8
base
10
291.874883502559
20
184.984897818586
30
0.0
11
293.606934310128
21
183.984897818587
31
0.0
  0
LINE
 8
base
10
301.106934310127
20
196.975278875352
30
0.0
11
299.374883502559
21
197.975278875353
31
0.0
  0
LINE
 8
base
10
336.874883502559
20
262.927184159185
30
0.0
11
338.606934310127
21
261.927184159185
31
0.0
  0
LINE
 8
base
10
344.374883502559
20
275.917565215951
30
0.0
11
341.874883502559
21
271.58743819703
31
0.0
  0
LINE
 8
base
10
311.106934310127
20
214.295786951041
30
0.0
11
309.37488350256
21
215.295786951042
31
0.0
  0
LINE
 8
base
10
369.374883502558
20
319.218835405174
30
0.0
11
366.874883502559
21
314.888708386252
31
0.0
  0
LINE
 8
base
10
349.374883502559
20
284.577819253796
30
0.0
11
346.874883502558
21
280.247692234875
31
0.0
  0
LINE
 8
base
10
351.106934310128
20
283.577819253796
30
0.0
11
349.374883502559
21
284.577819253796
31
0.0
  0
LINE
 8
base
10
306.874883502559
20
210.965659932119
30
0.0
11
308.606934310128
21
209.965659932119
31
0.0
  0
LINE
 8
base
10
319.374883502559
20
232.61629502673
30
0.0
11
316.874883502559
21
228.286168007809
31
0.0
  0
LINE
 8
base
10
354.374883502559
20
293.238073291641
30
0.0
11
351.874883502559
21
288.907946272719
31
0.0
  0
LINE
 8
base
10
356.106934310127
20
292.23807329164
30
0.0
11
354.374883502559
21
293.238073291641
31
0.0
  0
LINE
 8
base
10
371.874883502558
20
323.548962424097
30
0.0
11
373.606934310127
21
322.548962424096
31
0.0
  0
LINE
 8
base
10
376.050651234656
20
331.809913418786
30
0.0
11
375.390028811438
21
331.751162956657
31
0.0
  0
LINE
 8
base
10
359.374883502558
20
301.898327329485
30
0.0
11
356.874883502559
21
297.568200310563
31
0.0
  0
LINE
 8
base
10
361.106934310129
20
300.898327329486
30
0.0
11
359.374883502558
21
301.898327329485
31
0.0
  0
LINE
 8
base
10
326.106934310128
20
240.276549064574
30
0.0
11
324.374883502558
21
241.276549064575
31
0.0
  0
LINE
 8
base
10
376.713373967404
20
331.783986938964
30
0.0
11
376.050651234656
21
331.809913418786
31
0.0
  0
LINE
 8
base
10
351.874883502559
20
288.907946272719
30
0.0
11
353.606934310127
21
287.907946272719
31
0.0
  0
LINE
 8
base
10
316.106934310128
20
222.956040988886
30
0.0
11
314.374883502558
21
223.956040988886
31
0.0
  0
LINE
 8
base
10
296.106934310128
20
188.315024837509
30
0.0
11
294.374883502559
21
189.315024837509
31
0.0
  0
LINE
 8
base
10
309.37488350256
20
215.295786951042
30
0.0
11
306.874883502559
21
210.965659932119
31
0.0
  0
LINE
 8
base
10
592.838985117696
20
284.577819253796
30
0.0
11
591.106934310127
21
283.577819253796
31
0.0
  0
LINE
 8
base
10
603.606934310127
20
261.927184159184
30
0.0
11
605.338985117696
21
262.927184159185
31
0.0
  0
LINE
 8
base
10
575.338985117696
20
314.888708386251
30
0.0
11
572.838985117695
21
319.218835405173
31
0.0
  0
LINE
 8
base
10
652.838985117696
20
180.654770799663
30
0.0
11
651.106934310126
21
179.654770799664
31
0.0
  0
LINE
 8
base
10
598.606934310126
20
270.58743819703
30
0.0
11
600.338985117695
21
271.58743819703
31
0.0
  0
LINE
 8
base
10
587.838985117696
20
293.23807329164
30
0.0
11
586.106934310127
21
292.238073291639
31
0.0
  0
LINE
 8
base
10
597.838985117696
20
275.917565215951
30
0.0
11
596.106934310127
21
274.917565215952
31
0.0
  0
LINE
 8
base
10
600.338985117695
20
271.58743819703
30
0.0
11
597.838985117696
21
275.917565215951
31
0.0
  0
LINE
 8
base
10
577.838985117696
20
310.558581367329
30
0.0
11
576.106934310127
21
309.558581367328
31
0.0
  0
LINE
 8
base
10
588.606934310128
20
287.907946272718
30
0.0
11
590.338985117696
21
288.907946272718
31
0.0
  0
LINE
 8
base
10
590.338985117696
20
288.907946272718
30
0.0
11
587.838985117696
21
293.23807329164
31
0.0
  0
LINE
 8
base
10
578.606934310128
20
305.228454348407
30
0.0
11
580.338985117696
21
306.228454348407
31
0.0
  0
LINE
 8
base
10
643.606934310127
20
192.64515185643
30
0.0
11
645.338985117696
21
193.645151856431
31
0.0
  0
LINE
 8
base
10
650.338985117695
20
184.984897818586
30
0.0
11
647.838985117695
21
189.315024837508
31
0.0
  0
LINE
 8
base
10
642.838985117696
20
197.975278875352
30
0.0
11
641.106934310127
21
196.975278875353
31
0.0
  0
LINE
 8
base
10
645.338985117696
20
193.645151856431
30
0.0
11
642.838985117696
21
197.975278875352
31
0.0
  0
LINE
 8
base
10
640.338985117696
20
202.305405894274
30
0.0
11
637.838985117695
21
206.635532913197
31
0.0
  0
LINE
 8
base
10
637.838985117695
20
206.635532913197
30
0.0
11
636.106934310127
21
205.635532913198
31
0.0
  0
LINE
 8
base
10
638.606934310127
20
201.305405894275
30
0.0
11
640.338985117696
21
202.305405894274
31
0.0
  0
LINE
 8
base
10
632.838985117695
20
215.295786951041
30
0.0
11
631.106934310127
21
214.295786951042
31
0.0
  0
LINE
 8
base
10
627.838985117695
20
223.956040988886
30
0.0
11
626.106934310126
21
222.956040988885
31
0.0
  0
LINE
 8
base
10
633.606934310127
20
209.965659932119
30
0.0
11
635.338985117697
21
210.965659932119
31
0.0
  0
LINE
 8
base
10
635.338985117697
20
210.965659932119
30
0.0
11
632.838985117695
21
215.295786951041
31
0.0
  0
LINE
 8
base
10
628.606934310127
20
218.625913969963
30
0.0
11
630.338985117696
21
219.625913969963
31
0.0
  0
LINE
 8
base
10
623.606934310126
20
227.286168007807
30
0.0
11
625.338985117695
21
228.286168007807
31
0.0
  0
LINE
 8
base
10
630.338985117696
20
219.625913969963
30
0.0
11
627.838985117695
21
223.956040988886
31
0.0
  0
LINE
 8
base
10
622.838985117696
20
232.616295026731
30
0.0
11
621.106934310127
21
231.61629502673
31
0.0
  0
LINE
 8
base
10
625.338985117695
20
228.286168007807
30
0.0
11
622.838985117696
21
232.616295026731
31
0.0
  0
LINE
 8
base
10
573.606934310127
20
313.888708386251
30
0.0
11
575.338985117696
21
314.888708386251
31
0.0
  0
LINE
 8
base
10
617.838985117696
20
241.276549064574
30
0.0
11
616.106934310126
21
240.276549064574
31
0.0
  0
LINE
 8
base
10
580.338985117696
20
306.228454348407
30
0.0
11
577.838985117696
21
310.558581367329
31
0.0
  0
LINE
 8
base
10
572.838985117695
20
319.218835405173
30
0.0
11
571.106934310127
21
318.218835405174
31
0.0
  0
LINE
 8
base
10
567.838985117696
20
327.879089443018
30
0.0
11
566.106934310126
21
326.879089443018
31
0.0
  0
LINE
 8
base
10
568.606934310127
20
322.548962424096
30
0.0
11
570.338985117695
21
323.548962424096
31
0.0
  0
LINE
 8
base
10
570.338985117695
20
323.548962424096
30
0.0
11
567.838985117696
21
327.879089443018
31
0.0
  0
LINE
 8
base
10
585.338985117696
20
297.568200310563
30
0.0
11
582.838985117695
21
301.898327329485
31
0.0
  0
LINE
 8
base
10
591.106934310127
20
283.577819253796
30
0.0
11
593.606934310128
21
279.247692234874
31
0.0
  0
LINE
 8
base
10
582.838985117695
20
301.898327329485
30
0.0
11
581.106934310128
21
300.898327329485
31
0.0
  0
LINE
 8
base
10
583.606934310126
20
296.568200310564
30
0.0
11
585.338985117696
21
297.568200310563
31
0.0
  0
LINE
 8
base
10
571.106934310127
20
318.218835405174
30
0.0
11
573.606934310127
21
313.888708386251
31
0.0
  0
LINE
 8
base
10
581.106934310128
20
300.898327329485
30
0.0
11
583.606934310126
21
296.568200310564
31
0.0
  0
LINE
 8
base
10
566.106934310126
20
326.879089443018
30
0.0
11
568.606934310127
21
322.548962424096
31
0.0
  0
LINE
 8
base
10
576.106934310127
20
309.558581367328
30
0.0
11
578.606934310128
21
305.228454348407
31
0.0
  0
LINE
 8
base
10
658.385218076254
20
174.141665308733
30
0.0
11
658.503499292028
21
174.794262548118
31
0.0
  0
LINE
 8
base
10
586.106934310127
20
292.238073291639
30
0.0
11
588.606934310128
21
287.907946272718
31
0.0
  0
LINE
 8
base
10
658.184726491386
20
173.509465397901
30
0.0
11
658.385218076254
21
174.141665308733
31
0.0
  0
LINE
 8
base
10
658.503499292028
20
174.794262548118
30
0.0
11
658.537640902883
21
175.456612873298
31
0.0
  0
LINE
 8
base
10
336.106934310127
20
257.597057140263
30
0.0
11
334.374883502558
21
258.597057140264
31
0.0
  0
LINE
 8
base
10
334.374883502558
20
258.597057140264
30
0.0
11
331.874883502559
21
254.266930121342
31
0.0
  0
LINE
 8
base
10
339.374883502558
20
267.257311178108
30
0.0
11
336.874883502559
21
262.927184159185
31
0.0
  0
LINE
 8
base
10
331.874883502559
20
254.266930121342
30
0.0
11
333.606934310127
21
253.266930121341
31
0.0
  0
LINE
 8
base
10
331.106934310128
20
248.93680310242
30
0.0
11
329.374883502559
21
249.936803102419
31
0.0
  0
LINE
 8
base
10
346.874883502558
20
280.247692234875
30
0.0
11
348.606934310128
21
279.247692234873
31
0.0
  0
LINE
 8
base
10
294.374883502559
20
189.315024837509
30
0.0
11
291.874883502559
21
184.984897818586
31
0.0
  0
LINE
 8
base
10
658.136553205336
20
177.394410729544
30
0.0
11
657.842292630803
21
177.98878798107
31
0.0
  0
LINE
 8
base
10
658.352659280295
20
176.767376625827
30
0.0
11
658.136553205336
21
177.394410729544
31
0.0
  0
LINE
 8
base
10
596.106934310127
20
274.917565215952
30
0.0
11
598.606934310126
21
270.58743819703
31
0.0
  0
LINE
 8
base
10
658.487086039172
20
176.117912962981
30
0.0
11
658.352659280295
21
176.767376625827
31
0.0
  0
LINE
 8
base
10
658.537640902883
20
175.456612873298
30
0.0
11
658.487086039172
21
176.117912962981
31
0.0
  0
LINE
 8
base
10
601.106934310126
20
266.257311178107
30
0.0
11
603.606934310127
21
261.927184159184
31
0.0
  0
LINE
 8
base
10
616.106934310126
20
240.276549064574
30
0.0
11
618.606934310127
21
235.946422045653
31
0.0
  0
LINE
 8
base
10
606.106934310126
20
257.597057140263
30
0.0
11
608.606934310126
21
253.266930121341
31
0.0
  0
LINE
 8
base
10
611.106934310127
20
248.936803102418
30
0.0
11
613.606934310128
21
244.606676083496
31
0.0
  0
LINE
 8
base
10
621.106934310127
20
231.61629502673
30
0.0
11
623.606934310126
21
227.286168007807
31
0.0
  0
LINE
 8
base
10
631.106934310127
20
214.295786951042
30
0.0
11
633.606934310127
21
209.965659932119
31
0.0
  0
LINE
 8
base
10
646.106934310126
20
188.315024837508
30
0.0
11
648.606934310126
21
183.984897818586
31
0.0
  0
LINE
 8
base
10
626.106934310126
20
222.956040988885
30
0.0
11
628.606934310127
21
218.625913969963
31
0.0
  0
LINE
 8
base
10
636.106934310127
20
205.635532913198
30
0.0
11
638.606934310127
21
201.305405894275
31
0.0
  0
LINE
 8
base
10
657.129054340938
20
171.835700724014
30
0.0
11
657.551480315936
21
172.347002883704
31
0.0
  0
LINE
 8
base
10
641.106934310127
20
196.975278875353
30
0.0
11
643.606934310127
21
192.64515185643
31
0.0
  0
LINE
 8
base
10
651.106934310126
20
179.654770799664
30
0.0
11
653.606934310127
21
175.324643780741
31
0.0
  0
LINE
 8
base
10
563.606934310127
20
331.209216461941
30
0.0
11
564.193517148301
21
331.498487105574
31
0.0
  0
LINE
 8
base
10
564.812839084614
20
331.708718574464
30
0.0
11
565.454303349027
21
331.836313749886
31
0.0
  0
LINE
 8
base
10
564.193517148301
20
331.498487105574
30
0.0
11
564.812839084614
21
331.708718574464
31
0.0
  0
LINE
 8
base
10
566.106934310126
20
331.879089443018
30
0.0
11
566.759565271227
21
331.836313749886
31
0.0
  0
LINE
 8
base
10
565.454303349027
20
331.836313749886
30
0.0
11
566.106934310126
21
331.879089443018
31
0.0
  0
LINE
 8
base
10
568.020351471952
20
331.498487105575
30
0.0
11
568.606934310126
21
331.209216461941
31
0.0
  0
LINE
 8
base
10
566.759565271227
20
331.836313749886
30
0.0
11
567.40102953564
21
331.708718574464
31
0.0
  0
LINE
 8
base
10
567.40102953564
20
331.708718574464
30
0.0
11
568.020351471952
21
331.498487105575
31
0.0
  0
LINE
 8
base
10
568.606934310126
20
331.209216461941
30
0.0
11
569.15074145517
21
330.845856144474
31
0.0
  0
LINE
 8
base
10
570.073701011583
20
329.922896588061
30
0.0
11
570.43706132905
21
329.379089443017
31
0.0
  0
LINE
 8
base
10
569.15074145517
20
330.845856144474
30
0.0
11
569.642468216059
21
330.41462334895
31
0.0
  0
LINE
 8
base
10
569.642468216059
20
330.41462334895
30
0.0
11
570.073701011583
21
329.922896588061
31
0.0
  0
LINE
 8
base
10
570.43706132905
20
329.379089443017
30
0.0
11
657.842292630803
21
177.98878798107
31
0.0
  0
LINE
 8
base
10
656.106934310126
20
170.994516761819
30
0.0
11
656.644906762252
21
171.382407524293
31
0.0
  0
LINE
 8
base
10
656.644906762252
20
171.382407524293
30
0.0
11
657.129054340938
21
171.835700724014
31
0.0
  0
LINE
 8
base
10
363.606934310127
20
305.228454348408
30
0.0
11
366.106934310127
21
309.55858136733
31
0.0
  0
LINE
 8
base
10
358.606934310127
20
296.568200310562
30
0.0
11
361.106934310129
21
300.898327329486
31
0.0
  0
LINE
 8
base
10
377.367387614206
20
331.673806393242
30
0.0
11
376.713373967404
21
331.783986938964
31
0.0
  0
LINE
 8
base
10
373.606934310127
20
322.548962424096
30
0.0
11
376.106934310128
21
326.879089443018
31
0.0
  0
LINE
 8
base
10
285.563127165084
20
171.357877079285
30
0.0
11
285.071400404195
21
171.789109874809
31
0.0
  0
LINE
 8
base
10
286.106934310128
20
170.994516761819
30
0.0
11
285.563127165084
21
171.357877079285
31
0.0
  0
LINE
 8
base
10
285.071400404195
20
171.789109874809
30
0.0
11
284.640167608672
21
172.280836635699
31
0.0
  0
LINE
 8
base
10
284.276807291206
20
172.824643780742
30
0.0
11
283.987536647571
21
173.411226618916
31
0.0
  0
LINE
 8
base
10
283.987536647571
20
173.411226618916
30
0.0
11
283.777305178683
21
174.03054855523
31
0.0
  0
LINE
 8
base
10
284.640167608672
20
172.280836635699
30
0.0
11
284.276807291206
21
172.824643780742
31
0.0
  0
LINE
 8
base
10
283.649710003259
20
174.672012819642
30
0.0
11
283.606934310129
21
175.324643780742
31
0.0
  0
LINE
 8
base
10
283.777305178683
20
174.03054855523
30
0.0
11
283.649710003259
21
174.672012819642
31
0.0
  0
LINE
 8
base
10
283.649710003259
20
175.977274741842
30
0.0
11
283.777305178682
21
176.618739006254
31
0.0
  0
LINE
 8
base
10
283.606934310129
20
175.324643780742
30
0.0
11
283.649710003259
21
175.977274741842
31
0.0
  0
LINE
 8
base
10
283.987536647572
20
177.238060942567
30
0.0
11
284.276807291205
21
177.824643780743
31
0.0
  0
LINE
 8
base
10
283.777305178682
20
176.618739006254
30
0.0
11
283.987536647572
21
177.238060942567
31
0.0
  0
LINE
 8
base
10
378.002024829869
20
331.48116889078
30
0.0
11
377.367387614206
21
331.673806393242
31
0.0
  0
LINE
 8
base
10
284.276807291205
20
177.824643780743
30
0.0
11
371.68203859296
21
329.214945242689
31
0.0
  0
LINE
 8
base
10
378.606934310128
20
331.20921646194
30
0.0
11
378.002024829869
21
331.48116889078
31
0.0
  0
LINE
 8
base
10
371.106934310127
20
318.218835405174
30
0.0
11
369.374883502558
21
319.218835405174
31
0.0
  0
LINE
 8
base
10
329.374883502559
20
249.936803102419
30
0.0
11
326.874883502558
21
245.606676083497
31
0.0
  0
LINE
 8
base
10
376.106934310128
20
326.879089443018
30
0.0
11
374.374883502559
21
327.879089443018
31
0.0
  0
LINE
 8
base
10
326.874883502558
20
245.606676083497
30
0.0
11
328.606934310128
21
244.606676083497
31
0.0
  0
LINE
 8
base
10
321.874883502559
20
236.946422045652
30
0.0
11
323.606934310128
21
235.946422045652
31
0.0
  0
LINE
 8
base
10
324.374883502558
20
241.276549064575
30
0.0
11
321.874883502559
21
236.946422045652
31
0.0
  0
LINE
 8
base
10
314.374883502558
20
223.956040988886
30
0.0
11
311.874883502559
21
219.625913969964
31
0.0
  0
LINE
 8
base
10
648.606934310126
20
183.984897818586
30
0.0
11
650.338985117695
21
184.984897818586
31
0.0
  0
LINE
 8
base
10
653.606934310127
20
175.324643780741
30
0.0
11
655.338985117696
21
176.324643780741
31
0.0
  0
LINE
 8
base
10
607.838985117696
20
258.597057140263
30
0.0
11
606.106934310126
21
257.597057140263
31
0.0
  0
LINE
 8
base
10
375.390028811438
20
331.751162956657
30
0.0
11
374.742281835954
21
331.60869380698
31
0.0
  0
LINE
 8
base
10
353.606934310127
20
287.907946272719
30
0.0
11
356.106934310127
21
292.23807329164
31
0.0
  0
LINE
 8
base
10
343.606934310128
20
270.58743819703
30
0.0
11
346.106934310128
21
274.917565215952
31
0.0
  0
LINE
 8
base
10
308.606934310128
20
209.965659932119
30
0.0
11
311.106934310127
21
214.295786951041
31
0.0
  0
LINE
 8
base
10
374.117975440319
20
331.384829724938
30
0.0
11
373.52729242708
21
331.083222064674
31
0.0
  0
LINE
 8
base
10
333.606934310127
20
253.266930121341
30
0.0
11
336.106934310127
21
257.597057140263
31
0.0
  0
LINE
 8
base
10
328.606934310128
20
244.606676083497
30
0.0
11
331.106934310128
21
248.93680310242
31
0.0
  0
LINE
 8
base
10
298.606934310127
20
192.645151856431
30
0.0
11
301.106934310127
21
196.975278875352
31
0.0
  0
LINE
 8
base
10
374.742281835954
20
331.60869380698
30
0.0
11
374.117975440319
21
331.384829724938
31
0.0
  0
LINE
 8
base
10
338.606934310127
20
261.927184159185
30
0.0
11
341.106934310129
21
266.257311178108
31
0.0
  0
LINE
 8
base
10
323.606934310128
20
235.946422045652
30
0.0
11
326.106934310128
21
240.276549064574
31
0.0
  0
LINE
 8
base
10
288.606934310128
20
175.324643780741
30
0.0
11
291.106934310127
21
179.654770799664
31
0.0
  0
LINE
 8
base
10
313.606934310127
20
218.625913969964
30
0.0
11
316.106934310128
21
222.956040988886
31
0.0
  0
LINE
 8
base
10
373.52729242708
20
331.083222064674
30
0.0
11
372.979867181747
21
330.708790223574
31
0.0
  0
LINE
 8
base
10
372.979867181747
20
330.708790223574
30
0.0
11
372.484628530326
21
330.267641404016
31
0.0
  0
LINE
 8
base
10
289.374883502559
20
180.654770799664
30
0.0
11
286.874883502558
21
176.324643780742
31
0.0
  0
LINE
 8
base
10
306.106934310128
20
205.635532913197
30
0.0
11
304.374883502558
21
206.635532913197
31
0.0
  0
LINE
 8
base
10
372.049654104948
20
329.766971001331
30
0.0
11
371.68203859296
21
329.214945242689
31
0.0
  0
LINE
 8
base
10
318.606934310127
20
227.286168007809
30
0.0
11
321.106934310127
21
231.616295026731
31
0.0
  0
LINE
 8
base
10
368.606934310128
20
313.888708386251
30
0.0
11
371.106934310127
21
318.218835405174
31
0.0
  0
LINE
 8
base
10
372.484628530326
20
330.267641404016
30
0.0
11
372.049654104948
21
329.766971001331
31
0.0
  0
LINE
 8
base
10
610.338985117696
20
254.266930121341
30
0.0
11
607.838985117696
21
258.597057140263
31
0.0
  0
LINE
 8
base
10
602.838985117696
20
267.257311178107
30
0.0
11
601.106934310126
21
266.257311178107
31
0.0
  0
LINE
 8
base
10
605.338985117696
20
262.927184159185
30
0.0
11
602.838985117696
21
267.257311178107
31
0.0
  0
LINE
 8
base
10
595.338985117697
20
280.247692234874
30
0.0
11
592.838985117696
21
284.577819253796
31
0.0
  0
LINE
 8
base
10
366.106934310127
20
309.55858136733
30
0.0
11
364.374883502559
21
310.558581367329
31
0.0
  0
LINE
 8
base
10
299.374883502559
20
197.975278875353
30
0.0
11
296.874883502559
21
193.645151856431
31
0.0
  0
LINE
 8
base
10
341.106934310129
20
266.257311178108
30
0.0
11
339.374883502558
21
267.257311178108
31
0.0
  0
LINE
 8
base
10
374.374883502559
20
327.879089443018
30
0.0
11
371.874883502558
21
323.548962424097
31
0.0
  0
LINE
 8
base
10
311.874883502559
20
219.625913969964
30
0.0
11
313.606934310127
21
218.625913969964
31
0.0
  0
LINE
 8
base
10
366.874883502559
20
314.888708386252
30
0.0
11
368.606934310128
21
313.888708386251
31
0.0
  0
LINE
 8
base
10
346.106934310128
20
274.917565215952
30
0.0
11
344.374883502559
21
275.917565215951
31
0.0
  0
LINE
 8
base
10
341.874883502559
20
271.58743819703
30
0.0
11
343.606934310128
21
270.58743819703
31
0.0
  0
LINE
 8
base
10
356.874883502559
20
297.568200310563
30
0.0
11
358.606934310127
21
296.568200310562
31
0.0
  0
LINE
 8
base
10
364.374883502559
20
310.558581367329
30
0.0
11
361.874883502559
21
306.228454348406
31
0.0
  0
LINE
 8
base
10
303.606934310128
20
201.305405894275
30
0.0
11
306.106934310128
21
205.635532913197
31
0.0
  0
LINE
 8
base
10
286.874883502558
20
176.324643780742
30
0.0
11
288.606934310128
21
175.324643780741
31
0.0
  0
LINE
 8
base
10
301.874883502559
20
202.305405894275
30
0.0
11
303.606934310128
21
201.305405894275
31
0.0
  0
LINE
 8
base
10
321.106934310127
20
231.616295026731
30
0.0
11
319.374883502559
21
232.61629502673
31
0.0
  0
LINE
 8
base
10
316.874883502559
20
228.286168007809
30
0.0
11
318.606934310127
21
227.286168007809
31
0.0
  0
LINE
 8
base
10
296.874883502559
20
193.645151856431
30
0.0
11
298.606934310127
21
192.645151856431
31
0.0
  0
LINE
 8
base
10
304.374883502558
20
206.635532913197
30
0.0
11
301.874883502559
21
202.305405894275
31
0.0
  0
LINE
 8
base
10
293.606934310128
20
183.984897818587
30
0.0
11
296.106934310128
21
188.315024837509
31
0.0
  0
LINE
 8
base
10
361.874883502559
20
306.228454348406
30
0.0
11
363.606934310127
21
305.228454348408
31
0.0
  0
LINE
 8
base
10
291.106934310127
20
179.654770799664
30
0.0
11
289.374883502559
21
180.654770799664
31
0.0
  0
LINE
 8
base
10
575.566571758174
20
217.494516761819
30
0.0
11
578.164647969528
21
215.99451676182
31
0.0
  0
LINE
 8
base
10
578.164647969528
20
215.99451676182
30
0.0
11
577.16464796953
21
214.262465954253
31
0.0
  0
LINE
 8
base
10
455.549220650731
20
57.5118678692661
30
0.0
11
456.549220650731
21
55.7798170616972
31
0.0
  0
LINE
 8
base
10
447.888966612886
20
50.7798170616973
30
0.0
11
452.219093631808
21
53.2798170616973
31
0.0
  0
LINE
 8
base
10
404.587696423664
20
25.7798170616973
30
0.0
11
408.917823442587
21
28.2798170616973
31
0.0
  0
LINE
 8
base
10
451.219093631809
20
55.0118678692661
30
0.0
11
455.549220650731
21
57.5118678692661
31
0.0
  0
LINE
 8
base
10
443.558839593964
20
48.2798170616973
30
0.0
11
442.558839593964
21
50.0118678692661
31
0.0
  0
LINE
 8
base
10
446.888966612886
20
52.5118678692661
30
0.0
11
447.888966612886
21
50.7798170616973
31
0.0
  0
LINE
 8
base
10
439.228712575042
20
45.7798170616973
30
0.0
11
443.558839593964
21
48.2798170616973
31
0.0
  0
LINE
 8
base
10
442.558839593964
20
50.0118678692661
30
0.0
11
446.888966612886
21
52.5118678692661
31
0.0
  0
LINE
 8
base
10
434.89858555612
20
43.2798170616973
30
0.0
11
433.89858555612
21
45.0118678692661
31
0.0
  0
LINE
 8
base
10
438.228712575042
20
47.5118678692661
30
0.0
11
439.228712575042
21
45.7798170616973
31
0.0
  0
LINE
 8
base
10
430.568458537198
20
40.7798170616973
30
0.0
11
434.89858555612
21
43.2798170616973
31
0.0
  0
LINE
 8
base
10
433.89858555612
20
45.0118678692661
30
0.0
11
438.228712575042
21
47.5118678692661
31
0.0
  0
LINE
 8
base
10
426.238331518275
20
38.2798170616973
30
0.0
11
425.238331518275
21
40.0118678692661
31
0.0
  0
LINE
 8
base
10
429.568458537198
20
42.5118678692661
30
0.0
11
430.568458537198
21
40.7798170616973
31
0.0
  0
LINE
 8
base
10
421.908204499353
20
35.7798170616973
30
0.0
11
426.238331518275
21
38.2798170616973
31
0.0
  0
LINE
 8
base
10
425.238331518275
20
40.0118678692661
30
0.0
11
429.568458537198
21
42.5118678692661
31
0.0
  0
LINE
 8
base
10
420.908204499353
20
37.5118678692661
30
0.0
11
421.908204499353
21
35.7798170616973
31
0.0
  0
LINE
 8
base
10
387.267188347976
20
15.7798170616973
30
0.0
11
391.597315366898
21
18.2798170616973
31
0.0
  0
LINE
 8
base
10
417.578077480431
20
33.2798170616973
30
0.0
11
416.578077480431
21
35.0118678692662
31
0.0
  0
LINE
 8
base
10
391.597315366898
20
18.2798170616973
30
0.0
11
390.597315366898
21
20.0118678692662
31
0.0
  0
LINE
 8
base
10
394.92744238582
20
22.5118678692662
30
0.0
11
395.92744238582
21
20.7798170616973
31
0.0
  0
LINE
 8
base
10
403.587696423664
20
27.5118678692662
30
0.0
11
404.587696423664
21
25.7798170616973
31
0.0
  0
LINE
 8
base
10
413.247950461509
20
30.7798170616973
30
0.0
11
417.578077480431
21
33.2798170616973
31
0.0
  0
LINE
 8
base
10
408.917823442587
20
28.2798170616973
30
0.0
11
407.917823442587
21
30.0118678692662
31
0.0
  0
LINE
 8
base
10
412.247950461509
20
32.5118678692662
30
0.0
11
413.247950461509
21
30.7798170616973
31
0.0
  0
LINE
 8
base
10
356.388966612886
20
209.262465954249
30
0.0
11
355.388966612886
21
210.994516761817
31
0.0
  0
LINE
 8
base
10
390.597315366898
20
20.0118678692662
30
0.0
11
394.92744238582
21
22.5118678692662
31
0.0
  0
LINE
 8
base
10
360.719093631808
20
211.762465954249
30
0.0
11
365.04922065073
21
214.262465954249
31
0.0
  0
LINE
 8
base
10
312.087696423664
20
185.994516761817
30
0.0
11
316.417823442586
21
188.494516761817
31
0.0
  0
LINE
 8
base
10
395.92744238582
20
20.7798170616973
30
0.0
11
400.257569404742
21
23.2798170616973
31
0.0
  0
LINE
 8
base
10
452.219093631808
20
53.2798170616973
30
0.0
11
451.219093631809
21
55.0118678692661
31
0.0
  0
LINE
 8
base
10
355.388966612886
20
210.994516761817
30
0.0
11
359.719093631808
21
213.494516761817
31
0.0
  0
LINE
 8
base
10
400.257569404742
20
23.2798170616973
30
0.0
11
399.257569404742
21
25.0118678692662
31
0.0
  0
LINE
 8
base
10
365.04922065073
20
214.262465954249
30
0.0
11
364.04922065073
21
215.994516761817
31
0.0
  0
LINE
 8
base
10
416.578077480431
20
35.0118678692662
30
0.0
11
420.908204499353
21
37.5118678692661
31
0.0
  0
LINE
 8
base
10
407.917823442587
20
30.0118678692662
30
0.0
11
412.247950461509
21
32.5118678692662
31
0.0
  0
LINE
 8
base
10
399.257569404742
20
25.0118678692662
30
0.0
11
403.587696423664
21
27.5118678692662
31
0.0
  0
LINE
 8
base
10
351.058839593963
20
208.494516761817
30
0.0
11
352.058839593963
21
206.762465954249
31
0.0
  0
LINE
 8
base
10
346.728712575041
20
205.994516761817
30
0.0
11
351.058839593963
21
208.494516761817
31
0.0
  0
LINE
 8
base
10
352.058839593963
20
206.762465954249
30
0.0
11
356.388966612886
21
209.262465954249
31
0.0
  0
LINE
 8
base
10
342.398585556119
20
203.494516761817
30
0.0
11
343.398585556119
21
201.762465954249
31
0.0
  0
LINE
 8
base
10
347.728712575041
20
204.262465954249
30
0.0
11
346.728712575041
21
205.994516761817
31
0.0
  0
LINE
 8
base
10
338.068458537197
20
200.994516761817
30
0.0
11
342.398585556119
21
203.494516761817
31
0.0
  0
LINE
 8
base
10
343.398585556119
20
201.762465954249
30
0.0
11
347.728712575041
21
204.262465954249
31
0.0
  0
LINE
 8
base
10
333.738331518275
20
198.494516761817
30
0.0
11
334.738331518275
21
196.762465954249
31
0.0
  0
LINE
 8
base
10
339.068458537197
20
199.262465954249
30
0.0
11
338.068458537197
21
200.994516761817
31
0.0
  0
LINE
 8
base
10
329.408204499353
20
195.994516761817
30
0.0
11
333.738331518275
21
198.494516761817
31
0.0
  0
LINE
 8
base
10
334.738331518275
20
196.762465954249
30
0.0
11
339.068458537197
21
199.262465954249
31
0.0
  0
LINE
 8
base
10
330.408204499352
20
194.262465954249
30
0.0
11
329.408204499353
21
195.994516761817
31
0.0
  0
LINE
 8
base
10
294.767188347975
20
175.994516761817
30
0.0
11
299.097315366897
21
178.494516761817
31
0.0
  0
LINE
 8
base
10
325.07807748043
20
193.494516761817
30
0.0
11
326.07807748043
21
191.762465954249
31
0.0
  0
LINE
 8
base
10
299.097315366897
20
178.494516761817
30
0.0
11
300.097315366897
21
176.762465954249
31
0.0
  0
LINE
 8
base
10
304.427442385819
20
179.262465954249
30
0.0
11
303.427442385819
21
180.994516761817
31
0.0
  0
LINE
 8
base
10
313.087696423664
20
184.262465954249
30
0.0
11
312.087696423664
21
185.994516761817
31
0.0
  0
LINE
 8
base
10
320.747950461508
20
190.994516761817
30
0.0
11
325.07807748043
21
193.494516761817
31
0.0
  0
LINE
 8
base
10
316.417823442586
20
188.494516761817
30
0.0
11
317.417823442586
21
186.762465954249
31
0.0
  0
LINE
 8
base
10
321.747950461508
20
189.262465954249
30
0.0
11
320.747950461508
21
190.994516761817
31
0.0
  0
LINE
 8
base
10
300.097315366897
20
176.762465954249
30
0.0
11
304.427442385819
21
179.262465954249
31
0.0
  0
LINE
 8
base
10
303.427442385819
20
180.994516761817
30
0.0
11
307.757569404742
21
183.494516761817
31
0.0
  0
LINE
 8
base
10
359.719093631808
20
213.494516761817
30
0.0
11
360.719093631808
21
211.762465954249
31
0.0
  0
LINE
 8
base
10
364.04922065073
20
215.994516761817
30
0.0
11
366.64729686208
21
217.49451676182
31
0.0
  0
LINE
 8
base
10
307.757569404742
20
183.494516761817
30
0.0
11
308.757569404742
21
181.762465954249
31
0.0
  0
LINE
 8
base
10
326.07807748043
20
191.762465954249
30
0.0
11
330.408204499352
21
194.262465954249
31
0.0
  0
LINE
 8
base
10
317.417823442586
20
186.762465954249
30
0.0
11
321.747950461508
21
189.262465954249
31
0.0
  0
LINE
 8
base
10
308.757569404742
20
181.762465954249
30
0.0
11
313.087696423664
21
184.262465954249
31
0.0
  0
LINE
 8
base
10
291.437061329053
20
171.762465954249
30
0.0
11
295.767188347975
21
174.262465954249
31
0.0
  0
LINE
 8
base
10
286.106934310128
20
170.994516761819
30
0.0
11
290.437061329053
21
173.494516761817
31
0.0
  0
LINE
 8
base
10
295.767188347975
20
174.262465954249
30
0.0
11
294.767188347975
21
175.994516761817
31
0.0
  0
LINE
 8
base
10
290.437061329053
20
173.494516761817
30
0.0
11
291.437061329053
21
171.762465954249
31
0.0
  0
LINE
 8
base
10
381.937061329054
20
15.0118678692662
30
0.0
11
386.267188347976
21
17.5118678692662
31
0.0
  0
LINE
 8
base
10
378.606934310127
20
10.7798170616984
30
0.0
11
382.937061329054
21
13.2798170616973
31
0.0
  0
LINE
 8
base
10
386.267188347976
20
17.5118678692662
30
0.0
11
387.267188347976
21
15.7798170616973
31
0.0
  0
LINE
 8
base
10
382.937061329054
20
13.2798170616973
30
0.0
11
381.937061329054
21
15.0118678692662
31
0.0
  0
LINE
 8
base
10
503.606934310127
20
236.20921646194
30
0.0
11
508.606934310128
21
236.20921646194
31
0.0
  0
LINE
 8
base
10
508.606934310128
20
238.20921646194
30
0.0
11
513.606934310128
21
238.20921646194
31
0.0
  0
LINE
 8
base
10
503.606934310127
20
238.20921646194
30
0.0
11
503.606934310127
21
236.20921646194
31
0.0
  0
LINE
 8
base
10
518.606934310127
20
236.20921646194
30
0.0
11
518.606934310127
21
238.20921646194
31
0.0
  0
LINE
 8
base
10
521.643587406599
20
197.862465954251
30
0.0
11
522.057800968972
21
198.180303199446
31
0.0
  0
LINE
 8
base
10
521.161225496804
20
197.662665109241
30
0.0
11
521.402406451702
21
197.762565531746
31
0.0
  0
LINE
 8
base
10
520.643587406599
20
197.59451676182
30
0.0
11
521.161225496804
21
197.662665109241
31
0.0
  0
LINE
 8
base
10
520.125949316394
20
197.662665109241
30
0.0
11
520.643587406599
21
197.59451676182
31
0.0
  0
LINE
 8
base
10
519.229373844226
20
198.180303199446
30
0.0
11
519.643587406599
21
197.862465954251
31
0.0
  0
LINE
 8
base
10
522.375638214168
20
200.59451676182
30
0.0
11
522.057800968972
21
201.008730324193
31
0.0
  0
LINE
 8
base
10
522.575439059177
20
199.076878671614
30
0.0
11
522.643587406599
21
199.594516761819
31
0.0
  0
LINE
 8
base
10
522.375638214168
20
198.59451676182
30
0.0
11
522.575439059177
21
199.076878671614
31
0.0
  0
LINE
 8
base
10
522.643587406599
20
199.594516761819
30
0.0
11
522.575439059177
21
200.112154852025
31
0.0
  0
LINE
 8
base
10
519.229373844226
20
201.008730324193
30
0.0
11
518.91153659903
21
200.59451676182
31
0.0
  0
LINE
 8
base
10
520.643587406599
20
201.59451676182
30
0.0
11
520.125949316394
21
201.526368414398
31
0.0
  0
LINE
 8
base
10
520.125949316394
20
201.526368414398
30
0.0
11
519.643587406599
21
201.326567569388
31
0.0
  0
LINE
 8
base
10
521.161225496804
20
201.526368414398
30
0.0
11
520.643587406599
21
201.59451676182
31
0.0
  0
LINE
 8
base
10
522.057800968972
20
201.008730324193
30
0.0
11
521.643587406599
21
201.326567569388
31
0.0
  0
LINE
 8
base
10
518.91153659903
20
200.59451676182
30
0.0
11
518.711735754021
21
200.112154852025
31
0.0
  0
LINE
 8
base
10
518.91153659903
20
198.59451676182
30
0.0
11
519.229373844226
21
198.180303199446
31
0.0
  0
LINE
 8
base
10
521.402406451702
20
197.762565531746
30
0.0
11
521.643587406599
21
197.862465954251
31
0.0
  0
LINE
 8
base
10
518.711735754021
20
199.076878671615
30
0.0
11
518.91153659903
21
198.59451676182
31
0.0
  0
LINE
 8
base
10
522.057800968972
20
198.180303199446
30
0.0
11
522.375638214168
21
198.59451676182
31
0.0
  0
LINE
 8
base
10
519.643587406599
20
201.326567569388
30
0.0
11
519.436480625413
21
201.167648946791
31
0.0
  0
LINE
 8
base
10
518.711735754021
20
200.112154852025
30
0.0
11
518.643587406599
21
199.59451676182
31
0.0
  0
LINE
 8
base
10
521.643587406599
20
201.326567569388
30
0.0
11
521.161225496804
21
201.526368414398
31
0.0
  0
LINE
 8
base
10
519.436480625413
20
201.167648946791
30
0.0
11
519.229373844226
21
201.008730324193
31
0.0
  0
LINE
 8
base
10
522.575439059177
20
200.112154852025
30
0.0
11
522.375638214168
21
200.59451676182
31
0.0
  0
LINE
 8
base
10
519.643587406599
20
197.862465954251
30
0.0
11
520.125949316394
21
197.662665109241
31
0.0
  0
LINE
 8
base
10
518.643587406599
20
199.59451676182
30
0.0
11
518.711735754021
21
199.076878671615
31
0.0
  0
LINE
 8
base
10
523.606934310128
20
236.20921646194
30
0.0
11
528.606934310128
21
236.20921646194
31
0.0
  0
LINE
 8
base
10
498.606934310128
20
238.20921646194
30
0.0
11
503.606934310127
21
238.20921646194
31
0.0
  0
LINE
 8
base
10
553.606934310128
20
236.20921646194
30
0.0
11
558.606934310128
21
236.20921646194
31
0.0
  0
LINE
 8
base
10
548.606934310127
20
236.20921646194
30
0.0
11
548.606934310127
21
238.20921646194
31
0.0
  0
LINE
 8
base
10
553.606934310128
20
238.20921646194
30
0.0
11
553.606934310128
21
236.20921646194
31
0.0
  0
LINE
 8
base
10
538.606934310128
20
238.20921646194
30
0.0
11
543.606934310128
21
238.20921646194
31
0.0
  0
LINE
 8
base
10
543.606934310128
20
236.20921646194
30
0.0
11
548.606934310127
21
236.20921646194
31
0.0
  0
LINE
 8
base
10
548.606934310127
20
238.20921646194
30
0.0
11
553.606934310128
21
238.20921646194
31
0.0
  0
LINE
 8
base
10
543.606934310128
20
238.20921646194
30
0.0
11
543.606934310128
21
236.20921646194
31
0.0
  0
LINE
 8
base
10
558.606934310128
20
236.20921646194
30
0.0
11
558.606934310128
21
238.20921646194
31
0.0
  0
LINE
 8
base
10
538.606934310128
20
236.20921646194
30
0.0
11
538.606934310128
21
238.20921646194
31
0.0
  0
LINE
 8
base
10
533.606934310127
20
238.20921646194
30
0.0
11
533.606934310127
21
236.20921646194
31
0.0
  0
LINE
 8
base
10
458.551048593953
20
172.468961131536
30
0.0
11
458.356934310127
21
172.494516761819
31
0.0
  0
LINE
 8
base
10
528.606934310128
20
238.20921646194
30
0.0
11
533.606934310127
21
238.20921646194
31
0.0
  0
LINE
 8
base
10
458.551048593954
20
169.520072392102
30
0.0
11
458.745162877782
21
169.545628022387
31
0.0
  0
LINE
 8
base
10
533.606934310127
20
236.20921646194
30
0.0
11
538.606934310128
21
236.20921646194
31
0.0
  0
LINE
 8
base
10
518.606934310127
20
238.20921646194
30
0.0
11
523.606934310128
21
238.20921646194
31
0.0
  0
LINE
 8
base
10
498.606934310128
20
236.20921646194
30
0.0
11
498.606934310128
21
238.20921646194
31
0.0
  0
LINE
 8
base
10
493.606934310128
20
238.20921646194
30
0.0
11
493.606934310128
21
236.20921646194
31
0.0
  0
LINE
 8
base
10
528.606934310128
20
236.20921646194
30
0.0
11
528.606934310128
21
238.20921646194
31
0.0
  0
LINE
 8
base
10
523.606934310128
20
238.20921646194
30
0.0
11
523.606934310128
21
236.20921646194
31
0.0
  0
LINE
 8
base
10
508.606934310128
20
236.20921646194
30
0.0
11
508.606934310128
21
238.20921646194
31
0.0
  0
LINE
 8
base
10
513.606934310128
20
236.20921646194
30
0.0
11
518.606934310127
21
236.20921646194
31
0.0
  0
LINE
 8
base
10
558.606934310128
20
238.20921646194
30
0.0
11
563.606934310127
21
238.209216461939
31
0.0
  0
LINE
 8
base
10
513.606934310128
20
238.20921646194
30
0.0
11
513.606934310128
21
236.20921646194
31
0.0
  0
LINE
 8
base
10
389.991161300326
20
233.130274545696
30
0.0
11
390.332887489284
21
233.392490272982
31
0.0
  0
LINE
 8
base
10
389.593212724745
20
232.965438848563
30
0.0
11
389.991161300326
21
233.130274545696
31
0.0
  0
LINE
 8
base
10
396.021888125761
20
235.00921646194
30
0.0
11
396.149023023839
21
234.843531036991
31
0.0
  0
LINE
 8
base
10
443.379347669653
20
88.5907061941522
30
0.0
11
440.879347669653
21
92.9208332130743
31
0.0
  0
LINE
 8
base
10
387.29510321657
20
233.73421646194
30
0.0
11
387.459938913703
21
234.132165037521
31
0.0
  0
LINE
 8
base
10
388.341161300326
20
233.130274545696
30
0.0
11
388.739109875907
21
232.965438848563
31
0.0
  0
LINE
 8
base
10
400.514708448789
20
234.716396138913
30
0.0
11
400.680393873738
21
234.843531036991
31
0.0
  0
LINE
 8
base
10
390.332887489284
20
233.392490272982
30
0.0
11
390.59510321657
21
233.73421646194
31
0.0
  0
LINE
 8
base
10
400.114708448789
20
234.60921646194
30
0.0
11
400.321763684871
21
234.636475800909
31
0.0
  0
LINE
 8
base
10
389.166161300326
20
232.90921646194
30
0.0
11
389.593212724745
21
232.965438848563
31
0.0
  0
LINE
 8
base
10
400.807528771816
20
235.00921646194
30
0.0
11
400.88744910982
21
235.202161225858
31
0.0
  0
LINE
 8
base
10
400.321763684871
20
234.636475800909
30
0.0
11
400.514708448789
21
234.716396138913
31
0.0
  0
LINE
 8
base
10
387.737219384082
20
233.73421646194
30
0.0
11
387.999435111368
21
233.392490272982
31
0.0
  0
LINE
 8
base
10
390.59510321657
20
233.73421646194
30
0.0
11
390.759938913703
21
234.132165037521
31
0.0
  0
LINE
 8
base
10
388.739109875907
20
232.965438848563
30
0.0
11
389.166161300326
21
232.90921646194
31
0.0
  0
LINE
 8
base
10
400.114708448789
20
234.60921646194
30
0.0
11
396.714708448789
21
234.60921646194
31
0.0
  0
LINE
 8
base
10
396.507653212707
20
234.636475800909
30
0.0
11
396.714708448789
21
234.60921646194
31
0.0
  0
LINE
 8
base
10
395.914708448789
20
235.40921646194
30
0.0
11
395.941967787758
21
235.202161225858
31
0.0
  0
LINE
 8
base
10
395.941967787758
20
235.202161225858
30
0.0
11
396.021888125761
21
235.00921646194
31
0.0
  0
LINE
 8
base
10
396.149023023839
20
234.843531036991
30
0.0
11
396.314708448789
21
234.716396138913
31
0.0
  0
LINE
 8
base
10
400.914708448789
20
236.20921646194
30
0.0
11
400.914708448789
21
235.40921646194
31
0.0
  0
LINE
 8
base
10
400.88744910982
20
235.202161225858
30
0.0
11
400.914708448789
21
235.40921646194
31
0.0
  0
LINE
 8
base
10
395.914708448789
20
235.40921646194
30
0.0
11
395.914708448789
21
236.20921646194
31
0.0
  0
LINE
 8
base
10
395.914708448789
20
236.20921646194
30
0.0
11
390.816161300326
21
236.20921646194
31
0.0
  0
LINE
 8
base
10
387.572383686949
20
234.132165037521
30
0.0
11
387.737219384082
21
233.73421646194
31
0.0
  0
LINE
 8
base
10
387.999435111368
20
233.392490272982
30
0.0
11
388.341161300326
21
233.130274545696
31
0.0
  0
LINE
 8
base
10
400.680393873738
20
234.843531036991
30
0.0
11
400.807528771816
21
235.00921646194
31
0.0
  0
LINE
 8
base
10
387.459938913703
20
234.132165037521
30
0.0
11
387.516161300326
21
234.55921646194
31
0.0
  0
LINE
 8
base
10
390.816161300326
20
236.20921646194
30
0.0
11
390.816161300326
21
234.55921646194
31
0.0
  0
LINE
 8
base
10
384.216161300326
20
234.55921646194
30
0.0
11
384.272383686949
21
234.132165037521
31
0.0
  0
LINE
 8
base
10
384.272383686949
20
234.132165037521
30
0.0
11
384.437219384082
21
233.73421646194
31
0.0
  0
LINE
 8
base
10
384.437219384082
20
233.73421646194
30
0.0
11
384.699435111368
21
233.392490272982
31
0.0
  0
LINE
 8
base
10
385.866161300326
20
232.90921646194
30
0.0
11
386.293212724745
21
232.965438848563
31
0.0
  0
LINE
 8
base
10
385.041161300326
20
233.130274545696
30
0.0
11
385.439109875907
21
232.965438848563
31
0.0
  0
LINE
 8
base
10
384.699435111368
20
233.392490272982
30
0.0
11
385.041161300326
21
233.130274545696
31
0.0
  0
LINE
 8
base
10
384.216161300326
20
236.20921646194
30
0.0
11
384.216161300326
21
234.55921646194
31
0.0
  0
LINE
 8
base
10
385.439109875907
20
232.965438848563
30
0.0
11
385.866161300326
21
232.90921646194
31
0.0
  0
LINE
 8
base
10
387.032887489284
20
233.392490272982
30
0.0
11
387.29510321657
21
233.73421646194
31
0.0
  0
LINE
 8
base
10
556.334520950609
20
188.183627629366
30
0.0
11
553.834520950609
21
183.853500610444
31
0.0
  0
LINE
 8
base
10
558.834520950608
20
192.513754648288
30
0.0
11
560.566571758177
21
191.513754648288
31
0.0
  0
LINE
 8
base
10
563.066571758177
20
195.843881667211
30
0.0
11
561.334520950609
21
196.843881667211
31
0.0
  0
LINE
 8
base
10
445.879347669652
20
84.26057917523
30
0.0
11
444.147296862084
21
83.26057917523
31
0.0
  0
LINE
 8
base
10
446.647296862084
20
78.9304521563076
30
0.0
11
448.379347669653
21
79.9304521563076
31
0.0
  0
LINE
 8
base
10
451.647296862084
20
70.2701981184632
30
0.0
11
453.379347669653
21
71.2701981184632
31
0.0
  0
LINE
 8
base
10
449.147296862084
20
74.6003251373854
30
0.0
11
446.647296862084
21
78.9304521563076
31
0.0
  0
LINE
 8
base
10
459.147296862081
20
57.2798170616982
30
0.0
11
456.647296862084
21
61.6099440806188
31
0.0
  0
LINE
 8
base
10
441.647296862084
20
87.5907061941522
30
0.0
11
443.379347669653
21
88.5907061941522
31
0.0
  0
LINE
 8
base
10
429.147296862084
20
109.241341288763
30
0.0
11
426.647296862084
21
113.571468307685
31
0.0
  0
LINE
 8
base
10
423.379347669652
20
123.23172234553
30
0.0
11
420.879347669652
21
127.561849364452
31
0.0
  0
LINE
 8
base
10
430.879347669653
20
110.241341288763
30
0.0
11
429.147296862084
21
109.241341288763
31
0.0
  0
LINE
 8
base
10
431.647296862084
20
104.911214269841
30
0.0
11
433.379347669653
21
105.911214269841
31
0.0
  0
LINE
 8
base
10
425.879347669652
20
118.901595326608
30
0.0
11
424.147296862084
21
117.901595326608
31
0.0
  0
LINE
 8
base
10
428.379347669652
20
114.571468307685
30
0.0
11
425.879347669652
21
118.901595326608
31
0.0
  0
LINE
 8
base
10
413.379347669652
20
140.552230421218
30
0.0
11
410.879347669652
21
144.882357440141
31
0.0
  0
LINE
 8
base
10
421.647296862084
20
122.23172234553
30
0.0
11
423.379347669652
21
123.23172234553
31
0.0
  0
LINE
 8
base
10
414.147296862084
20
135.222103402296
30
0.0
11
411.647296862084
21
139.552230421218
31
0.0
  0
LINE
 8
base
10
434.147296862084
20
100.581087250919
30
0.0
11
431.647296862084
21
104.911214269841
31
0.0
  0
LINE
 8
base
10
433.379347669653
20
105.911214269841
30
0.0
11
430.879347669653
21
110.241341288763
31
0.0
  0
LINE
 8
base
10
438.379347669653
20
97.2509602319965
30
0.0
11
435.879347669652
21
101.581087250919
31
0.0
  0
LINE
 8
base
10
436.647296862084
20
96.2509602319965
30
0.0
11
438.379347669653
21
97.2509602319965
31
0.0
  0
LINE
 8
base
10
439.147296862084
20
91.9208332130743
30
0.0
11
436.647296862084
21
96.2509602319965
31
0.0
  0
LINE
 8
base
10
410.879347669652
20
144.882357440141
30
0.0
11
409.147296862084
21
143.882357440141
31
0.0
  0
LINE
 8
base
10
411.647296862084
20
139.552230421218
30
0.0
11
413.379347669652
21
140.552230421218
31
0.0
  0
LINE
 8
base
10
415.879347669652
20
136.222103402296
30
0.0
11
414.147296862084
21
135.222103402296
31
0.0
  0
LINE
 8
base
10
418.379347669652
20
131.891976383374
30
0.0
11
415.879347669652
21
136.222103402296
31
0.0
  0
LINE
 8
base
10
419.147296862084
20
126.561849364452
30
0.0
11
416.647296862084
21
130.891976383374
31
0.0
  0
LINE
 8
base
10
416.647296862084
20
130.891976383374
30
0.0
11
418.379347669652
21
131.891976383374
31
0.0
  0
LINE
 8
base
10
420.879347669652
20
127.561849364452
30
0.0
11
419.147296862084
21
126.561849364452
31
0.0
  0
LINE
 8
base
10
404.147296862084
20
152.542611477985
30
0.0
11
401.647296862084
21
156.872738496907
31
0.0
  0
LINE
 8
base
10
405.879347669653
20
153.542611477985
30
0.0
11
404.147296862084
21
152.542611477985
31
0.0
  0
LINE
 8
base
10
426.647296862084
20
113.571468307685
30
0.0
11
428.379347669652
21
114.571468307685
31
0.0
  0
LINE
 8
base
10
403.379347669652
20
157.872738496907
30
0.0
11
400.879347669652
21
162.202865515829
31
0.0
  0
LINE
 8
base
10
406.647296862084
20
148.212484459063
30
0.0
11
408.379347669652
21
149.212484459063
31
0.0
  0
LINE
 8
base
10
409.147296862084
20
143.882357440141
30
0.0
11
406.647296862084
21
148.212484459063
31
0.0
  0
LINE
 8
base
10
458.379347669653
20
62.6099440806188
30
0.0
11
455.879347669653
21
66.940071099541
31
0.0
  0
LINE
 8
base
10
435.879347669652
20
101.581087250919
30
0.0
11
434.147296862084
21
100.581087250919
31
0.0
  0
LINE
 8
base
10
408.379347669652
20
149.212484459063
30
0.0
11
405.879347669653
21
153.542611477985
31
0.0
  0
LINE
 8
base
10
424.147296862084
20
117.901595326608
30
0.0
11
421.647296862084
21
122.23172234553
31
0.0
  0
LINE
 8
base
10
440.879347669653
20
92.9208332130743
30
0.0
11
439.147296862084
21
91.9208332130743
31
0.0
  0
LINE
 8
base
10
454.147296862084
20
65.940071099541
30
0.0
11
451.647296862084
21
70.2701981184632
31
0.0
  0
LINE
 8
base
10
448.379347669653
20
79.9304521563076
30
0.0
11
445.879347669652
21
84.26057917523
31
0.0
  0
LINE
 8
base
10
450.879347669653
20
75.6003251373854
30
0.0
11
449.147296862084
21
74.6003251373854
31
0.0
  0
LINE
 8
base
10
455.879347669653
20
66.940071099541
30
0.0
11
454.147296862084
21
65.940071099541
31
0.0
  0
LINE
 8
base
10
453.379347669653
20
71.2701981184632
30
0.0
11
450.879347669653
21
75.6003251373854
31
0.0
  0
LINE
 8
base
10
456.647296862084
20
61.6099440806188
30
0.0
11
458.379347669653
21
62.6099440806188
31
0.0
  0
LINE
 8
base
10
444.147296862084
20
83.26057917523
30
0.0
11
441.647296862084
21
87.5907061941522
31
0.0
  0
LINE
 8
base
10
398.379347669652
20
166.532992534752
30
0.0
11
395.879347669652
21
170.863119553674
31
0.0
  0
LINE
 8
base
10
394.147296862084
20
169.863119553674
30
0.0
11
391.647296862084
21
174.193246572596
31
0.0
  0
LINE
 8
base
10
396.647296862084
20
165.532992534752
30
0.0
11
398.379347669652
21
166.532992534752
31
0.0
  0
LINE
 8
base
10
390.879347669652
20
179.523373591518
30
0.0
11
389.147296862084
21
178.523373591518
31
0.0
  0
LINE
 8
base
10
388.379347669652
20
183.85350061044
30
0.0
11
385.879347669652
21
188.183627629363
31
0.0
  0
LINE
 8
base
10
399.147296862084
20
161.202865515829
30
0.0
11
396.647296862084
21
165.532992534752
31
0.0
  0
LINE
 8
base
10
373.379347669652
20
209.834262723974
30
0.0
11
370.879347669652
21
214.164389742896
31
0.0
  0
LINE
 8
base
10
375.879347669652
20
205.504135705051
30
0.0
11
374.147296862084
21
204.504135705051
31
0.0
  0
LINE
 8
base
10
371.647296862084
20
208.834262723974
30
0.0
11
373.379347669652
21
209.834262723974
31
0.0
  0
LINE
 8
base
10
379.147296862084
20
195.843881667207
30
0.0
11
376.647296862084
21
200.174008686129
31
0.0
  0
LINE
 8
base
10
378.379347669652
20
201.174008686129
30
0.0
11
375.879347669652
21
205.504135705051
31
0.0
  0
LINE
 8
base
10
374.147296862084
20
204.504135705051
30
0.0
11
371.647296862084
21
208.834262723974
31
0.0
  0
LINE
 8
base
10
376.647296862084
20
200.174008686129
30
0.0
11
378.379347669652
21
201.174008686129
31
0.0
  0
LINE
 8
base
10
370.879347669652
20
214.164389742896
30
0.0
11
369.147296862084
21
213.164389742896
31
0.0
  0
LINE
 8
base
10
380.879347669652
20
196.843881667207
30
0.0
11
379.147296862084
21
195.843881667207
31
0.0
  0
LINE
 8
base
10
381.647296862084
20
191.513754648285
30
0.0
11
383.379347669652
21
192.513754648285
31
0.0
  0
LINE
 8
base
10
384.147296862084
20
187.183627629363
30
0.0
11
381.647296862084
21
191.513754648285
31
0.0
  0
LINE
 8
base
10
383.379347669652
20
192.513754648285
30
0.0
11
380.879347669652
21
196.843881667207
31
0.0
  0
LINE
 8
base
10
389.147296862084
20
178.523373591518
30
0.0
11
386.647296862084
21
182.85350061044
31
0.0
  0
LINE
 8
base
10
400.879347669652
20
162.202865515829
30
0.0
11
399.147296862084
21
161.202865515829
31
0.0
  0
LINE
 8
base
10
401.647296862084
20
156.872738496907
30
0.0
11
403.379347669652
21
157.872738496907
31
0.0
  0
LINE
 8
base
10
385.879347669652
20
188.183627629363
30
0.0
11
384.147296862084
21
187.183627629363
31
0.0
  0
LINE
 8
base
10
386.647296862084
20
182.85350061044
30
0.0
11
388.379347669652
21
183.85350061044
31
0.0
  0
LINE
 8
base
10
395.879347669652
20
170.863119553674
30
0.0
11
394.147296862084
21
169.863119553674
31
0.0
  0
LINE
 8
base
10
393.379347669652
20
175.193246572596
30
0.0
11
390.879347669652
21
179.523373591518
31
0.0
  0
LINE
 8
base
10
369.147296862084
20
213.164389742896
30
0.0
11
366.64729686208
21
217.49451676182
31
0.0
  0
LINE
 8
base
10
391.647296862084
20
174.193246572596
30
0.0
11
393.379347669652
21
175.193246572596
31
0.0
  0
LINE
 8
base
10
396.314708448789
20
234.716396138913
30
0.0
11
396.507653212707
21
234.636475800909
31
0.0
  0
LINE
 8
base
10
390.759938913703
20
234.132165037521
30
0.0
11
390.816161300326
21
234.55921646194
31
0.0
  0
LINE
 8
base
10
386.293212724745
20
232.965438848563
30
0.0
11
386.691161300326
21
233.130274545696
31
0.0
  0
LINE
 8
base
10
387.516161300326
20
234.55921646194
30
0.0
11
387.572383686949
21
234.132165037521
31
0.0
  0
LINE
 8
base
10
386.691161300326
20
233.130274545696
30
0.0
11
387.032887489284
21
233.392490272982
31
0.0
  0
LINE
 8
base
10
568.066571758177
20
204.504135705055
30
0.0
11
566.334520950609
21
205.504135705055
31
0.0
  0
LINE
 8
base
10
565.566571758177
20
200.174008686133
30
0.0
11
563.066571758177
21
195.843881667211
31
0.0
  0
LINE
 8
base
10
575.566571758174
20
217.494516761819
30
0.0
11
573.066571758177
21
213.164389742899
31
0.0
  0
LINE
 8
base
10
558.066571758177
20
187.183627629366
30
0.0
11
556.334520950609
21
188.183627629366
31
0.0
  0
LINE
 8
base
10
545.566571758177
20
165.532992534755
30
0.0
11
543.066571758177
21
161.202865515833
31
0.0
  0
LINE
 8
base
10
536.334520950609
20
153.542611477989
30
0.0
11
533.834520950608
21
149.212484459066
31
0.0
  0
LINE
 8
base
10
543.834520950609
20
166.532992534755
30
0.0
11
545.566571758177
21
165.532992534755
31
0.0
  0
LINE
 8
base
10
548.066571758177
20
169.863119553677
30
0.0
11
546.334520950609
21
170.863119553677
31
0.0
  0
LINE
 8
base
10
538.834520950609
20
157.872738496911
30
0.0
11
540.566571758177
21
156.872738496911
31
0.0
  0
LINE
 8
base
10
541.334520950608
20
162.202865515833
30
0.0
11
538.834520950609
21
157.872738496911
31
0.0
  0
LINE
 8
base
10
526.334520950609
20
136.2221034023
30
0.0
11
523.834520950609
21
131.891976383377
31
0.0
  0
LINE
 8
base
10
538.066571758177
20
152.542611477989
30
0.0
11
536.334520950609
21
153.542611477989
31
0.0
  0
LINE
 8
base
10
530.566571758177
20
139.552230421222
30
0.0
11
528.066571758177
21
135.2221034023
31
0.0
  0
LINE
 8
base
10
550.566571758177
20
174.193246572599
30
0.0
11
548.066571758177
21
169.863119553677
31
0.0
  0
LINE
 8
base
10
546.334520950609
20
170.863119553677
30
0.0
11
543.834520950609
21
166.532992534755
31
0.0
  0
LINE
 8
base
10
551.334520950609
20
179.523373591522
30
0.0
11
548.834520950609
21
175.193246572599
31
0.0
  0
LINE
 8
base
10
553.066571758177
20
178.523373591522
30
0.0
11
551.334520950609
21
179.523373591522
31
0.0
  0
LINE
 8
base
10
555.566571758177
20
182.853500610444
30
0.0
11
553.066571758177
21
178.523373591522
31
0.0
  0
LINE
 8
base
10
523.834520950609
20
131.891976383377
30
0.0
11
525.566571758177
21
130.891976383377
31
0.0
  0
LINE
 8
base
10
528.066571758177
20
135.2221034023
30
0.0
11
526.334520950609
21
136.2221034023
31
0.0
  0
LINE
 8
base
10
528.834520950609
20
140.552230421222
30
0.0
11
530.566571758177
21
139.552230421222
31
0.0
  0
LINE
 8
base
10
531.334520950609
20
144.882357440144
30
0.0
11
528.834520950609
21
140.552230421222
31
0.0
  0
LINE
 8
base
10
535.566571758177
20
148.212484459066
30
0.0
11
533.066571758177
21
143.882357440144
31
0.0
  0
LINE
 8
base
10
533.066571758177
20
143.882357440144
30
0.0
11
531.334520950609
21
144.882357440144
31
0.0
  0
LINE
 8
base
10
533.834520950608
20
149.212484459066
30
0.0
11
535.566571758177
21
148.212484459066
31
0.0
  0
LINE
 8
base
10
520.566571758177
20
122.231722345533
30
0.0
11
518.066571758177
21
117.901595326611
31
0.0
  0
LINE
 8
base
10
518.834520950609
20
123.231722345533
30
0.0
11
520.566571758177
21
122.231722345533
31
0.0
  0
LINE
 8
base
10
543.066571758177
20
161.202865515833
30
0.0
11
541.334520950608
21
162.202865515833
31
0.0
  0
LINE
 8
base
10
516.334520950608
20
118.901595326611
30
0.0
11
513.834520950609
21
114.571468307689
31
0.0
  0
LINE
 8
base
10
523.066571758177
20
126.561849364455
30
0.0
11
521.334520950609
21
127.561849364455
31
0.0
  0
LINE
 8
base
10
525.566571758177
20
130.891976383377
30
0.0
11
523.066571758177
21
126.561849364455
31
0.0
  0
LINE
 8
base
10
571.334520950609
20
214.164389742899
30
0.0
11
568.834520950609
21
209.834262723977
31
0.0
  0
LINE
 8
base
10
548.834520950609
20
175.193246572599
30
0.0
11
550.566571758177
21
174.193246572599
31
0.0
  0
LINE
 8
base
10
521.334520950609
20
127.561849364455
30
0.0
11
518.834520950609
21
123.231722345533
31
0.0
  0
LINE
 8
base
10
540.566571758177
20
156.872738496911
30
0.0
11
538.066571758177
21
152.542611477989
31
0.0
  0
LINE
 8
base
10
553.834520950609
20
183.853500610444
30
0.0
11
555.566571758177
21
182.853500610444
31
0.0
  0
LINE
 8
base
10
570.566571758177
20
208.834262723977
30
0.0
11
568.066571758177
21
204.504135705055
31
0.0
  0
LINE
 8
base
10
561.334520950609
20
196.843881667211
30
0.0
11
558.834520950608
21
192.513754648288
31
0.0
  0
LINE
 8
base
10
563.834520950609
20
201.174008686133
30
0.0
11
565.566571758177
21
200.174008686133
31
0.0
  0
LINE
 8
base
10
568.834520950609
20
209.834262723977
30
0.0
11
570.566571758177
21
208.834262723977
31
0.0
  0
LINE
 8
base
10
566.334520950609
20
205.504135705055
30
0.0
11
563.834520950609
21
201.174008686133
31
0.0
  0
LINE
 8
base
10
573.066571758177
20
213.164389742899
30
0.0
11
571.334520950609
21
214.164389742899
31
0.0
  0
LINE
 8
base
10
560.566571758177
20
191.513754648288
30
0.0
11
558.066571758177
21
187.183627629366
31
0.0
  0
LINE
 8
base
10
511.334520950609
20
110.241341288767
30
0.0
11
508.834520950609
21
105.911214269844
31
0.0
  0
LINE
 8
base
10
510.566571758177
20
104.911214269844
30
0.0
11
508.066571758177
21
100.581087250922
31
0.0
  0
LINE
 8
base
10
513.066571758177
20
109.241341288767
30
0.0
11
511.334520950609
21
110.241341288767
31
0.0
  0
LINE
 8
base
10
503.834520950609
20
97.250960232
30
0.0
11
505.566571758177
21
96.250960232
31
0.0
  0
LINE
 8
base
10
501.334520950608
20
92.9208332130777
30
0.0
11
498.834520950608
21
88.5907061941555
31
0.0
  0
LINE
 8
base
10
515.566571758177
20
113.571468307689
30
0.0
11
513.066571758177
21
109.241341288767
31
0.0
  0
LINE
 8
base
10
486.334520950609
20
66.9400710995445
30
0.0
11
483.834520950608
21
62.6099440806223
31
0.0
  0
LINE
 8
base
10
488.834520950609
20
71.2701981184668
30
0.0
11
490.566571758177
21
70.2701981184668
31
0.0
  0
LINE
 8
base
10
488.066571758177
20
65.9400710995445
30
0.0
11
486.334520950609
21
66.9400710995445
31
0.0
  0
LINE
 8
base
10
495.566571758177
20
78.9304521563111
30
0.0
11
493.066571758177
21
74.6003251373889
31
0.0
  0
LINE
 8
base
10
491.334520950609
20
75.6003251373889
30
0.0
11
488.834520950609
21
71.2701981184668
31
0.0
  0
LINE
 8
base
10
490.566571758177
20
70.2701981184668
30
0.0
11
488.066571758177
21
65.9400710995445
31
0.0
  0
LINE
 8
base
10
493.066571758177
20
74.6003251373889
30
0.0
11
491.334520950609
21
75.6003251373889
31
0.0
  0
LINE
 8
base
10
483.834520950608
20
62.6099440806223
30
0.0
11
485.566571758177
21
61.6099440806223
31
0.0
  0
LINE
 8
base
10
493.834520950609
20
79.9304521563111
30
0.0
11
495.566571758177
21
78.9304521563111
31
0.0
  0
LINE
 8
base
10
498.066571758177
20
83.2605791752334
30
0.0
11
496.334520950609
21
84.2605791752334
31
0.0
  0
LINE
 8
base
10
500.566571758177
20
87.5907061941555
30
0.0
11
498.066571758177
21
83.2605791752334
31
0.0
  0
LINE
 8
base
10
496.334520950609
20
84.2605791752334
30
0.0
11
493.834520950609
21
79.9304521563111
31
0.0
  0
LINE
 8
base
10
505.566571758177
20
96.250960232
30
0.0
11
503.066571758177
21
91.9208332130777
31
0.0
  0
LINE
 8
base
10
513.834520950609
20
114.571468307689
30
0.0
11
515.566571758177
21
113.571468307689
31
0.0
  0
LINE
 8
base
10
518.066571758177
20
117.901595326611
30
0.0
11
516.334520950608
21
118.901595326611
31
0.0
  0
LINE
 8
base
10
498.834520950608
20
88.5907061941555
30
0.0
11
500.566571758177
21
87.5907061941555
31
0.0
  0
LINE
 8
base
10
503.066571758177
20
91.9208332130777
30
0.0
11
501.334520950608
21
92.9208332130777
31
0.0
  0
LINE
 8
base
10
508.834520950609
20
105.911214269844
30
0.0
11
510.566571758177
21
104.911214269844
31
0.0
  0
LINE
 8
base
10
506.334520950609
20
101.581087250922
30
0.0
11
503.834520950609
21
97.250960232
31
0.0
  0
LINE
 8
base
10
485.566571758177
20
61.6099440806223
30
0.0
11
483.066571758175
21
57.279817061699
31
0.0
  0
LINE
 8
base
10
508.066571758177
20
100.581087250922
30
0.0
11
506.334520950609
21
101.581087250922
31
0.0
  0
LINE
 8
base
10
498.606934310128
20
10.7798170616991
30
0.0
11
493.606934310127
21
10.7798170616983
31
0.0
  0
LINE
 8
base
10
488.606934310127
20
10.7798170616994
30
0.0
11
483.606934310126
21
10.7798170616982
31
0.0
  0
LINE
 8
base
10
478.606934310127
20
10.7798170616986
30
0.0
11
473.606934310127
21
10.7798170616987
31
0.0
  0
LINE
 8
base
10
468.606934310126
20
10.7798170616993
30
0.0
11
463.606934310127
21
10.779817061699
31
0.0
  0
LINE
 8
base
10
458.606934310127
20
10.779817061699
30
0.0
11
453.606934310127
21
10.7798170616991
31
0.0
  0
LINE
 8
base
10
448.606934310127
20
10.7798170616988
30
0.0
11
443.606934310127
21
10.7798170616985
31
0.0
  0
LINE
 8
base
10
398.606934310126
20
10.7798170616983
30
0.0
11
393.606934310127
21
10.7798170616988
31
0.0
  0
LINE
 8
base
10
438.606934310127
20
10.7798170616992
30
0.0
11
433.606934310127
21
10.7798170616989
31
0.0
  0
LINE
 8
base
10
428.606934310127
20
10.7798170616986
30
0.0
11
423.606934310127
21
10.7798170616989
31
0.0
  0
LINE
 8
base
10
418.606934310127
20
10.7798170616988
30
0.0
11
413.606934310127
21
10.7798170616988
31
0.0
  0
LINE
 8
base
10
408.606934310128
20
10.779817061699
30
0.0
11
403.606934310126
21
10.7798170616992
31
0.0
  0
LINE
 8
base
10
388.606934310127
20
10.7798170616992
30
0.0
11
383.606934310127
21
10.7798170616989
31
0.0
  0
LINE
 8
base
10
378.824360975238
20
9.47404316820365
30
0.0
11
379.05594864704
21
8.85256046279058
31
0.0
  0
LINE
 8
base
10
563.606934310126
20
10.7798170616985
30
0.0
11
563.564158616996
21
10.1271861005989
31
0.0
  0
LINE
 8
base
10
563.564158616996
20
10.1271861005989
30
0.0
11
563.436563441572
21
9.48572183618633
31
0.0
  0
LINE
 8
base
10
562.937061329048
20
8.27981706169844
30
0.0
11
562.573701011583
21
7.73600991665522
31
0.0
  0
LINE
 8
base
10
563.436563441572
20
9.48572183618633
30
0.0
11
563.226331972684
21
8.86639989987379
31
0.0
  0
LINE
 8
base
10
563.226331972684
20
8.86639989987379
30
0.0
11
562.937061329048
21
8.27981706169844
31
0.0
  0
LINE
 8
base
10
562.573701011583
20
7.73600991665522
30
0.0
11
562.142468216059
21
7.2442831557661
31
0.0
  0
LINE
 8
base
10
562.142468216059
20
7.2442831557661
30
0.0
11
561.65074145517
21
6.81305036024284
31
0.0
  0
LINE
 8
base
10
561.65074145517
20
6.81305036024284
30
0.0
11
561.106934310127
21
6.44969004277684
31
0.0
  0
LINE
 8
base
10
561.106934310127
20
6.44969004277684
30
0.0
11
560.520351471952
21
6.16041939914227
31
0.0
  0
LINE
 8
base
10
560.520351471952
20
6.16041939914227
30
0.0
11
559.90102953564
21
5.95018793025364
31
0.0
  0
LINE
 8
base
10
559.90102953564
20
5.95018793025364
30
0.0
11
559.259565271227
21
5.82259275482939
31
0.0
  0
LINE
 8
base
10
559.259565271227
20
5.82259275482939
30
0.0
11
558.606934310126
21
5.77981706169891
31
0.0
  0
LINE
 8
base
10
558.606934310126
20
5.77981706169891
30
0.0
11
383.796471706619
21
5.77981706169861
31
0.0
  0
LINE
 8
base
10
378.606934310127
20
10.7798170616984
30
0.0
11
378.673871338259
21
10.1199738703847
31
0.0
  0
LINE
 8
base
10
378.673871338259
20
10.1199738703847
30
0.0
11
378.824360975238
21
9.47404316820365
31
0.0
  0
LINE
 8
base
10
561.606934310127
20
261.209216461941
30
0.0
11
563.606934310127
21
261.209216461941
31
0.0
  0
LINE
 8
base
10
563.606934310127
20
271.209216461941
30
0.0
11
563.606934310127
21
266.209216461941
31
0.0
  0
LINE
 8
base
10
561.606934310127
20
266.209216461941
30
0.0
11
561.606934310127
21
261.209216461941
31
0.0
  0
LINE
 8
base
10
563.606934310127
20
276.209216461941
30
0.0
11
561.606934310127
21
276.209216461941
31
0.0
  0
LINE
 8
base
10
561.606934310127
20
271.209216461941
30
0.0
11
563.606934310127
21
271.209216461941
31
0.0
  0
LINE
 8
base
10
563.606934310127
20
281.209216461941
30
0.0
11
563.606934310127
21
276.209216461941
31
0.0
  0
LINE
 8
base
10
561.606934310127
20
276.209216461941
30
0.0
11
561.606934310127
21
271.209216461941
31
0.0
  0
LINE
 8
base
10
561.606934310127
20
281.209216461941
30
0.0
11
563.606934310127
21
281.209216461941
31
0.0
  0
LINE
 8
base
10
563.606934310127
20
321.209216461941
30
0.0
11
563.606934310127
21
316.209216461941
31
0.0
  0
LINE
 8
base
10
563.606934310127
20
286.209216461941
30
0.0
11
561.606934310127
21
286.209216461941
31
0.0
  0
LINE
 8
base
10
563.606934310127
20
316.209216461941
30
0.0
11
561.606934310127
21
316.209216461941
31
0.0
  0
LINE
 8
base
10
561.606934310127
20
311.209216461941
30
0.0
11
563.606934310127
21
311.209216461941
31
0.0
  0
LINE
 8
base
10
561.606934310127
20
301.209216461941
30
0.0
11
563.606934310127
21
301.209216461941
31
0.0
  0
LINE
 8
base
10
563.606934310127
20
291.209216461941
30
0.0
11
563.606934310127
21
286.209216461941
31
0.0
  0
LINE
 8
base
10
563.606934310127
20
296.209216461941
30
0.0
11
561.606934310127
21
296.209216461941
31
0.0
  0
LINE
 8
base
10
561.606934310127
20
291.209216461941
30
0.0
11
563.606934310127
21
291.209216461941
31
0.0
  0
LINE
 8
base
10
561.606934310127
20
316.209216461941
30
0.0
11
561.606934310127
21
311.209216461941
31
0.0
  0
LINE
 8
base
10
563.606934310127
20
311.209216461941
30
0.0
11
563.606934310127
21
306.209216461941
31
0.0
  0
LINE
 8
base
10
563.606934310127
20
246.209216461941
30
0.0
11
561.606934310127
21
246.209216461941
31
0.0
  0
LINE
 8
base
10
563.606934310127
20
241.209216461941
30
0.0
11
563.606934310127
21
238.209216461939
31
0.0
  0
LINE
 8
base
10
563.606934310127
20
306.209216461941
30
0.0
11
561.606934310127
21
306.209216461941
31
0.0
  0
LINE
 8
base
10
561.606934310127
20
286.209216461941
30
0.0
11
561.606934310127
21
281.209216461941
31
0.0
  0
LINE
 8
base
10
561.606934310127
20
296.209216461941
30
0.0
11
561.606934310127
21
291.209216461941
31
0.0
  0
LINE
 8
base
10
561.606934310127
20
306.209216461941
30
0.0
11
561.606934310127
21
301.209216461941
31
0.0
  0
LINE
 8
base
10
561.606934310127
20
326.209216461941
30
0.0
11
561.606934310127
21
321.209216461941
31
0.0
  0
LINE
 8
base
10
563.606934310127
20
331.209216461941
30
0.0
11
563.606934310127
21
326.209216461941
31
0.0
  0
LINE
 8
base
10
561.606934310127
20
321.209216461941
30
0.0
11
563.606934310127
21
321.209216461941
31
0.0
  0
LINE
 8
base
10
563.606934310127
20
326.209216461941
30
0.0
11
561.606934310127
21
326.209216461941
31
0.0
  0
LINE
 8
base
10
380.606934310128
20
326.20921646194
30
0.0
11
380.606934310128
21
321.20921646194
31
0.0
  0
LINE
 8
base
10
378.606934310128
20
331.20921646194
30
0.0
11
378.606934310128
21
326.20921646194
31
0.0
  0
LINE
 8
base
10
380.606934310128
20
321.20921646194
30
0.0
11
378.606934310128
21
321.20921646194
31
0.0
  0
LINE
 8
base
10
378.606934310128
20
326.20921646194
30
0.0
11
380.606934310128
21
326.20921646194
31
0.0
  0
LINE
 8
base
10
585.824902007374
20
209.262465954253
30
0.0
11
586.824902007374
21
210.994516761822
31
0.0
  0
LINE
 8
base
10
595.485156045219
20
205.994516761822
30
0.0
11
591.155029026297
21
208.494516761822
31
0.0
  0
LINE
 8
base
10
590.155029026297
20
206.762465954253
30
0.0
11
585.824902007374
21
209.262465954253
31
0.0
  0
LINE
 8
base
10
599.815283064141
20
203.494516761822
30
0.0
11
598.815283064141
21
201.762465954253
31
0.0
  0
LINE
 8
base
10
594.485156045219
20
204.262465954253
30
0.0
11
595.485156045219
21
205.994516761822
31
0.0
  0
LINE
 8
base
10
604.145410083063
20
200.994516761822
30
0.0
11
599.815283064141
21
203.494516761822
31
0.0
  0
LINE
 8
base
10
598.815283064141
20
201.762465954253
30
0.0
11
594.485156045219
21
204.262465954253
31
0.0
  0
LINE
 8
base
10
608.475537101985
20
198.494516761822
30
0.0
11
607.475537101985
21
196.762465954253
31
0.0
  0
LINE
 8
base
10
603.145410083063
20
199.262465954253
30
0.0
11
604.145410083063
21
200.994516761822
31
0.0
  0
LINE
 8
base
10
612.805664120908
20
195.994516761822
30
0.0
11
608.475537101985
21
198.494516761822
31
0.0
  0
LINE
 8
base
10
607.475537101985
20
196.762465954253
30
0.0
11
603.145410083063
21
199.262465954253
31
0.0
  0
LINE
 8
base
10
611.805664120908
20
194.262465954253
30
0.0
11
612.805664120908
21
195.994516761822
31
0.0
  0
LINE
 8
base
10
647.446680272285
20
175.994516761822
30
0.0
11
643.116553253363
21
178.494516761822
31
0.0
  0
LINE
 8
base
10
617.13579113983
20
193.494516761822
30
0.0
11
616.13579113983
21
191.762465954253
31
0.0
  0
LINE
 8
base
10
643.116553253363
20
178.494516761822
30
0.0
11
642.116553253363
21
176.762465954253
31
0.0
  0
LINE
 8
base
10
637.786426234441
20
179.262465954253
30
0.0
11
638.786426234441
21
180.994516761822
31
0.0
  0
LINE
 8
base
10
629.126172196596
20
184.262465954253
30
0.0
11
630.126172196596
21
185.994516761822
31
0.0
  0
LINE
 8
base
10
621.465918158752
20
190.994516761822
30
0.0
11
617.13579113983
21
193.494516761822
31
0.0
  0
LINE
 8
base
10
625.796045177674
20
188.494516761822
30
0.0
11
624.796045177674
21
186.762465954253
31
0.0
  0
LINE
 8
base
10
620.465918158752
20
189.262465954253
30
0.0
11
621.465918158752
21
190.994516761822
31
0.0
  0
LINE
 8
base
10
495.324902007376
20
52.511867869269
30
0.0
11
494.324902007376
21
50.7798170617003
31
0.0
  0
LINE
 8
base
10
642.116553253363
20
176.762465954253
30
0.0
11
637.786426234441
21
179.262465954253
31
0.0
  0
LINE
 8
base
10
490.994774988453
20
55.0118678692689
30
0.0
11
486.664647969531
21
57.5118678692689
31
0.0
  0
LINE
 8
base
10
537.626172196598
20
25.7798170617004
30
0.0
11
533.296045177675
21
28.2798170617004
31
0.0
  0
LINE
 8
base
10
638.786426234441
20
180.994516761822
30
0.0
11
634.456299215519
21
183.494516761822
31
0.0
  0
LINE
 8
base
10
582.494774988452
20
213.494516761822
30
0.0
11
581.494774988452
21
211.762465954253
31
0.0
  0
LINE
 8
base
10
494.324902007376
20
50.7798170617003
30
0.0
11
489.994774988453
21
53.2798170617003
31
0.0
  0
LINE
 8
base
10
634.456299215519
20
183.494516761822
30
0.0
11
633.456299215518
21
181.762465954253
31
0.0
  0
LINE
 8
base
10
486.664647969531
20
57.5118678692689
30
0.0
11
485.664647969531
21
55.7798170617003
31
0.0
  0
LINE
 8
base
10
616.13579113983
20
191.762465954253
30
0.0
11
611.805664120908
21
194.262465954253
31
0.0
  0
LINE
 8
base
10
624.796045177674
20
186.762465954253
30
0.0
11
620.465918158752
21
189.262465954253
31
0.0
  0
LINE
 8
base
10
633.456299215518
20
181.762465954253
30
0.0
11
629.126172196596
21
184.262465954253
31
0.0
  0
LINE
 8
base
10
498.655029026298
20
48.2798170617003
30
0.0
11
499.655029026298
21
50.0118678692689
31
0.0
  0
LINE
 8
base
10
502.98515604522
20
45.7798170617003
30
0.0
11
498.655029026298
21
48.2798170617003
31
0.0
  0
LINE
 8
base
10
499.655029026298
20
50.0118678692689
30
0.0
11
495.324902007376
21
52.511867869269
31
0.0
  0
LINE
 8
base
10
507.315283064142
20
43.2798170617003
30
0.0
11
508.315283064142
21
45.011867869269
31
0.0
  0
LINE
 8
base
10
503.98515604522
20
47.511867869269
30
0.0
11
502.98515604522
21
45.7798170617003
31
0.0
  0
LINE
 8
base
10
511.645410083064
20
40.7798170617003
30
0.0
11
507.315283064142
21
43.2798170617003
31
0.0
  0
LINE
 8
base
10
508.315283064142
20
45.011867869269
30
0.0
11
503.98515604522
21
47.511867869269
31
0.0
  0
LINE
 8
base
10
515.975537101987
20
38.2798170617003
30
0.0
11
516.975537101986
21
40.011867869269
31
0.0
  0
LINE
 8
base
10
512.645410083064
20
42.511867869269
30
0.0
11
511.645410083064
21
40.7798170617003
31
0.0
  0
LINE
 8
base
10
520.305664120909
20
35.7798170617003
30
0.0
11
515.975537101987
21
38.2798170617003
31
0.0
  0
LINE
 8
base
10
516.975537101986
20
40.011867869269
30
0.0
11
512.645410083064
21
42.511867869269
31
0.0
  0
LINE
 8
base
10
521.305664120909
20
37.511867869269
30
0.0
11
520.305664120909
21
35.7798170617003
31
0.0
  0
LINE
 8
base
10
554.946680272286
20
15.7798170617004
30
0.0
11
550.616553253364
21
18.2798170617004
31
0.0
  0
LINE
 8
base
10
524.635791139831
20
33.2798170617004
30
0.0
11
525.635791139831
21
35.011867869269
31
0.0
  0
LINE
 8
base
10
550.616553253364
20
18.2798170617004
30
0.0
11
551.616553253364
21
20.011867869269
31
0.0
  0
LINE
 8
base
10
547.286426234442
20
22.511867869269
30
0.0
11
546.286426234442
21
20.7798170617004
31
0.0
  0
LINE
 8
base
10
538.626172196597
20
27.511867869269
30
0.0
11
537.626172196598
21
25.7798170617004
31
0.0
  0
LINE
 8
base
10
528.965918158753
20
30.7798170617003
30
0.0
11
524.635791139831
21
33.2798170617004
31
0.0
  0
LINE
 8
base
10
533.296045177675
20
28.2798170617004
30
0.0
11
534.296045177675
21
30.011867869269
31
0.0
  0
LINE
 8
base
10
529.965918158753
20
32.511867869269
30
0.0
11
528.965918158753
21
30.7798170617003
31
0.0
  0
LINE
 8
base
10
551.616553253364
20
20.011867869269
30
0.0
11
547.286426234442
21
22.511867869269
31
0.0
  0
LINE
 8
base
10
546.286426234442
20
20.7798170617004
30
0.0
11
541.95629921552
21
23.2798170617004
31
0.0
  0
LINE
 8
base
10
489.994774988453
20
53.2798170617003
30
0.0
11
490.994774988453
21
55.0118678692689
31
0.0
  0
LINE
 8
base
10
485.664647969531
20
55.7798170617003
30
0.0
11
483.066571758175
21
57.279817061699
31
0.0
  0
LINE
 8
base
10
541.95629921552
20
23.2798170617004
30
0.0
11
542.95629921552
21
25.011867869269
31
0.0
  0
LINE
 8
base
10
525.635791139831
20
35.011867869269
30
0.0
11
521.305664120909
21
37.511867869269
31
0.0
  0
LINE
 8
base
10
534.296045177675
20
30.011867869269
30
0.0
11
529.965918158753
21
32.511867869269
31
0.0
  0
LINE
 8
base
10
542.95629921552
20
25.011867869269
30
0.0
11
538.626172196597
21
27.511867869269
31
0.0
  0
LINE
 8
base
10
560.276807291208
20
15.011867869269
30
0.0
11
555.946680272286
21
17.511867869269
31
0.0
  0
LINE
 8
base
10
563.606934310126
20
10.7798170616985
30
0.0
11
559.276807291208
21
13.2798170617004
31
0.0
  0
LINE
 8
base
10
555.946680272286
20
17.511867869269
30
0.0
11
554.946680272286
21
15.7798170617004
31
0.0
  0
LINE
 8
base
10
559.276807291208
20
13.2798170617004
30
0.0
11
560.276807291208
21
15.011867869269
31
0.0
  0
LINE
 8
base
10
650.776807291207
20
171.762465954253
30
0.0
11
646.446680272285
21
174.262465954253
31
0.0
  0
LINE
 8
base
10
656.106934310126
20
170.994516761819
30
0.0
11
651.776807291207
21
173.494516761822
31
0.0
  0
LINE
 8
base
10
646.446680272285
20
174.262465954253
30
0.0
11
647.446680272285
21
175.994516761822
31
0.0
  0
LINE
 8
base
10
651.776807291207
20
173.494516761822
30
0.0
11
650.776807291207
21
171.762465954253
31
0.0
  0
LINE
 8
base
10
470.902573029366
20
160.336580866239
30
0.0
11
471.294145096246
21
160.334322960784
31
0.0
  0
LINE
 8
base
10
470.186945441439
20
160.637849580794
30
0.0
11
470.524927846045
21
160.44010814387
31
0.0
  0
LINE
 8
base
10
471.106934310127
20
164.69451676182
30
0.0
11
472.614622995139
21
164.877583312035
31
0.0
  0
LINE
 8
base
10
470.524927846045
20
160.44010814387
30
0.0
11
470.902573029366
21
160.336580866239
31
0.0
  0
LINE
 8
base
10
471.672959057434
20
160.433488300032
30
0.0
11
472.013199367495
21
160.62731892999
31
0.0
  0
LINE
 8
base
10
471.294145096246
20
160.334322960784
30
0.0
11
471.672959057434
21
160.433488300032
31
0.0
  0
LINE
 8
base
10
472.013199367495
20
160.62731892999
30
0.0
11
472.291679211569
21
160.902605613547
31
0.0
  0
LINE
 8
base
10
472.291679211569
20
160.902605613547
30
0.0
11
472.489420648491
21
161.240588018151
31
0.0
  0
LINE
 8
base
10
472.489420648491
20
161.240588018151
30
0.0
11
472.592947926123
21
161.618233201472
31
0.0
  0
LINE
 8
base
10
472.592947926123
20
161.618233201472
30
0.0
11
472.594642083295
21
161.91203851741
31
0.0
  0
LINE
 8
base
10
472.595205831578
20
162.009805268354
30
0.0
11
472.49604049233
21
162.388619229543
31
0.0
  0
LINE
 8
base
10
472.49604049233
20
162.388619229543
30
0.0
11
472.302209862371
21
162.728859539602
31
0.0
  0
LINE
 8
base
10
472.302209862371
20
162.728859539602
30
0.0
11
472.026923178815
21
163.007339383675
31
0.0
  0
LINE
 8
base
10
472.026923178815
20
163.007339383675
30
0.0
11
471.68894077421
21
163.205080820599
31
0.0
  0
LINE
 8
base
10
471.68894077421
20
163.205080820599
30
0.0
11
471.311295590889
21
163.30860809823
31
0.0
  0
LINE
 8
base
10
471.311295590889
20
163.30860809823
30
0.0
11
471.106934310127
21
163.309786498044
31
0.0
  0
LINE
 8
base
10
470.919723524008
20
163.310866003686
30
0.0
11
470.540909562819
21
163.211700664439
31
0.0
  0
LINE
 8
base
10
470.540909562819
20
163.211700664439
30
0.0
11
470.20066925276
21
163.01787003448
31
0.0
  0
LINE
 8
base
10
470.20066925276
20
163.01787003448
30
0.0
11
469.922189408686
21
162.742583350923
31
0.0
  0
LINE
 8
base
10
469.922189408686
20
162.742583350923
30
0.0
11
469.724447971762
21
162.404600946318
31
0.0
  0
LINE
 8
base
10
469.724447971762
20
162.404600946318
30
0.0
11
469.620920694132
21
162.026955762996
31
0.0
  0
LINE
 8
base
10
469.620920694132
20
162.026955762996
30
0.0
11
469.620090302128
21
161.88294693748
31
0.0
  0
LINE
 8
base
10
469.618662788675
20
161.635383696115
30
0.0
11
469.717828127924
21
161.256569734927
31
0.0
  0
LINE
 8
base
10
469.717828127924
20
161.256569734927
30
0.0
11
469.911658757882
21
160.916329424868
31
0.0
  0
LINE
 8
base
10
469.911658757882
20
160.916329424868
30
0.0
11
470.186945441439
21
160.637849580794
31
0.0
  0
LINE
 8
base
10
472.594642083295
20
161.91203851741
30
0.0
11
472.595205831578
21
162.009805268354
31
0.0
  0
LINE
 8
base
10
471.106934310127
20
163.309786498044
30
0.0
11
470.919723524008
21
163.310866003686
31
0.0
  0
LINE
 8
base
10
469.620090302128
20
161.88294693748
30
0.0
11
469.618662788675
21
161.635383696115
31
0.0
  0
LINE
 8
base
10
469.970094377985
20
179.187871226337
30
0.0
11
470.262103246777
21
178.926979290384
31
0.0
  0
LINE
 8
base
10
471.106934310128
20
177.294516761819
30
0.0
11
469.599245625116
21
177.111450211604
31
0.0
  0
LINE
 8
base
10
470.99501902287
20
178.670619878377
30
0.0
11
471.106934310126
21
178.67691840507
31
0.0
  0
LINE
 8
base
10
470.611685956389
20
178.750554488159
30
0.0
11
470.99501902287
21
178.670619878377
31
0.0
  0
LINE
 8
base
10
470.262103246777
20
178.926979290384
30
0.0
11
470.611685956389
21
178.750554488159
31
0.0
  0
LINE
 8
base
10
471.385978931231
20
178.692622872599
30
0.0
11
471.757922409804
21
178.815064003127
31
0.0
  0
LINE
 8
base
10
471.757922409804
20
178.815064003127
30
0.0
11
472.085502125195
21
179.029599109261
31
0.0
  0
LINE
 8
base
10
472.085502125195
20
179.029599109261
30
0.0
11
472.346394061148
21
179.321607978055
31
0.0
  0
LINE
 8
base
10
472.346394061148
20
179.321607978055
30
0.0
11
472.522818863373
21
179.671190687665
31
0.0
  0
LINE
 8
base
10
472.522818863373
20
179.671190687665
30
0.0
11
472.602753473154
21
180.054523754148
31
0.0
  0
LINE
 8
base
10
472.602753473154
20
180.054523754148
30
0.0
11
472.599950297322
21
180.104331946401
31
0.0
  0
LINE
 8
base
10
472.580750478933
20
180.445483662506
30
0.0
11
472.458309348404
21
180.817427141082
31
0.0
  0
LINE
 8
base
10
472.458309348404
20
180.817427141082
30
0.0
11
472.24377424227
21
181.145006856471
31
0.0
  0
LINE
 8
base
10
472.24377424227
20
181.145006856471
30
0.0
11
471.951765373477
21
181.405898792424
31
0.0
  0
LINE
 8
base
10
471.951765373477
20
181.405898792424
30
0.0
11
471.602182663865
21
181.58232359465
31
0.0
  0
LINE
 8
base
10
471.602182663865
20
181.58232359465
30
0.0
11
471.218849597384
21
181.66225820443
31
0.0
  0
LINE
 8
base
10
471.218849597384
20
181.66225820443
30
0.0
11
470.827889689024
21
181.64025521021
31
0.0
  0
LINE
 8
base
10
470.827889689024
20
181.64025521021
30
0.0
11
470.45594621045
21
181.517814079681
31
0.0
  0
LINE
 8
base
10
470.45594621045
20
181.517814079681
30
0.0
11
470.12836649506
21
181.303278973546
31
0.0
  0
LINE
 8
base
10
470.12836649506
20
181.303278973546
30
0.0
11
469.867474559107
21
181.011270104754
31
0.0
  0
LINE
 8
base
10
469.867474559107
20
181.011270104754
30
0.0
11
469.691049756882
21
180.661687395142
31
0.0
  0
LINE
 8
base
10
469.691049756882
20
180.661687395142
30
0.0
11
469.6111151471
21
180.278354328661
31
0.0
  0
LINE
 8
base
10
469.6111151471
20
180.278354328661
30
0.0
11
469.622402534845
21
180.077794530577
31
0.0
  0
LINE
 8
base
10
469.633118141321
20
179.887394420302
30
0.0
11
469.75555927185
21
179.515450941728
31
0.0
  0
LINE
 8
base
10
469.75555927185
20
179.515450941728
30
0.0
11
469.970094377985
21
179.187871226337
31
0.0
  0
LINE
 8
base
10
471.106934310126
20
178.67691840507
30
0.0
11
471.385978931231
21
178.692622872599
31
0.0
  0
LINE
 8
base
10
472.599950297322
20
180.104331946401
30
0.0
11
472.580750478933
21
180.445483662506
31
0.0
  0
LINE
 8
base
10
469.622402534845
20
180.077794530577
30
0.0
11
469.633118141321
21
179.887394420302
31
0.0
  0
LINE
 8
base
10
484.891779239248
20
172.080378618905
30
0.0
11
484.575476024406
21
172.311216349744
31
0.0
  0
LINE
 8
base
10
477.361000216944
20
170.99451676182
30
0.0
11
477.361000216945
21
171.753897847428
31
0.0
  0
LINE
 8
base
10
464.85286840331
20
170.99451676182
30
0.0
11
464.852868403309
21
170.235135676211
31
0.0
  0
LINE
 8
base
10
484.575476024406
20
172.311216349744
30
0.0
11
484.210205379181
21
172.452323179617
31
0.0
  0
LINE
 8
base
10
484.210205379181
20
172.452323179617
30
0.0
11
483.820859894407
21
172.494082911254
31
0.0
  0
LINE
 8
base
10
483.820859894407
20
172.494082911254
30
0.0
11
483.662763865662
21
172.469387713934
31
0.0
  0
LINE
 8
base
10
483.433972821452
20
172.433649687958
30
0.0
11
483.075909874971
21
172.275141934026
31
0.0
  0
LINE
 8
base
10
483.075909874971
20
172.275141934026
30
0.0
11
482.771072453042
21
172.029361690941
31
0.0
  0
LINE
 8
base
10
482.771072453042
20
172.029361690941
30
0.0
11
482.540234722202
21
171.713058476098
31
0.0
  0
LINE
 8
base
10
482.540234722202
20
171.713058476098
30
0.0
11
482.399127892329
21
171.347787830874
31
0.0
  0
LINE
 8
base
10
482.399127892329
20
171.347787830874
30
0.0
11
482.361237366779
21
170.99451676182
31
0.0
  0
LINE
 8
base
10
482.357368160692
20
170.958442346101
30
0.0
11
482.417801383988
21
170.571555273144
31
0.0
  0
LINE
 8
base
10
482.417801383988
20
170.571555273144
30
0.0
11
482.576309137921
21
170.213492326664
31
0.0
  0
LINE
 8
base
10
482.576309137921
20
170.213492326664
30
0.0
11
482.822089381005
21
169.908654904734
31
0.0
 0
ENDSEC
 0
EOF
